<svg width="36" height="48" viewBox="0 0 36 48" fill="none" xmlns="http://www.w3.org/2000/svg">
<path d="M28.8379 24.1272H24.0633V19.3525H4.96484V28.9018C4.99659 34.1756 9.29757 38.425 14.5714 38.3932C17.9387 38.3729 21.0462 36.5808 22.7503 33.6764H28.8379C31.475 33.6764 33.6126 31.5388 33.6126 28.9018C33.6126 26.2648 31.475 24.1272 28.8379 24.1272ZM28.8379 31.2891H23.7291C23.9408 30.5106 24.0533 29.7084 24.0633 28.9018V26.5145H28.8379C30.1564 26.5145 31.2252 27.5833 31.2252 28.9018C31.2252 30.2203 30.1564 31.2891 28.8379 31.2891ZM24.0633 42.032C24.0633 42.6911 23.5288 43.2256 22.8697 43.2256H6.1585C5.49936 43.2256 4.96484 42.6911 4.96484 42.032C4.96484 41.3728 5.49936 40.8383 6.1585 40.8383H22.8697C23.5288 40.8383 24.0633 41.3728 24.0633 42.032Z" fill="black"/>
<path d="M10.1776 1.00855C6.21263 6.65904 16.7228 7.4133 10.0413 15.0532" stroke="black" stroke-width="3"/>
<path d="M15.9413 1.00855C11.9763 6.65904 22.4864 7.4133 15.8049 15.0532" stroke="black" stroke-width="3"/>
</svg>
