<svg width="187" height="187" viewBox="0 0 187 187" fill="none" xmlns="http://www.w3.org/2000/svg">
<path d="M103.135 87.5035V60.3066H110.644V87.5035H103.135Z" fill="black"/>
<path d="M89.7812 95.2776L76.6289 60.3066H84.0193L92.6369 83.218L97.1405 95.1899L97.1074 95.2776H89.7812Z" fill="black"/>
<path d="M76.2451 87.5035V60.3066H83.7543V87.5035H76.2451Z" fill="#2280E0"/>
<path d="M89.7812 95.2776L89.748 95.1919L102.867 60.3066H110.26L101.465 83.6914L97.1073 95.2776H89.7812Z" fill="#2280E0"/>
<path d="M99.4319 56.0191C99.4319 59.3306 96.7515 62.0148 93.444 62.0148C90.1383 62.0148 87.458 59.3306 87.458 56.0191C87.458 52.7096 90.1383 50.0254 93.444 50.0254C96.7515 50.0254 99.4319 52.7096 99.4319 56.0191Z" fill="#2280E0"/>
<path d="M22.415 105.773H27.2381C29.5074 105.773 31.1495 106.114 32.1624 106.794C33.1753 107.47 33.6818 108.539 33.6818 110.004C33.6818 111.017 33.3974 111.855 32.8325 112.513C32.2657 113.168 31.4417 113.594 30.3625 113.791V113.908C32.9533 114.35 34.2506 115.714 34.2506 117.999C34.2506 119.526 33.7324 120.718 32.7 121.575C31.6715 122.432 30.2301 122.861 28.3757 122.861H22.415V105.773ZM24.4019 113.09H27.6744C29.0769 113.09 30.084 112.87 30.6976 112.428C31.3151 111.987 31.6248 111.243 31.6248 110.199C31.6248 109.245 31.282 108.553 30.5963 108.127C29.9106 107.702 28.8198 107.488 27.3238 107.488H24.4019V113.09ZM24.4019 114.773V121.162H27.9627C29.3438 121.162 30.382 120.897 31.0794 120.367C31.7748 119.834 32.1235 118.996 32.1235 117.858C32.1235 116.799 31.767 116.019 31.056 115.521C30.3431 115.022 29.2581 114.773 27.7991 114.773H24.4019Z" fill="#10213F"/>
<path d="M37.9248 122.861V105.773H39.9117V121.061H47.4462V122.861H37.9248Z" fill="#10213F"/>
<path d="M63.2512 105.773V116.83C63.2512 118.778 62.6609 120.311 61.4824 121.427C60.3079 122.539 58.693 123.094 56.636 123.094C54.579 123.094 52.9856 122.533 51.8597 121.411C50.7319 120.289 50.1689 118.747 50.1689 116.783V105.773H52.1558V116.923C52.1558 118.347 52.5454 119.44 53.3246 120.204C54.1037 120.967 55.2491 121.349 56.7607 121.349C58.2041 121.349 59.3164 120.967 60.0955 120.204C60.8747 119.436 61.2643 118.334 61.2643 116.9V105.773H63.2512Z" fill="#10213F"/>
<path d="M77.2958 122.861H67.7744V105.773H77.2958V107.534H69.7613V113.043H76.8439V114.796H69.7613V121.084H77.2958V122.861Z" fill="#10213F"/>
<path d="M91.8234 122.86L89.6963 117.422H82.8474L80.7436 122.86H78.7334L85.4888 105.703H87.164L93.8804 122.86H91.8234ZM89.0807 115.637L87.0939 110.339C86.8328 109.669 86.5679 108.849 86.2991 107.877C86.1277 108.625 85.8803 109.447 85.5589 110.339L83.5486 115.637H89.0807Z" fill="#10213F"/>
<path d="M109.869 114.149C109.869 116.97 109.101 119.128 107.57 120.624C106.043 122.116 103.84 122.861 100.963 122.861H96.2334V105.773H101.469C104.122 105.773 106.185 106.512 107.656 107.986C109.131 109.457 109.869 111.512 109.869 114.149ZM107.765 114.22C107.765 111.991 107.206 110.314 106.09 109.186C104.972 108.054 103.31 107.488 101.103 107.488H98.2203V121.139H100.636C103.004 121.139 104.783 120.558 105.973 119.393C107.167 118.23 107.765 116.506 107.765 114.22Z" fill="#10213F"/>
<path d="M123.438 105.773H125.581L119.418 122.861H117.454L111.33 105.773H113.434L117.361 116.83C117.813 118.098 118.171 119.331 118.436 120.531C118.717 119.269 119.083 118.012 119.535 116.76L123.438 105.773Z" fill="#10213F"/>
<path d="M137.451 122.861H127.93V105.773H137.451V107.534H129.917V113.043H136.999V114.796H129.917V121.084H137.451V122.861Z" fill="#10213F"/>
<path d="M143.229 115.755V122.861H141.242V105.773H145.925C148.023 105.773 149.571 106.177 150.569 106.981C151.57 107.782 152.073 108.988 152.073 110.596C152.073 112.856 150.927 114.383 148.636 115.178L153.28 122.861H150.927L146.79 115.755H143.229ZM143.229 114.048H145.948C147.351 114.048 148.379 113.772 149.034 113.214C149.688 112.653 150.016 111.818 150.016 110.706C150.016 109.574 149.683 108.758 149.018 108.259C148.352 107.76 147.283 107.511 145.808 107.511H143.229V114.048Z" fill="#10213F"/>
<path d="M161.298 122.861H159.311V107.534H153.896V105.773H166.705V107.534H161.298V122.861Z" fill="#10213F"/>
<path d="M36.7198 142.272L34.6628 135.571H34.6161C34.62 135.727 34.6317 135.967 34.6472 136.288C34.6667 136.611 34.6862 136.954 34.7018 137.317C34.7174 137.681 34.7252 138.008 34.7252 138.298V142.272H33.1045V133.725H35.5745L37.5925 140.262H37.6315L39.7742 133.725H42.2363V142.272H40.5533V138.228C40.5533 137.959 40.5553 137.65 40.5611 137.301C40.5709 136.948 40.5845 136.613 40.6001 136.296C40.6157 135.98 40.6273 135.741 40.639 135.579H40.5845L38.3795 142.272H36.7198Z" fill="#2280E0"/>
<path d="M49.6169 142.272L49.0014 140.238H45.8847L45.2692 142.272H43.3135L46.3289 133.693H48.5417L51.5726 142.272H49.6169ZM48.5651 138.719L47.9495 136.732C47.9067 136.598 47.856 136.426 47.7937 136.218C47.7314 136.011 47.6651 135.801 47.5989 135.587C47.5366 135.369 47.484 135.18 47.4431 135.018C47.406 135.18 47.3535 135.38 47.2872 135.618C47.219 135.852 47.1548 136.076 47.0924 136.288C47.0301 136.496 46.9834 136.644 46.9522 136.732L46.3444 138.719H48.5651Z" fill="#2280E0"/>
<path d="M55.1398 133.725C55.9131 133.725 56.5521 133.818 57.0566 134.005C57.5591 134.192 57.9331 134.477 58.1786 134.854C58.4279 135.234 58.5526 135.711 58.5526 136.288C58.5526 136.678 58.4766 137.019 58.3266 137.309C58.1805 137.601 57.9857 137.846 57.7422 138.049C57.5026 138.252 57.2436 138.419 56.9631 138.548L59.472 142.272H57.4617L55.4203 138.992H54.4619V142.272H52.6465V133.725H55.1398ZM55.0074 135.213H54.4619V137.519H55.0463C55.6424 137.519 56.0709 137.422 56.3319 137.223C56.591 137.02 56.7215 136.724 56.7215 136.335C56.7215 135.93 56.5813 135.641 56.3008 135.47C56.0242 135.299 55.5937 135.213 55.0074 135.213Z" fill="#2280E0"/>
<path d="M67.4191 142.272H65.3621L63.1259 138.672L62.3623 139.218V142.272H60.5469V133.725H62.3623V137.636C62.4812 137.47 62.598 137.305 62.713 137.137C62.8318 136.966 62.9506 136.798 63.0714 136.631L65.3855 133.725H67.3958L64.4193 137.511L67.4191 142.272Z" fill="#2280E0"/>
<path d="M73.4185 142.272H68.4941V133.725H73.4185V135.213H70.3096V137.091H73.2003V138.571H70.3096V140.776H73.4185V142.272Z" fill="#2280E0"/>
<path d="M78.4929 142.272H76.6852V135.236H74.3633V133.725H80.8148V135.236H78.4929V142.272Z" fill="#2280E0"/>
<path d="M82.1279 142.272V133.725H83.9434V142.272H82.1279Z" fill="#2280E0"/>
<path d="M93.6711 142.272H91.3648L87.6482 135.805H87.6014C87.617 136.076 87.6287 136.348 87.6404 136.623C87.6501 136.894 87.6599 137.165 87.6716 137.433C87.6871 137.704 87.6988 137.977 87.7105 138.252V142.272H86.0898V133.725H88.3728L92.0894 140.129H92.1284C92.1167 139.864 92.107 139.603 92.0972 139.342C92.0855 139.077 92.0758 138.816 92.0661 138.555C92.0544 138.296 92.0466 138.033 92.0427 137.768V133.725H93.6711V142.272Z" fill="#2280E0"/>
<path d="M99.0606 137.472H102.45V141.906C102.002 142.052 101.538 142.169 101.055 142.256C100.572 142.344 100.023 142.389 99.4112 142.389C98.5639 142.389 97.8451 142.223 97.253 141.89C96.6608 141.553 96.2089 141.056 95.8972 140.402C95.5894 139.747 95.4375 138.943 95.4375 137.986C95.4375 137.094 95.6089 136.319 95.9517 135.664C96.2985 135.01 96.8049 134.503 97.4711 134.145C98.1354 133.787 98.9457 133.607 99.9021 133.607C100.354 133.607 100.8 133.658 101.242 133.755C101.683 133.849 102.084 133.974 102.442 134.129L101.842 135.579C101.577 135.45 101.275 135.341 100.938 135.251C100.605 135.158 100.257 135.111 99.8943 135.111C99.3684 135.111 98.9126 135.234 98.523 135.477C98.1334 135.717 97.8315 136.054 97.6192 136.49C97.4107 136.923 97.3075 137.433 97.3075 138.025C97.3075 138.582 97.3815 139.075 97.5335 139.506C97.6834 139.938 97.923 140.275 98.2503 140.519C98.5775 140.758 99.0022 140.877 99.5281 140.877C99.7872 140.877 100.005 140.867 100.183 140.846C100.358 140.821 100.525 140.791 100.681 140.76V138.984H99.0606V137.472Z" fill="#2280E0"/>
<path d="M112.823 142.272L112.207 140.238H109.091L108.475 142.272H106.52L109.535 133.693H111.748L114.779 142.272H112.823ZM111.771 138.719L111.156 136.732C111.113 136.598 111.062 136.426 111 136.218C110.937 136.011 110.871 135.801 110.805 135.587C110.743 135.369 110.69 135.18 110.649 135.018C110.612 135.18 110.56 135.38 110.493 135.618C110.425 135.852 110.361 136.076 110.298 136.288C110.236 136.496 110.189 136.644 110.158 136.732L109.55 138.719H111.771Z" fill="#2280E0"/>
<path d="M119.093 137.472H122.482V141.906C122.034 142.052 121.571 142.169 121.088 142.256C120.604 142.344 120.055 142.389 119.443 142.389C118.596 142.389 117.877 142.223 117.285 141.89C116.693 141.553 116.241 141.056 115.929 140.402C115.622 139.747 115.47 138.943 115.47 137.986C115.47 137.094 115.641 136.319 115.984 135.664C116.331 135.01 116.837 134.503 117.503 134.145C118.168 133.787 118.978 133.607 119.934 133.607C120.386 133.607 120.832 133.658 121.275 133.755C121.715 133.849 122.116 133.974 122.474 134.129L121.874 135.579C121.61 135.45 121.308 135.341 120.971 135.251C120.638 135.158 120.289 135.111 119.927 135.111C119.401 135.111 118.945 135.234 118.555 135.477C118.166 135.717 117.864 136.054 117.651 136.49C117.443 136.923 117.34 137.433 117.34 138.025C117.34 138.582 117.414 139.075 117.566 139.506C117.716 139.938 117.955 140.275 118.283 140.519C118.61 140.758 119.034 140.877 119.56 140.877C119.819 140.877 120.038 140.867 120.215 140.846C120.39 140.821 120.558 140.791 120.714 140.76V138.984H119.093V137.472Z" fill="#2280E0"/>
<path d="M129.443 142.272H124.519V133.725H129.443V135.213H126.334V137.091H129.225V138.571H126.334V140.776H129.443V142.272Z" fill="#2280E0"/>
<path d="M138.802 142.272H136.496L132.779 135.805H132.732C132.748 136.076 132.76 136.348 132.771 136.623C132.781 136.894 132.791 137.165 132.802 137.433C132.818 137.704 132.83 137.977 132.841 138.252V142.272H131.221V133.725H133.504L137.22 140.129H137.259C137.248 139.864 137.238 139.603 137.228 139.342C137.216 139.077 137.207 138.816 137.197 138.555C137.185 138.296 137.177 138.033 137.174 137.768V133.725H138.802V142.272Z" fill="#2280E0"/>
<path d="M144.582 135.111C144.233 135.111 143.924 135.179 143.655 135.314C143.39 135.45 143.166 135.645 142.985 135.898C142.807 136.148 142.673 136.451 142.58 136.81C142.486 137.168 142.439 137.573 142.439 138.025C142.439 138.629 142.511 139.143 142.658 139.568C142.807 139.995 143.041 140.32 143.359 140.542C143.674 140.766 144.083 140.877 144.582 140.877C144.929 140.877 145.277 140.838 145.626 140.76C145.973 140.682 146.353 140.573 146.764 140.433V141.952C146.384 142.108 146.01 142.221 145.642 142.287C145.277 142.354 144.866 142.389 144.411 142.389C143.532 142.389 142.807 142.207 142.237 141.843C141.67 141.481 141.249 140.971 140.975 140.316C140.704 139.658 140.569 138.888 140.569 138.01C140.569 137.367 140.657 136.777 140.834 136.241C141.01 135.701 141.267 135.234 141.606 134.839C141.943 134.445 142.361 134.141 142.86 133.927C143.359 133.715 143.931 133.607 144.582 133.607C145.007 133.607 145.433 133.662 145.86 133.771C146.285 133.876 146.694 134.02 147.083 134.207L146.499 135.68C146.175 135.53 145.854 135.398 145.533 135.283C145.209 135.17 144.894 135.111 144.582 135.111Z" fill="#2280E0"/>
<path d="M151.234 137.246L153.018 133.725H154.974L152.138 138.945V142.272H150.338V139.007L147.502 133.725H149.465L151.234 137.246Z" fill="#2280E0"/>
</svg>
