<svg width="38" height="25" viewBox="0 0 38 25" fill="none" xmlns="http://www.w3.org/2000/svg">
<path d="M20.9746 9.73885V2.67188H22.9258V9.73885H20.9746Z" fill="black"/>
<path d="M17.5045 11.7589L14.0869 2.67188H16.0073L18.2465 8.6253L19.4168 11.7361L19.4082 11.7589H17.5045Z" fill="black"/>
<path d="M13.9873 9.73885V2.67188H15.9385V9.73885H13.9873Z" fill="white"/>
<path d="M17.5047 11.7589L17.4961 11.7367L20.9051 2.67188H22.8259L20.5406 8.7483L19.4084 11.7589H17.5047Z" fill="white"/>
<path d="M20.0127 1.55745C20.0127 2.41792 19.3162 3.1154 18.4568 3.1154C17.5978 3.1154 16.9014 2.41792 16.9014 1.55745C16.9014 0.697485 17.5978 0 18.4568 0C19.3162 0 20.0127 0.697485 20.0127 1.55745Z" fill="white"/>
<path d="M0 14.4854H1.25325C1.84292 14.4854 2.26961 14.5739 2.53281 14.7506C2.79602 14.9262 2.92762 15.2041 2.92762 15.5847C2.92762 15.8479 2.85372 16.0656 2.70693 16.2367C2.55964 16.4067 2.34554 16.5176 2.06512 16.5687V16.5991C2.73831 16.714 3.07541 17.0683 3.07541 17.662C3.07541 18.0588 2.94078 18.3686 2.67251 18.5913C2.40526 18.814 2.03071 18.9254 1.54884 18.9254H0V14.4854ZM0.516281 16.3865H1.36663C1.73106 16.3865 1.99274 16.3293 2.15218 16.2144C2.31264 16.1 2.39311 15.9066 2.39311 15.6353C2.39311 15.3873 2.30403 15.2076 2.12586 15.0968C1.9477 14.9864 1.66425 14.9308 1.27552 14.9308H0.516281V16.3865ZM0.516281 16.8238V18.484H1.44154C1.8004 18.484 2.07019 18.4152 2.25139 18.2775C2.43209 18.1388 2.52269 17.9212 2.52269 17.6256C2.52269 17.3502 2.43006 17.1477 2.24532 17.0182C2.06006 16.8886 1.77813 16.8238 1.39902 16.8238H0.516281Z" fill="#10213F"/>
<path d="M4.0293 18.9254V14.4854H4.54558V18.4577H6.5034V18.9254H4.0293Z" fill="#10213F"/>
<path d="M10.6113 14.4854V17.3583C10.6113 17.8645 10.4579 18.2628 10.1517 18.5528C9.84647 18.8419 9.42686 18.9861 8.89236 18.9861C8.35786 18.9861 7.94382 18.8403 7.65126 18.5488C7.35819 18.2572 7.21191 17.8564 7.21191 17.3462V14.4854H7.7282V17.3826C7.7282 17.7526 7.82943 18.0366 8.03189 18.235C8.23435 18.4334 8.53197 18.5326 8.92475 18.5326C9.29982 18.5326 9.58883 18.4334 9.79129 18.235C9.99376 18.0355 10.095 17.7491 10.095 17.3765V14.4854H10.6113Z" fill="#10213F"/>
<path d="M14.2612 18.9254H11.7871V14.4854H14.2612V14.9429H12.3034V16.3743H14.1438V16.8299H12.3034V18.4638H14.2612V18.9254Z" fill="#10213F"/>
<path d="M18.0352 18.926L17.4824 17.5128H15.7028L15.1561 18.926H14.6338L16.3891 14.4678H16.8244L18.5697 18.926H18.0352ZM17.3225 17.0492L16.8062 15.6724C16.7384 15.4983 16.6696 15.2852 16.5997 15.0326C16.5552 15.227 16.4909 15.4406 16.4074 15.6724L15.885 17.0492H17.3225Z" fill="#10213F"/>
<path d="M22.7238 16.6628C22.7238 17.3957 22.5243 17.9565 22.1265 18.3453C21.7297 18.733 21.1572 18.9263 20.4096 18.9263H19.1807V14.4863H20.5412C21.2306 14.4863 21.7666 14.6782 22.1488 15.0613C22.5319 15.4435 22.7238 15.9775 22.7238 16.6628ZM22.1771 16.681C22.1771 16.102 22.0319 15.6662 21.7418 15.3731C21.4513 15.079 21.0195 14.9317 20.4461 14.9317H19.6969V18.4789H20.3246C20.9401 18.4789 21.4022 18.3281 21.7115 18.0254C22.0217 17.7232 22.1771 17.2753 22.1771 16.681Z" fill="#10213F"/>
<path d="M26.2498 14.4863H26.8066L25.2051 18.9263H24.6949L23.1035 14.4863H23.6502L24.6706 17.3593C24.788 17.6888 24.8811 18.0092 24.95 18.321C25.0229 17.993 25.118 17.6665 25.2355 17.3411L26.2498 14.4863Z" fill="#10213F"/>
<path d="M29.8921 18.9263H27.418V14.4863H29.8921V14.9439H27.9342V16.3753H29.7746V16.8309H27.9342V18.4647H29.8921V18.9263Z" fill="#10213F"/>
<path d="M31.3923 17.0789V18.9254H30.876V14.4854H32.0928C32.6379 14.4854 33.0403 14.5901 33.2995 14.7992C33.5596 15.0072 33.6902 15.3205 33.6902 15.7386C33.6902 16.3257 33.3926 16.7226 32.7974 16.9291L34.004 18.9254H33.3926L32.3175 17.0789H31.3923ZM31.3923 16.6355H32.0989C32.4633 16.6355 32.7305 16.5636 32.9006 16.4189C33.0707 16.2731 33.1557 16.056 33.1557 15.7669C33.1557 15.4729 33.0692 15.2608 32.8966 15.1312C32.7235 15.0016 32.4456 14.9368 32.0624 14.9368H31.3923V16.6355Z" fill="#10213F"/>
<path d="M36.0884 18.9254H35.5722V14.9429H34.165V14.4854H37.4935V14.9429H36.0884V18.9254Z" fill="#10213F"/>
<path d="M3.71677 23.971L3.18227 22.2298H3.17012C3.17113 22.2703 3.17417 22.3326 3.17822 22.4161C3.18328 22.5001 3.18834 22.5892 3.19239 22.6834C3.19644 22.778 3.19847 22.863 3.19847 22.9385V23.971H2.77734V21.75H3.41915L3.94353 23.4487H3.95365L4.51043 21.75H5.15021V23.971H4.71289V22.9202C4.71289 22.8504 4.7134 22.7699 4.71492 22.6793C4.71745 22.5877 4.72099 22.5006 4.72504 22.4181C4.72909 22.3361 4.73213 22.2739 4.73516 22.2319H4.72099L4.14802 23.971H3.71677Z" fill="white"/>
<path d="M7.06859 23.9713L6.90864 23.4429H6.09879L5.93885 23.9713H5.43066L6.2142 21.7422H6.78919L7.57677 23.9713H7.06859ZM6.79527 23.0481L6.63532 22.5318C6.62418 22.4969 6.61102 22.4523 6.59483 22.3982C6.57863 22.3445 6.56142 22.2899 6.54421 22.2342C6.52801 22.1775 6.51435 22.1284 6.50372 22.0864C6.4941 22.1284 6.48044 22.1805 6.46323 22.2423C6.44551 22.303 6.42881 22.3612 6.41261 22.4164C6.39641 22.4705 6.38427 22.509 6.37617 22.5318L6.21825 23.0481H6.79527Z" fill="white"/>
<path d="M8.50237 21.75C8.70332 21.75 8.86934 21.7743 9.00043 21.8229C9.13102 21.8715 9.2282 21.9454 9.29198 22.0436C9.35677 22.1423 9.38916 22.2663 9.38916 22.4161C9.38916 22.5173 9.36942 22.6059 9.33045 22.6813C9.29249 22.7573 9.24187 22.821 9.1786 22.8737C9.11634 22.9263 9.04902 22.9698 8.97614 23.0032L9.62807 23.971H9.10571L8.57526 23.1187H8.32623V23.971H7.85449V21.75H8.50237ZM8.46796 22.1367H8.32623V22.736H8.47808C8.63296 22.736 8.74432 22.7107 8.81214 22.6591C8.87946 22.6064 8.91337 22.5295 8.91337 22.4283C8.91337 22.323 8.87693 22.2481 8.80404 22.2035C8.73217 22.159 8.62031 22.1367 8.46796 22.1367Z" fill="white"/>
<path d="M11.6939 23.971H11.1594L10.5784 23.0356L10.3799 23.1774V23.971H9.9082V21.75H10.3799V22.7664C10.4108 22.7233 10.4412 22.6803 10.4711 22.6368C10.5019 22.5922 10.5328 22.5487 10.5642 22.5052L11.1655 21.75H11.6879L10.9144 22.734L11.6939 23.971Z" fill="white"/>
<path d="M13.2532 23.971H11.9736V21.75H13.2532V22.1367H12.4454V22.6246H13.1965V23.0093H12.4454V23.5823H13.2532V23.971Z" fill="white"/>
<path d="M14.5721 23.971H14.1024V22.1428H13.499V21.75H15.1754V22.1428H14.5721V23.971Z" fill="white"/>
<path d="M15.5156 23.971V21.75H15.9874V23.971H15.5156Z" fill="white"/>
<path d="M18.5159 23.971H17.9166L16.9508 22.2906H16.9387C16.9427 22.3609 16.9458 22.4318 16.9488 22.5032C16.9513 22.5735 16.9539 22.6439 16.9569 22.7137C16.9609 22.7841 16.964 22.8549 16.967 22.9263V23.971H16.5459V21.75H17.1391L18.1049 23.4142H18.115C18.112 23.3454 18.1094 23.2776 18.1069 23.2098C18.1039 23.1409 18.1013 23.0731 18.0988 23.0053C18.0958 22.938 18.0937 22.8696 18.0927 22.8008V21.75H18.5159V23.971Z" fill="white"/>
<path d="M19.9161 22.7239H20.7968V23.876C20.6804 23.9139 20.5599 23.9443 20.4344 23.9671C20.3088 23.9898 20.1661 24.0015 20.0072 24.0015C19.787 24.0015 19.6002 23.9585 19.4463 23.8719C19.2925 23.7843 19.175 23.6553 19.0941 23.4852C19.0141 23.3151 18.9746 23.1061 18.9746 22.8576C18.9746 22.6257 19.0192 22.4243 19.1082 22.2542C19.1983 22.0842 19.3299 21.9526 19.503 21.8594C19.6756 21.7663 19.8862 21.7197 20.1347 21.7197C20.2522 21.7197 20.3681 21.7329 20.483 21.7582C20.5974 21.7825 20.7016 21.8149 20.7948 21.8554L20.6389 22.232C20.57 22.1986 20.4916 22.1702 20.404 22.1469C20.3174 22.1226 20.2268 22.1105 20.1327 22.1105C19.996 22.1105 19.8776 22.1424 19.7764 22.2056C19.6751 22.2679 19.5967 22.3555 19.5415 22.4688C19.4873 22.5812 19.4605 22.7138 19.4605 22.8677C19.4605 23.0125 19.4798 23.1405 19.5192 23.2524C19.5582 23.3647 19.6205 23.4523 19.7055 23.5156C19.7905 23.5778 19.9009 23.6087 20.0375 23.6087C20.1049 23.6087 20.1615 23.6062 20.2076 23.6006C20.2532 23.594 20.2967 23.5864 20.3372 23.5783V23.1167H19.9161V22.7239Z" fill="white"/>
<path d="M23.4924 23.9713L23.3325 23.4429H22.5226L22.3627 23.9713H21.8545L22.638 21.7422H23.213L24.0006 23.9713H23.4924ZM23.2191 23.0481L23.0591 22.5318C23.048 22.4969 23.0349 22.4523 23.0187 22.3982C23.0025 22.3445 22.9852 22.2899 22.968 22.2342C22.9518 22.1775 22.9382 22.1284 22.9275 22.0864C22.9179 22.1284 22.9043 22.1805 22.8871 22.2423C22.8693 22.303 22.8526 22.3612 22.8364 22.4164C22.8202 22.4705 22.8081 22.509 22.8 22.5318L22.6421 23.0481H23.2191Z" fill="white"/>
<path d="M25.1202 22.7239H26.0009V23.876C25.8845 23.9139 25.764 23.9443 25.6385 23.9671C25.5129 23.9898 25.3702 24.0015 25.2113 24.0015C24.9911 24.0015 24.8043 23.9585 24.6504 23.8719C24.4966 23.7843 24.3791 23.6553 24.2982 23.4852C24.2182 23.3151 24.1787 23.1061 24.1787 22.8576C24.1787 22.6257 24.2233 22.4243 24.3123 22.2542C24.4024 22.0842 24.534 21.9526 24.7071 21.8594C24.8797 21.7663 25.0903 21.7197 25.3388 21.7197C25.4563 21.7197 25.5722 21.7329 25.6871 21.7582C25.8015 21.7825 25.9057 21.8149 25.9989 21.8554L25.843 22.232C25.7741 22.1986 25.6957 22.1702 25.6081 22.1469C25.5215 22.1226 25.4309 22.1105 25.3368 22.1105C25.2001 22.1105 25.0817 22.1424 24.9805 22.2056C24.8792 22.2679 24.8008 22.3555 24.7456 22.4688C24.6914 22.5812 24.6646 22.7138 24.6646 22.8677C24.6646 23.0125 24.6839 23.1405 24.7233 23.2524C24.7623 23.3647 24.8246 23.4523 24.9096 23.5156C24.9946 23.5778 25.105 23.6087 25.2416 23.6087C25.309 23.6087 25.3657 23.6062 25.4117 23.6006C25.4573 23.594 25.5008 23.5864 25.5413 23.5783V23.1167H25.1202V22.7239Z" fill="white"/>
<path d="M27.8108 23.971H26.5312V21.75H27.8108V22.1367H27.003V22.6246H27.7541V23.0093H27.003V23.5823H27.8108V23.971Z" fill="white"/>
<path d="M30.2415 23.971H29.6422L28.6764 22.2906H28.6643C28.6683 22.3609 28.6713 22.4318 28.6744 22.5032C28.6769 22.5735 28.6794 22.6439 28.6825 22.7137C28.6865 22.7841 28.6896 22.8549 28.6926 22.9263V23.971H28.2715V21.75H28.8647L29.8305 23.4142H29.8406C29.8375 23.3454 29.835 23.2776 29.8325 23.2098C29.8294 23.1409 29.8269 23.0731 29.8244 23.0053C29.8213 22.938 29.8193 22.8696 29.8183 22.8008V21.75H30.2415V23.971Z" fill="white"/>
<path d="M31.7448 22.1105C31.6542 22.1105 31.5738 22.1282 31.5039 22.1631C31.4351 22.1986 31.3769 22.2492 31.3298 22.315C31.2837 22.3798 31.2488 22.4587 31.2245 22.5519C31.2002 22.645 31.1881 22.7503 31.1881 22.8677C31.1881 23.0246 31.2068 23.1582 31.2447 23.2686C31.2837 23.3794 31.3445 23.4639 31.427 23.5216C31.509 23.5799 31.6153 23.6087 31.7448 23.6087C31.8349 23.6087 31.9255 23.5986 32.0161 23.5783C32.1062 23.5581 32.2049 23.5297 32.3117 23.4933V23.8881C32.213 23.9286 32.1158 23.958 32.0202 23.9752C31.9255 23.9924 31.8187 24.0015 31.7003 24.0015C31.472 24.0015 31.2837 23.9544 31.1354 23.8598C30.9881 23.7656 30.8788 23.633 30.8074 23.4629C30.7371 23.2919 30.7021 23.0919 30.7021 22.8636C30.7021 22.6966 30.7249 22.5432 30.771 22.4041C30.8165 22.2638 30.8834 22.1424 30.9714 22.0396C31.059 21.9374 31.1678 21.8584 31.2974 21.8027C31.427 21.7476 31.5758 21.7197 31.7448 21.7197C31.8552 21.7197 31.966 21.7339 32.0769 21.7622C32.1872 21.7896 32.2935 21.827 32.3947 21.8756L32.2429 22.2583C32.1589 22.2193 32.0754 22.1849 31.9918 22.155C31.9078 22.1257 31.8258 22.1105 31.7448 22.1105Z" fill="white"/>
<path d="M33.4727 22.6651L33.9364 21.75H34.4446L33.7076 23.1065V23.971H33.2399V23.1227L32.5029 21.75H33.0131L33.4727 22.6651Z" fill="white"/>
</svg>
