<svg width="256" height="212" viewBox="0 0 256 212" fill="none" xmlns="http://www.w3.org/2000/svg">
<path d="M199.643 30.5215H137.244C135.835 30.5215 134.693 31.6637 134.693 33.0725V77.0992C134.693 78.5078 135.835 79.65 137.244 79.65H199.643C201.05 79.65 202.192 78.5078 202.192 77.0992V33.0725C202.192 31.6637 201.05 30.5215 199.643 30.5215Z" fill="#FEBB94"/>
<path d="M143.657 39.373H141.809L141.492 40.2746H140.736L142.317 35.8555H143.155L144.736 40.2746H143.975L143.657 39.373ZM143.454 38.7826L142.736 36.7316L142.013 38.7826H143.454ZM145.182 38.5096C145.182 38.1583 145.254 37.8471 145.398 37.5762C145.546 37.3053 145.745 37.0957 145.995 36.9476C146.249 36.7952 146.53 36.7192 146.839 36.7192C147.068 36.7192 147.292 36.7698 147.513 36.8715C147.737 36.9687 147.915 37.1 148.046 37.2651V35.5762H148.776V40.2746H148.046V39.7475C147.927 39.9169 147.762 40.0566 147.551 40.1667C147.343 40.2766 147.104 40.3316 146.833 40.3316C146.528 40.3316 146.249 40.2555 145.995 40.1031C145.745 39.9464 145.546 39.7307 145.398 39.4554C145.254 39.1761 145.182 38.8609 145.182 38.5096ZM148.046 38.5223C148.046 38.2809 147.995 38.0715 147.893 37.8937C147.796 37.7159 147.667 37.5803 147.506 37.4872C147.345 37.3941 147.172 37.3475 146.986 37.3475C146.799 37.3475 146.626 37.3941 146.465 37.4872C146.304 37.5762 146.173 37.7095 146.071 37.8873C145.974 38.0608 145.925 38.2682 145.925 38.5096C145.925 38.7508 145.974 38.9624 146.071 39.1443C146.173 39.3264 146.304 39.4661 146.465 39.5635C146.63 39.6567 146.804 39.7032 146.986 39.7032C147.172 39.7032 147.345 39.6567 147.506 39.5635C147.667 39.4704 147.796 39.3348 147.893 39.157C147.995 38.9751 148.046 38.7635 148.046 38.5223ZM150.997 40.3316C150.721 40.3316 150.474 40.283 150.254 40.1855C150.038 40.084 149.866 39.9487 149.739 39.7793C149.612 39.6058 149.545 39.4132 149.536 39.2015H150.285C150.298 39.3496 150.368 39.4745 150.495 39.576C150.626 39.6734 150.789 39.7223 150.984 39.7223C151.187 39.7223 151.344 39.6841 151.454 39.6078C151.568 39.5274 151.625 39.4259 151.625 39.303C151.625 39.172 151.562 39.0746 151.435 39.011C151.312 38.9477 151.115 38.8777 150.844 38.8016C150.582 38.7296 150.368 38.6597 150.203 38.592C150.038 38.5243 149.894 38.4206 149.771 38.2809C149.653 38.1412 149.593 37.957 149.593 37.7286C149.593 37.5424 149.648 37.373 149.758 37.2206C149.869 37.0641 150.025 36.9412 150.228 36.8525C150.436 36.7634 150.673 36.7192 150.939 36.7192C151.337 36.7192 151.657 36.8207 151.898 37.0239C152.144 37.2229 152.275 37.4958 152.292 37.8428H151.568C151.555 37.6861 151.492 37.5615 151.377 37.4684C151.263 37.3753 151.109 37.3284 150.914 37.3284C150.724 37.3284 150.577 37.3646 150.476 37.4366C150.374 37.5086 150.323 37.6037 150.323 37.7222C150.323 37.8153 150.357 37.8937 150.425 37.957C150.493 38.0206 150.575 38.0715 150.673 38.1094C150.77 38.1433 150.914 38.1878 151.104 38.2427C151.358 38.3107 151.566 38.3804 151.727 38.4523C151.892 38.52 152.033 38.6218 152.152 38.7571C152.271 38.8925 152.332 39.0726 152.336 39.2967C152.336 39.4956 152.281 39.6734 152.171 39.8302C152.061 39.9866 151.904 40.1095 151.701 40.1983C151.502 40.2873 151.267 40.3316 150.997 40.3316Z" fill="white"/>
<path d="M181.298 58.0332C181.298 60.5756 180.544 63.0608 179.131 65.1748C177.719 67.2886 175.711 68.9363 173.363 69.9091C171.014 70.8822 168.429 71.1366 165.935 70.6407C163.442 70.1447 161.152 68.9205 159.354 67.1227C157.556 65.3249 156.332 63.0346 155.836 60.5411C155.34 58.0475 155.594 55.4628 156.567 53.114C157.54 50.7652 159.188 48.7575 161.302 47.3451C163.416 45.9327 165.901 45.1787 168.443 45.1787" stroke="white" stroke-width="17.1948" stroke-miterlimit="10"/>
<path d="M170.838 42.7207C174.247 42.7207 177.517 44.0751 179.927 46.4857C182.338 48.8964 183.692 52.1661 183.692 55.5752" stroke="#1C85E8" stroke-width="17.1948" stroke-miterlimit="10"/>
<path d="M140.615 70.3906H148.139" stroke="white" stroke-width="6.72632" stroke-miterlimit="10" stroke-linecap="round"/>
<path opacity="0.4" d="M140.615 74.6035H156.164" stroke="white" stroke-width="6.72632" stroke-miterlimit="10" stroke-linecap="round"/>
<path d="M183.692 70.4326H191.216" stroke="white" stroke-width="6.72632" stroke-miterlimit="10" stroke-linecap="round"/>
<path opacity="0.4" d="M183.692 74.6455H199.242" stroke="white" stroke-width="6.72632" stroke-miterlimit="10" stroke-linecap="round"/>
<path d="M23.7186 26.4268H114.301C116.706 26.4268 119.014 27.3825 120.715 29.0836C122.416 30.7848 123.372 33.0921 123.372 35.4979V40.9272H14.6475V35.4979C14.6475 33.0921 15.6032 30.7848 17.3044 29.0836C19.0055 27.3825 21.3128 26.4268 23.7186 26.4268Z" fill="#1C85E8"/>
<path d="M14.6475 40.9268H123.372V143.468C123.372 145.379 122.613 147.212 121.261 148.563C119.91 149.915 118.077 150.674 116.166 150.674H21.8537C19.9424 150.674 18.1095 149.915 16.7582 148.563C15.4066 147.212 14.6475 145.379 14.6475 143.468V40.9268Z" fill="url(#paint0_linear_149_3)"/>
<path opacity="0.6" d="M70.0924 131.125C90.9123 131.125 107.79 114.247 107.79 93.4274C107.79 72.6075 90.9123 55.7295 70.0924 55.7295C49.2723 55.7295 32.3945 72.6075 32.3945 93.4274C32.3945 114.247 49.2723 131.125 70.0924 131.125Z" stroke="white" stroke-width="30" stroke-miterlimit="10"/>
<path d="M24.689 36.2616C25.918 36.2616 26.9142 35.2654 26.9142 34.0365C26.9142 32.8077 25.918 31.8115 24.689 31.8115C23.4601 31.8115 22.4639 32.8077 22.4639 34.0365C22.4639 35.2654 23.4601 36.2616 24.689 36.2616Z" fill="white"/>
<path d="M33.6754 36.2616C34.9044 36.2616 35.9006 35.2654 35.9006 34.0365C35.9006 32.8077 34.9044 31.8115 33.6754 31.8115C32.4464 31.8115 31.4502 32.8077 31.4502 34.0365C31.4502 35.2654 32.4464 36.2616 33.6754 36.2616Z" fill="white"/>
<path d="M42.1207 36.2616C43.3494 36.2616 44.3456 35.2654 44.3456 34.0365C44.3456 32.8077 43.3494 31.8115 42.1207 31.8115C40.8917 31.8115 39.8955 32.8077 39.8955 34.0365C39.8955 35.2654 40.8917 36.2616 42.1207 36.2616Z" fill="white"/>
<path d="M143.765 87.1768H234.348C236.752 87.1768 239.059 88.1325 240.761 89.8336C242.463 91.5348 243.417 93.8421 243.417 96.2479V101.677H134.693V96.2479C134.693 93.8421 135.649 91.5348 137.35 89.8336C139.052 88.1325 141.359 87.1768 143.765 87.1768Z" fill="#1C85E8"/>
<path d="M134.693 101.677H243.417V204.218C243.417 206.129 242.659 207.962 241.308 209.313C239.957 210.665 238.123 211.424 236.212 211.424H141.9C139.989 211.424 138.155 210.665 136.804 209.313C135.453 207.962 134.693 206.129 134.693 204.218V101.677Z" fill="url(#paint1_linear_149_3)"/>
<path opacity="0.6" d="M194.705 194.248C215.526 194.248 232.402 177.371 232.402 156.55C232.402 135.731 215.526 118.853 194.705 118.853C173.885 118.853 157.007 135.731 157.007 156.55C157.007 177.371 173.885 194.248 194.705 194.248Z" stroke="white" stroke-width="30" stroke-miterlimit="10"/>
<path d="M144.735 97.0116C145.964 97.0116 146.96 96.0154 146.96 94.7864C146.96 93.5577 145.964 92.5615 144.735 92.5615C143.506 92.5615 142.51 93.5577 142.51 94.7864C142.51 96.0154 143.506 97.0116 144.735 97.0116Z" fill="white"/>
<path d="M153.722 97.0116C154.951 97.0116 155.947 96.0154 155.947 94.7864C155.947 93.5577 154.951 92.5615 153.722 92.5615C152.493 92.5615 151.497 93.5577 151.497 94.7864C151.497 96.0154 152.493 97.0116 153.722 97.0116Z" fill="white"/>
<path d="M162.166 97.0116C163.395 97.0116 164.392 96.0154 164.392 94.7864C164.392 93.5577 163.395 92.5615 162.166 92.5615C160.938 92.5615 159.941 93.5577 159.941 94.7864C159.941 96.0154 160.938 97.0116 162.166 97.0116Z" fill="white"/>
<path d="M178.077 166.037L172.716 211.449H194.257L206.55 166.307L178.077 166.037Z" fill="#1F2D49"/>
<path d="M194.933 208.968L192.399 195.027L197.422 179.806H205.205L194.933 208.968Z" fill="#0D1B33"/>
<path d="M217.98 166.308C217.827 169.033 217.827 171.765 217.98 174.49C218.608 183.3 216.812 208.065 216.828 211.45H197.702C197.621 206.76 196.431 166.5 196.431 166.5L217.98 166.308Z" fill="#1F2D49"/>
<path d="M177.669 169.292L217.98 174.49V166.307L178.077 166.037L177.669 169.292Z" fill="#0D1B33"/>
<path d="M185.31 119.981C186.435 114.426 183.79 114.569 182.909 113.686C182.909 113.686 179.606 110.962 177.088 113.501C174.424 116.188 159.151 137.052 159.151 137.052L168.708 145.841L170.504 143.698L175.157 138.148L180.134 132.217L180.752 131.542L187.465 123.938C187.465 123.938 184.674 122.905 185.31 119.981Z" fill="#FEBB94"/>
<path d="M189.307 120.927C190.595 117.082 188.522 112.919 184.675 111.631C180.829 110.343 176.667 112.416 175.379 116.263C174.091 120.109 176.165 124.271 180.011 125.559C183.857 126.847 188.019 124.773 189.307 120.927Z" fill="#FEBB94"/>
<path d="M180.664 131.512C180.856 130.352 181.242 128.03 181.656 125.914L183.861 115.672C183.861 115.672 177.94 124.424 175.212 130.52C173.191 135.088 170.848 139.744 170.46 143.683L175.113 138.134L180.089 132.202L180.664 131.512Z" fill="#FF967C"/>
<path d="M161.472 110.007C160.974 105.31 162.252 105.082 162.27 102.535C162.279 100.047 166.037 95.4394 164.244 95.5325C162.452 95.6256 161.194 97.3385 161.194 97.3385C160.928 95.1059 161.377 91.3907 159.092 89.9888C156.808 88.5871 156.27 89.2655 154.409 89.8232C149.443 91.3482 152.215 97.92 152.266 100.002C152.311 101.313 154.616 106.216 154.721 107.121L155.455 110.607L161.472 110.007Z" fill="#FFCCB3"/>
<path d="M158.642 96.5498L157.963 89.8076L158.642 96.5498Z" fill="#E56441"/>
<path d="M158.642 96.5498L157.963 89.8076" stroke="#E56441" stroke-width="1.20133" stroke-linecap="round"/>
<path d="M156.319 96.6241L155.214 90.1475L156.319 96.6241Z" fill="#E56441"/>
<path d="M156.319 96.6241L155.214 90.1475" stroke="#E56441" stroke-width="1.20133" stroke-linecap="round"/>
<path d="M153.59 96.6396L153.031 92.7637L153.59 96.6396Z" fill="#E56441"/>
<path d="M153.59 96.6396L153.031 92.7637" stroke="#E56441" stroke-width="1.20133" stroke-linecap="round"/>
<path d="M157.354 101.697C158.166 99.8004 160.271 97.9746 160.271 97.9746L157.354 101.697Z" fill="#E56441"/>
<path d="M157.354 101.697C158.166 99.8004 160.271 97.9746 160.271 97.9746" stroke="#E56441" stroke-width="1.20133" stroke-linecap="round"/>
<path d="M170.174 138.926L162.228 107.555C162.172 107.367 162.049 107.206 161.882 107.104C161.714 107.001 161.515 106.964 161.322 107L155.33 108.142C155.043 108.199 154.789 108.362 154.616 108.597C154.442 108.832 154.362 109.123 154.392 109.413L157.693 142.03L170.174 138.926Z" fill="#FEBB94"/>
<path d="M164.112 147.692C167.706 147.692 170.619 144.778 170.619 141.184C170.619 137.59 167.706 134.677 164.112 134.677C160.518 134.677 157.604 137.59 157.604 141.184C157.604 144.778 160.518 147.692 164.112 147.692Z" fill="#FEBB94"/>
<path d="M190.381 108.372C190.381 108.372 182.942 110.567 181.07 111.35C179.198 112.133 179.073 115.265 178.949 117.484C178.861 119.038 178.567 142.553 178.683 157.336C178.707 160.495 178.118 162.498 177.74 164.254C177.636 164.722 177.58 165.199 177.572 165.678C177.57 165.846 177.601 166.013 177.663 166.169C177.725 166.326 177.818 166.468 177.935 166.589C178.053 166.709 178.193 166.806 178.348 166.872C178.503 166.938 178.669 166.973 178.837 166.975L216.922 167.331C216.922 167.331 218.611 167.576 218.204 165.649C217.8 163.542 217.578 161.403 217.543 159.258C217.161 143.903 217.09 118.188 216.925 116.971C216.675 115.144 218.637 113.57 216.51 112.65L206.24 108.914L190.381 108.372Z" fill="#FEBB94"/>
<path d="M209.404 125.345C209.404 125.345 209.982 146.628 209.86 153.722C209.786 158.143 204.731 160.015 204.716 162.575C204.708 164.089 208.801 163.147 210.608 162.558C214.67 161.235 217.344 163.033 217.344 163.033L216.26 124.25L209.404 125.345Z" fill="#FF967C"/>
<path d="M192.101 100.851L194.371 112.712L195.174 113.561C195.174 113.561 194.856 113.941 195.768 113.026C197.92 110.869 203.587 108.24 203.353 107.393C203.017 106.179 202.043 98.6172 202.043 98.6172L192.101 100.851Z" fill="#FFCCB3"/>
<path d="M192.008 101.639H197.991L191.419 111.847L192.008 101.639Z" fill="#FF967C"/>
<path d="M209.334 96.474C211.081 92.1439 205.742 91.5947 204.818 91.5377C203.895 91.4805 204.513 84.4752 204.513 84.4752C204.513 84.4752 195.076 79.7214 192.411 80.8542C192.411 80.8542 188.585 88.7735 186.777 94.0371C184.969 99.3005 185.75 102.133 187.649 102.899C190.167 104.171 193.476 104.575 195.841 103.99C200.053 102.949 202.727 99.586 202.727 99.586C202.798 99.5758 202.839 99.571 202.839 99.571C202.839 99.571 207.685 100.563 209.334 96.474Z" fill="#FFCCB3"/>
<path d="M206.797 100.28C210.203 97.9028 213.067 95.2449 213.609 91.8717C214.703 85.0748 210.89 83.4319 210.89 83.4319C213.426 78.6157 207.641 76.014 204.657 75.043C194.795 71.8336 188.781 75.3162 188.361 79.1329C188.183 80.7313 188.44 82.2291 189.25 83.4576C189.223 84.6357 189.345 85.8123 189.613 86.9596L191.244 83.9425C191.563 84.352 191.982 84.6728 192.461 84.8738C197.818 87.4264 203.314 84.5968 203.314 84.5968C201.172 87.0723 201.157 92.5529 201.294 93.6977C201.492 95.3482 202.513 94.1424 202.513 94.1424C203.517 92.5199 207.252 91.3364 208.229 94.7018C208.992 97.3244 202.113 99.9052 202.113 99.9052L202.803 103.991C204.085 104.254 203.894 102.899 204.235 103.351C204.576 103.804 205.298 104.095 205.438 102.707C205.578 101.319 206.799 100.279 206.799 100.279L206.797 100.28Z" fill="#BC775C"/>
<path d="M196.127 92.514C196.435 91.9179 196.369 91.2713 195.978 91.0693C195.588 90.8675 195.022 91.1868 194.713 91.7826C194.405 92.3784 194.472 93.0251 194.862 93.227C195.253 93.429 195.819 93.1098 196.127 92.514Z" fill="#080B09"/>
<path d="M190.766 89.6964C191.074 89.1006 191.007 88.454 190.617 88.252C190.226 88.05 189.66 88.3695 189.352 88.9653C189.044 89.5611 189.11 90.2078 189.501 90.4098C189.891 90.6115 190.457 90.2922 190.766 89.6964Z" fill="#080B09"/>
<path d="M191.441 91.6797C191.441 91.6797 191.784 93.2345 190.754 92.9804C189.78 92.7041 189.056 93.1252 189.819 94.2218" stroke="#E56441" stroke-width="1.20133" stroke-linecap="round"/>
<path d="M189.638 95.5111L189.642 95.5129L189.645 95.5142C190.241 95.7208 191.429 96.1334 192.216 96.4209L192.217 96.4214C192.242 96.4305 192.265 96.4463 192.282 96.4672C192.299 96.4883 192.31 96.5135 192.314 96.5404C192.318 96.5671 192.314 96.5946 192.303 96.6195C192.293 96.6435 192.277 96.6646 192.256 96.6801C192.025 96.8279 191.729 96.9981 191.415 97.1291C191.098 97.2616 190.772 97.3499 190.483 97.3423C190.199 97.3349 189.955 97.2357 189.777 96.9935C189.595 96.7447 189.471 96.3283 189.475 95.6602L189.475 95.65L189.473 95.6399C189.47 95.619 189.472 95.5974 189.48 95.5775C189.488 95.5577 189.501 95.5404 189.518 95.5272C189.535 95.5142 189.554 95.5058 189.576 95.503C189.597 95.5002 189.618 95.503 189.638 95.5111Z" fill="#E56441" stroke="#E56441"/>
<path d="M198.674 90.9619L198.587 91.0611C198.472 91.2173 198.3 91.3213 198.108 91.3511C197.917 91.3806 197.721 91.3335 197.564 91.2196L194.922 89.1905C194.79 89.0977 194.697 88.9585 194.663 88.8008C194.629 88.6431 194.655 88.4782 194.737 88.3391C194.782 88.2513 194.847 88.1745 194.924 88.1132C195.002 88.0521 195.092 88.0081 195.188 87.9844C195.284 87.9605 195.384 87.9575 195.482 87.9753C195.579 87.9928 195.671 88.031 195.753 88.0872L198.483 90.0168C198.559 90.0651 198.625 90.1285 198.675 90.2025C198.726 90.2768 198.762 90.3605 198.779 90.4487C198.797 90.537 198.797 90.6278 198.779 90.7159C198.761 90.8041 198.726 90.8878 198.674 90.9619Z" fill="#080B09"/>
<path d="M189.385 85.4999L192.665 86.1476C192.762 86.168 192.853 86.2087 192.933 86.2669C193.013 86.3255 193.08 86.4 193.129 86.486C193.178 86.572 193.208 86.6674 193.217 86.7658C193.227 86.8643 193.215 86.9637 193.183 87.0573C193.139 87.2125 193.037 87.3451 192.899 87.429C192.762 87.513 192.597 87.542 192.439 87.5104L189.147 86.9948C188.957 86.9597 188.788 86.8508 188.677 86.6915C188.567 86.5323 188.523 86.3359 188.557 86.1451L188.569 86.0131C188.587 85.925 188.623 85.8416 188.674 85.7678C188.726 85.6938 188.792 85.6312 188.868 85.5831C188.944 85.5353 189.029 85.5032 189.118 85.489C189.207 85.4748 189.298 85.4783 189.385 85.4999Z" fill="#080B09"/>
<path d="M205.433 126.374L181.089 128.483C180.333 128.548 179.773 129.215 179.838 129.971L182.487 160.559C182.553 161.316 183.219 161.876 183.975 161.81L208.318 159.702C209.076 159.636 209.635 158.97 209.569 158.214L206.921 127.625C206.855 126.869 206.188 126.309 205.433 126.374Z" fill="#1C85E8"/>
<path d="M183.632 132.051L193.67 131.182" stroke="white" stroke-width="5.04786" stroke-miterlimit="10" stroke-linecap="round"/>
<path d="M184.019 135.668L188.594 135.271" stroke="white" stroke-width="5.04786" stroke-miterlimit="10" stroke-linecap="round"/>
<path d="M217.1 118.638C213.353 113.946 211.669 116.193 210.351 116.307C210.351 116.307 205.891 117.139 206.242 120.911C206.614 124.902 213.177 151.502 213.177 151.502L226.95 150.467L226.296 146.799L224.953 139.244L223.521 131.167L223.391 130.205L221.781 119.578C221.781 119.578 219.041 121.143 217.1 118.638Z" fill="#FEBB94"/>
<path d="M218.025 126.737C221.689 124.488 222.833 119.696 220.587 116.034C218.338 112.371 213.546 111.225 209.882 113.473C206.222 115.722 205.074 120.514 207.323 124.176C209.572 127.839 214.362 128.985 218.025 126.737Z" fill="#FEBB94"/>
<path d="M185.055 152.606L176.369 153.253L174.316 158.095L175.018 164.073C175.018 164.073 176.513 163.464 176.667 161.349C176.822 159.235 183.736 160.735 185.543 158.412" fill="#FFCCB3"/>
<path d="M218.183 144.773L184.488 151.125C184.285 151.172 184.107 151.292 183.988 151.462C183.868 151.632 183.816 151.84 183.841 152.046L184.657 158.459C184.699 158.765 184.854 159.045 185.091 159.244C185.329 159.442 185.631 159.546 185.941 159.534L220.651 158.176L218.183 144.773Z" fill="#FEBB94"/>
<path d="M220.178 158.228C223.986 158.228 227.072 155.141 227.072 151.333C227.072 147.525 223.986 144.438 220.178 144.438C216.37 144.438 213.281 147.525 213.281 151.333C213.281 155.141 216.37 158.228 220.178 158.228Z" fill="#FEBB94"/>
<path d="M81.9436 93.9082L93.6658 143.408L94.5104 150.673H74.5219L61.3066 118.707L63.7478 94.7546L81.9436 93.9082Z" fill="#1F2D49"/>
<path d="M69.5352 138.609L72.4258 114.152L73.3824 147.915L69.5352 138.609Z" fill="#0D1B33"/>
<path d="M50.3029 93.7539C50.3029 93.7539 44.837 102.935 44.7653 110.625C44.6577 122.165 43.835 150.674 43.835 150.674H67.9512L72.4253 114.152L65.9634 93.7539H50.3029Z" fill="#1F2D49"/>
<path d="M81.9439 93.9082L50.1147 94.2354L47.0215 100.636L82.4817 96.1797L81.9439 93.9082Z" fill="#0D1B33"/>
<path d="M118.654 42.8554L120.349 39.3033C120.687 38.4846 121.217 37.7594 121.895 37.1888C122.929 36.3482 124.473 34.8656 124.853 33.6412C125.497 31.6862 128.514 26.1231 124.197 23.2752C122.6 22.2253 122.995 22.4698 120.404 23.0862C117.813 23.7023 118.012 26.4884 117.104 28.5424C117.104 28.5424 116.36 26.5701 114.718 25.9578C113.076 25.3455 115.289 30.8185 114.661 33.2177C114.034 35.6166 115.107 36.2333 113.328 40.5979L118.654 42.8554Z" fill="#FFCCB3"/>
<path d="M120.868 23.3096L119.818 28.5712L120.868 23.3096Z" fill="#E56441"/>
<path d="M120.868 23.3096L119.818 28.5712" stroke="#E56441" stroke-width="1.20536" stroke-linecap="round"/>
<path d="M123.813 23.5508L122.017 29.3036L123.813 23.5508Z" fill="#E56441"/>
<path d="M123.813 23.5508L122.017 29.3036" stroke="#E56441" stroke-width="1.20536" stroke-linecap="round"/>
<path d="M126.285 26.5244L124.653 30.0829L126.285 26.5244Z" fill="#E56441"/>
<path d="M126.285 26.5244L124.653 30.0829" stroke="#E56441" stroke-width="1.20536" stroke-linecap="round"/>
<path d="M117.889 29.5088C117.889 29.5088 119.35 31.8716 119.643 33.9238L117.889 29.5088Z" fill="#E56441"/>
<path d="M117.889 29.5088C117.889 29.5088 119.35 31.8716 119.643 33.9238" stroke="#E56441" stroke-width="1.20536" stroke-linecap="round"/>
<path d="M73.0605 47.7662C75.6327 47.2032 79.5031 46.8847 81.3222 48.0593L99.4353 60.5803L113.574 37.4727L119.903 40.9741L106.893 70.0585C104.98 75.0153 100.211 74.9411 97.2977 73.2506L87.8464 68.6308L73.0605 47.7662Z" fill="#5661AE"/>
<path d="M84.5643 59.7892C84.5643 59.7892 84.5287 58.2992 88.0424 64.0406L97.298 73.2507L87.847 68.6309C79.206 65.1587 81.9092 61.1642 84.5643 59.7892Z" fill="#465393"/>
<path d="M72.872 44.3052C72.872 44.3052 79.2886 46.844 80.2682 47.6278C81.2479 48.4113 82.1782 54.8075 83.8435 57.8445C85.509 60.8815 87.9456 66.4868 84.3869 71.6355C80.8282 76.7841 81.2067 80.873 81.2067 80.873L81.964 93.7886L51.2958 94.3539C51.0259 94.3622 50.757 94.3134 50.5072 94.2101C50.2576 94.1071 50.0325 93.9522 49.8473 93.7555C49.6618 93.5589 49.5204 93.3253 49.4321 93.0699C49.3436 92.8145 49.3105 92.5433 49.3349 92.2742C49.6756 88.5086 51.2322 83.2203 51.3546 77.2242C51.5204 69.0979 51.6446 41.9446 51.6446 41.9446L65.0043 41.5254C67.6953 41.9894 72.872 44.3052 72.872 44.3052Z" fill="#5661AE"/>
<path d="M84.1801 71.9414C84.1801 71.9414 79.9966 72.8409 76.5241 73.0216C73.0514 73.2022 74.8563 75.9064 78.0451 76.2386C81.2337 76.5711 81.8516 76.7985 81.8516 76.7985C82.4293 75.0916 83.2111 73.4606 84.1801 71.9414Z" fill="#465393"/>
<path d="M50.8502 82.9536L49.7764 89.1794C49.7764 89.1794 50.4846 91.0365 53.7884 92.1757C57.0922 93.3146 60.0544 92.9727 61.9908 90.808C63.9275 88.6434 70.6753 78.6465 70.6753 78.6465L50.8502 82.9536Z" fill="#465393"/>
<path d="M56.9023 53.0449C56.9023 53.0449 61.3717 57.1201 61.6348 60.1433C61.8976 63.1667 62.5056 71.5969 68.2493 72.4376C75.2896 73.4682 77.1325 74.4718 73.8688 75.2604C70.6052 76.0493 63.198 74.7712 63.198 78.1523C63.198 80.5586 60.3201 82.359 58.8741 81.0443C57.4281 79.7298 45.9109 59.749 56.9023 53.0449Z" fill="#465393"/>
<path d="M86.6261 47.1914L83.1396 54.7288L89.4507 57.4275L93.2195 48.8699L86.6261 47.1914Z" fill="#96BAFD"/>
<path d="M85.4854 50.9375L91.8846 52.0601L91.0787 53.5707L85.4854 51.6205V50.9375Z" fill="#96BAFD"/>
<path d="M89.0622 38.9948C87.3853 38.3563 85.5084 39.1981 84.8701 40.8748L84.2995 42.3737C83.661 44.0504 84.5027 45.9273 86.1797 46.5656C87.8564 47.2041 89.7333 46.3623 90.3719 44.6856L90.9422 43.1867C91.5807 41.51 90.739 39.6331 89.0622 38.9948Z" fill="#1C85E8"/>
<path d="M96.8267 39.8457C105.731 43.5314 114.786 40.4117 114.786 40.4117L106.012 63.3804C106.012 63.3804 100.178 53.9956 92.5443 51.094C89.7314 50.025 96.8267 39.8457 96.8267 39.8457Z" fill="#96BAFD"/>
<path d="M113.5 53.0951C115.939 46.6884 116.7 41.0315 115.199 40.4599C113.698 39.8885 110.504 44.6189 108.064 51.0256C105.625 57.4323 104.865 63.0892 106.366 63.6606C107.867 64.2322 111.061 59.5017 113.5 53.0951Z" fill="white"/>
<path d="M113.501 53.0932C115.94 46.6866 116.876 41.0965 115.592 40.6076C114.307 40.1184 111.289 44.9157 108.849 51.3224C106.41 57.729 105.474 63.3191 106.759 63.8083C108.043 64.2972 111.062 59.5001 113.501 53.0932Z" fill="#1C85E8"/>
<path d="M91.9669 37.9954L98.113 40.3354L93.8305 51.5839L87.6844 49.2437C87.3066 49.1 86.9612 48.8832 86.6673 48.606C86.3735 48.3287 86.1369 47.9959 85.9716 47.6273C85.8062 47.2587 85.7151 46.8611 85.7034 46.4571C85.6917 46.0531 85.7599 45.6509 85.9036 45.2734L87.9965 39.7762C88.1403 39.3987 88.357 39.053 88.6343 38.7591C88.9116 38.4653 89.2443 38.2287 89.613 38.0634C89.9816 37.898 90.3792 37.8069 90.7832 37.7952C91.1871 37.7835 91.5893 37.8517 91.9669 37.9954Z" fill="url(#paint2_linear_149_3)"/>
<path d="M93.5589 41.039L90.4542 39.8568C90.1904 39.7564 89.8948 39.8889 89.7943 40.153C89.6939 40.417 89.8264 40.7124 90.0905 40.8128L93.1951 41.995C93.4589 42.0955 93.7545 41.963 93.855 41.6989C93.9555 41.4348 93.8229 41.1395 93.5589 41.039Z" fill="white"/>
<path d="M92.5269 43.165L89.4223 41.9828C89.1582 41.8823 88.8629 42.0149 88.7621 42.2789C88.6616 42.543 88.7942 42.8383 89.0582 42.9388L92.1628 44.121C92.4269 44.2215 92.7223 44.0889 92.8227 43.8249C92.9232 43.5608 92.7907 43.2655 92.5269 43.165Z" fill="white"/>
<path d="M110.033 48.4395L110.413 48.5974C110.982 48.834 111.438 49.2805 111.686 49.8445C111.935 50.4085 111.957 51.0462 111.747 51.6257C111.635 51.9366 111.46 52.221 111.232 52.4609C111.005 52.7008 110.73 52.8908 110.426 53.0196C110.121 53.1483 109.793 53.2126 109.463 53.2086C109.132 53.2045 108.806 53.132 108.505 52.9959L108.276 52.8926C108.276 52.8926 108.953 50.2909 110.033 48.4395Z" fill="url(#paint3_linear_149_3)"/>
<path d="M78.4678 60.2998L81.4142 56.978C81.4142 56.978 81.1465 54.0313 81.4142 52.9061C81.682 51.7812 81.6818 51.2989 82.432 50.7094C83.1819 50.1203 85.4857 48.9414 85.4857 48.9414V51.6202L92.4297 53.5223C92.4297 53.5223 93.445 55.1351 91.885 56.0164C92.7543 57.3262 91.683 58.4171 91.683 58.4171C91.683 58.4171 92.2335 59.9149 90.868 60.2014C90.868 60.2014 91.1104 61.3245 89.6329 61.7995C89.6329 61.7995 89.194 62.5362 87.4321 62.7565C86.947 62.8171 85.486 62.9488 85.486 62.9488L82.7004 65.7108L78.4678 60.2998Z" fill="#FFCCB3"/>
<path d="M79.1934 59.4813L84.3395 64.0851L84.919 63.5107L79.5396 59.0908L79.1934 59.4813Z" fill="#FCBA9F"/>
<path d="M91.7463 56.0192C91.7463 56.0192 90.2092 55.8777 89.4824 55.6162L91.7463 56.0192Z" fill="#E56441"/>
<path d="M91.7463 56.0192C91.7463 56.0192 90.2092 55.8777 89.4824 55.6162" stroke="#E56441" stroke-width="1.20536" stroke-linecap="round"/>
<path d="M91.4601 58.3707C91.4601 58.3707 89.9228 58.2293 89.1963 57.9678L91.4601 58.3707Z" fill="#E56441"/>
<path d="M91.4601 58.3707C91.4601 58.3707 89.9228 58.2293 89.1963 57.9678" stroke="#E56441" stroke-width="1.20536" stroke-linecap="round"/>
<path d="M90.8556 60.1608C90.8556 60.1608 89.3183 60.0193 88.5918 59.7578L90.8556 60.1608Z" fill="#E56441"/>
<path d="M90.8556 60.1608C90.8556 60.1608 89.3183 60.0193 88.5918 59.7578" stroke="#E56441" stroke-width="1.20536" stroke-linecap="round"/>
<path d="M89.4826 61.7877C89.4826 61.7877 87.9456 61.6463 87.2188 61.3848L89.4826 61.7877Z" fill="#E56441"/>
<path d="M89.4826 61.7877C89.4826 61.7877 87.9456 61.6463 87.2188 61.3848" stroke="#E56441" stroke-width="1.20536" stroke-linecap="round"/>
<path d="M58.4222 48.303C58.4222 48.303 57.083 40.7719 51.0582 41.8907C47.019 42.6409 45.4366 44.8946 46.0207 50.9024C46.4288 55.1027 49.4731 73.835 50.5678 81.4874C51.6912 89.3413 58.6809 90.7267 63.3989 86.821L85.29 64.936L78.5534 58.9099L61.626 72.8337L58.4222 48.303Z" fill="#5661AE"/>
<path fill-rule="evenodd" clip-rule="evenodd" d="M79.5376 47.1911L73.4266 44.5271C72.3306 49.9413 72.7992 48.7971 72.0442 49.2046C72.0442 49.2046 65.5968 49.4504 63.9354 41.584L56.8576 41.8188C56.8576 41.8188 54.8721 47.2323 63.3098 49.8604C61.9827 53.0327 66.6498 58.4592 72.6097 52.3454C76.7398 58.5019 79.5155 52.7593 77.5213 50.5303C80.5023 48.7948 79.5376 47.1911 79.5376 47.1911Z" fill="white"/>
<path d="M73.684 37.5404L73.3233 47.6363C73.3233 47.6363 73.8171 49.8472 71.5481 49.6018C69.2792 49.3565 66.2247 47.5699 64.5075 45.6075C62.7906 43.6454 62.9076 43.4879 63.6433 42.2002C64.3793 40.9124 67.8345 31.0977 67.8345 31.0977L73.684 37.5404Z" fill="#FFCCB3"/>
<path d="M73.6317 38.3869L69.4482 35.7227C69.4482 35.7227 71.3018 43.8584 73.3227 47.6362L73.6317 38.3869Z" fill="#FCBA9F"/>
<path d="M68.9581 10.868C69.0731 8.92878 68.6503 6.99564 67.736 5.28179C66.2232 2.5468 63.0809 -1.23578 58.3092 0.393608C53.5375 2.023 50.0462 5.68907 51.8501 10.868C53.6541 16.047 58.6654 17.7044 61.2187 17.1526C63.7721 16.6008 68.9581 10.868 68.9581 10.868Z" fill="#493212"/>
<path d="M70.4949 11.5886C70.2201 11.1251 69.8088 10.758 69.3173 10.5375C68.8258 10.3169 68.2781 10.2538 67.7492 10.3566C65.8611 10.7046 63.8738 12.1951 62.1843 13.984C60.4949 15.7727 60.5498 17.0708 61.3173 17.8628C62.0849 18.6544 70.4949 11.5886 70.4949 11.5886Z" fill="#1C85E8"/>
<path d="M84.5462 23.4232C84.5462 23.4232 83.5393 33.1505 78.8065 37.5798C75.72 40.4684 72.8898 39.7284 68.6697 33.9475C64.8001 28.6472 64.46 26.0694 64.46 26.0694L68.5493 16.8683C68.5493 16.8683 85.0275 14.5228 84.5462 23.4232Z" fill="#FFCCB3"/>
<path d="M82.8717 21.5185C82.8717 21.5185 80.5432 25.2252 76.2778 25.2853C76.2778 25.2853 73.7074 27.6939 69.79 26.4267C69.79 26.4267 71.4908 23.8464 69.79 22.9423C66.9016 21.407 65.9066 26.5265 67.447 28.3095C68.4938 29.5212 68.5533 31.7179 67.7724 32.9794C66.9914 34.241 65.8636 36.5791 65.8636 36.5791C65.8636 36.5791 63.5977 34.7269 62.4008 33.4551C58.2377 29.0315 57.5569 18.6031 64.4345 13.6261C71.3117 8.64893 78.5513 12.6307 79.9085 13.6261C79.9085 13.6261 87.135 14.8882 87.148 22.4038C87.159 28.8287 82.586 30.3574 82.586 30.3574L83.9508 25.1711C83.9508 25.1711 83.1067 25.2616 82.8717 21.5185Z" fill="#493212"/>
<path d="M75.2728 33.6836L78.3416 35.1891C78.3278 35.2046 78.3126 35.2217 78.2958 35.2395C78.2012 35.3405 78.0633 35.471 77.8898 35.589C77.5438 35.8241 77.0676 36.0037 76.5087 35.822C75.6483 35.4527 75.356 34.8805 75.2703 34.4071C75.2265 34.1662 75.236 33.9471 75.2566 33.7881C75.2616 33.7492 75.2672 33.7144 75.2728 33.6836Z" fill="#E56441" stroke="#E56441"/>
<path d="M82.4564 30.2186C82.5935 29.6638 82.3991 29.1385 82.0226 29.0454C81.6461 28.9525 81.2297 29.327 81.0928 29.8821C80.9557 30.4369 81.1498 30.9622 81.5266 31.0551C81.9031 31.1482 82.3192 30.7735 82.4564 30.2186Z" fill="#080B09"/>
<path d="M76.8733 28.9247C77.0105 28.3699 76.8161 27.8445 76.4396 27.7514C76.0631 27.6586 75.6466 28.0331 75.5098 28.5881C75.3727 29.143 75.567 29.6683 75.9435 29.7611C76.32 29.8543 76.7365 29.4795 76.8733 28.9247Z" fill="#080B09"/>
<path d="M83.6921 28.0628L80.8511 27.4106C80.8035 27.3956 80.7633 27.3638 80.7376 27.321C80.7119 27.2786 80.7025 27.2282 80.7111 27.1791C80.7427 27.0956 80.7908 27.0193 80.8526 26.955C80.9147 26.8906 80.9889 26.8392 81.0711 26.8044C81.1533 26.7695 81.2418 26.7517 81.3311 26.752C81.4204 26.752 81.5087 26.7703 81.5908 26.8056L83.8188 27.7494C84.0043 27.7952 83.9241 28.1201 83.6921 28.0628Z" fill="#080B09"/>
<path d="M74.1527 25.5195L77.8531 26.679C77.8778 26.5635 77.8781 26.4442 77.8539 26.3284C77.8295 26.2129 77.7814 26.1035 77.7122 26.0076C77.6432 25.9117 77.5547 25.8313 77.4527 25.7718C77.3507 25.7123 77.2375 25.6746 77.12 25.6614L74.1634 25.276C74.0708 25.2531 74.0136 25.4851 74.1527 25.5195Z" fill="#080B09"/>
<path d="M79.5338 29.1992L79.9352 32.1952L78.877 32.706" stroke="#E56441" stroke-width="1.22499" stroke-linecap="round"/>
<path d="M119.663 158.229H17.8996C16.1036 158.229 14.6475 159.686 14.6475 161.482V193.26C14.6475 195.056 16.1036 196.512 17.8996 196.512H119.663C121.459 196.512 122.915 195.056 122.915 193.26V161.482C122.915 159.686 121.459 158.229 119.663 158.229Z" fill="#1C85E8"/>
<path d="M38.1759 98.5361H1.7197C0.769795 98.5361 0 99.3062 0 100.256V112.432C0 113.382 0.769795 114.152 1.7197 114.152H38.1759C39.1255 114.152 39.8953 113.382 39.8953 112.432V100.256C39.8953 99.3062 39.1255 98.5361 38.1759 98.5361Z" fill="#FEBB94"/>
<path d="M48.3017 177.182H50.8528C51.0757 177.182 51.2896 177.093 51.4471 176.935C51.6048 176.777 51.6933 176.563 51.6933 176.34C51.6933 176.117 51.6048 175.903 51.4471 175.745C51.2896 175.587 51.0757 175.499 50.8528 175.498H48.3017C48.0784 175.498 47.8644 175.587 47.7065 175.745C47.5485 175.903 47.46 176.117 47.46 176.34C47.46 176.563 47.5485 176.778 47.7065 176.935C47.8644 177.093 48.0784 177.182 48.3017 177.182Z" fill="white"/>
<path d="M43.4045 168.05C43.4045 167.915 43.3722 167.782 43.3098 167.662C43.2475 167.542 43.1572 167.439 43.0468 167.361C42.9361 167.283 42.8084 167.234 42.6746 167.216C42.5408 167.197 42.4044 167.212 42.2772 167.258L26.4725 172.948H22.7932C22.5699 172.948 22.3557 173.036 22.1979 173.194C22.04 173.352 21.9512 173.566 21.9512 173.79V178.891C21.9512 179.115 22.04 179.329 22.1979 179.487C22.3557 179.644 22.5699 179.733 22.7932 179.733H25.7775V186.544C25.7775 186.655 25.7994 186.764 25.8416 186.866C25.8838 186.968 25.9459 187.061 26.024 187.139C26.1024 187.218 26.1952 187.28 26.2972 187.322C26.3995 187.364 26.5089 187.386 26.6196 187.386H31.0834C31.1941 187.386 31.3037 187.364 31.4057 187.322C31.508 187.28 31.6008 187.218 31.6789 187.139C31.757 187.061 31.8191 186.968 31.8613 186.866C31.9038 186.764 31.9255 186.655 31.9255 186.544V181.696L42.2772 185.423C42.4044 185.469 42.5408 185.483 42.6746 185.465C42.8084 185.447 42.9361 185.397 43.0465 185.32C43.1572 185.242 43.2475 185.139 43.3098 185.019C43.3719 184.899 43.4045 184.766 43.4045 184.631V168.05ZM23.6353 178.049V174.631H25.7775V178.049H23.6353ZM30.2416 185.702H27.4616V180.089L30.2416 181.09V185.702ZM27.4616 178.299V174.381L41.7206 169.248V183.433L27.4616 178.299Z" fill="white"/>
<path d="M48.2597 182.759L46.9842 181.484C46.9061 181.406 46.8133 181.344 46.711 181.301C46.609 181.259 46.4996 181.237 46.3889 181.237C46.2783 181.237 46.1689 181.259 46.0666 181.301C45.9646 181.344 45.8717 181.406 45.7934 181.484C45.7153 181.562 45.6532 181.655 45.611 181.757C45.5688 181.859 45.5469 181.969 45.5469 182.079C45.5469 182.19 45.5688 182.299 45.611 182.401C45.6532 182.504 45.7153 182.596 45.7934 182.675L47.0689 183.95C47.1473 184.028 47.2399 184.09 47.3421 184.133C47.4444 184.175 47.5538 184.197 47.6645 184.197C47.7749 184.197 47.8845 184.175 47.9865 184.133C48.0888 184.09 48.1816 184.028 48.2597 183.95C48.3378 183.872 48.3999 183.779 48.4421 183.677C48.4846 183.575 48.5062 183.465 48.5062 183.355C48.5062 183.244 48.4846 183.135 48.4421 183.033C48.3999 182.93 48.3378 182.837 48.2597 182.759Z" fill="white"/>
<path d="M45.7934 171.196C45.9514 171.354 46.1656 171.443 46.3889 171.443C46.6123 171.443 46.8265 171.354 46.9842 171.196L48.2597 169.921C48.4177 169.763 48.5062 169.549 48.5062 169.325C48.5062 169.102 48.4177 168.888 48.2597 168.73C48.1018 168.572 47.8876 168.483 47.6642 168.483C47.4411 168.483 47.2269 168.572 47.0689 168.73L45.7934 170.005C45.6357 170.163 45.5469 170.378 45.5469 170.601C45.5469 170.824 45.6357 171.038 45.7934 171.196Z" fill="white"/>
<path d="M62.2314 168.726H78.8851" stroke="white" stroke-width="14.8881" stroke-miterlimit="10" stroke-linecap="round"/>
<path d="M62.2314 187.372H93.0925" stroke="white" stroke-width="14.8881" stroke-miterlimit="10" stroke-linecap="round"/>
<path opacity="0.4" d="M62.2314 178.049H101.735" stroke="white" stroke-width="14.8881" stroke-miterlimit="10" stroke-linecap="round"/>
<path d="M253.969 124.506H235.203C234.178 124.506 233.346 125.338 233.346 126.364V143.487C233.346 144.513 234.178 145.345 235.203 145.345H253.969C254.997 145.345 255.829 144.513 255.829 143.487V126.364C255.829 125.338 254.997 124.506 253.969 124.506Z" fill="#1C85E8"/>
<path d="M17.3064 109.634C17.0146 109.634 16.7518 109.584 16.5183 109.484C16.2848 109.38 16.1013 109.234 15.9678 109.046C15.8345 108.859 15.7676 108.64 15.7676 108.39H16.5308C16.5475 108.577 16.6206 108.732 16.7498 108.853C16.8831 108.973 17.0688 109.034 17.3064 109.034C17.5524 109.034 17.7442 108.975 17.8818 108.859C18.0195 108.738 18.0884 108.583 18.0884 108.396C18.0884 108.25 18.0444 108.131 17.9569 108.039C17.8734 107.948 17.7671 107.877 17.6379 107.827C17.513 107.777 17.3377 107.722 17.1126 107.664C16.8289 107.589 16.5974 107.514 16.4183 107.439C16.243 107.36 16.0929 107.239 15.9678 107.076C15.8429 106.913 15.7803 106.697 15.7803 106.426C15.7803 106.175 15.8429 105.956 15.9678 105.769C16.0929 105.581 16.2682 105.437 16.4934 105.337C16.7185 105.237 16.979 105.187 17.2751 105.187C17.6964 105.187 18.0403 105.293 18.3072 105.506C18.5784 105.715 18.7285 106.002 18.7577 106.369H17.9694C17.9569 106.211 17.8818 106.075 17.7442 105.963C17.6066 105.85 17.4252 105.794 17.2001 105.794C16.9958 105.794 16.8289 105.846 16.6997 105.95C16.5704 106.055 16.5058 106.205 16.5058 106.401C16.5058 106.534 16.5455 106.644 16.6246 106.732C16.7081 106.815 16.8124 106.882 16.9373 106.932C17.0624 106.982 17.2334 107.037 17.4504 107.095C17.7381 107.174 17.9716 107.253 18.1507 107.333C18.3344 107.412 18.4886 107.535 18.6137 107.701C18.743 107.864 18.8076 108.083 18.8076 108.358C18.8076 108.579 18.7473 108.788 18.6262 108.984C18.5094 109.18 18.3364 109.338 18.107 109.459C17.8818 109.576 17.615 109.634 17.3064 109.634ZM21.4317 106.088C21.6944 106.088 21.928 106.144 22.1323 106.257C22.3409 106.369 22.5034 106.536 22.6202 106.757C22.741 106.978 22.8016 107.245 22.8016 107.558V109.591H22.0949V107.664C22.0949 107.356 22.0175 107.12 21.8634 106.957C21.7089 106.79 21.4983 106.707 21.2314 106.707C20.9646 106.707 20.7519 106.79 20.5934 106.957C20.4393 107.12 20.3622 107.356 20.3622 107.664V109.591H19.6491V104.962H20.3622V106.545C20.483 106.398 20.6351 106.286 20.8188 106.207C21.0063 106.128 21.2106 106.088 21.4317 106.088ZM23.4734 107.852C23.4734 107.506 23.5444 107.199 23.6861 106.932C23.8321 106.665 24.028 106.459 24.274 106.313C24.5243 106.163 24.7996 106.088 25.0998 106.088C25.3707 106.088 25.6065 106.142 25.8065 106.25C26.011 106.355 26.1736 106.486 26.2944 106.644V106.144H27.0138V109.591H26.2944V109.078C26.1736 109.24 26.0087 109.376 25.8004 109.484C25.5918 109.593 25.3542 109.647 25.0873 109.647C24.7912 109.647 24.52 109.572 24.274 109.422C24.028 109.268 23.8321 109.055 23.6861 108.784C23.5444 108.508 23.4734 108.198 23.4734 107.852ZM26.2944 107.864C26.2944 107.626 26.2445 107.42 26.1443 107.245C26.0484 107.07 25.9212 106.937 25.7627 106.845C25.6042 106.753 25.4333 106.707 25.2499 106.707C25.0664 106.707 24.8955 106.753 24.737 106.845C24.5785 106.932 24.4493 107.063 24.349 107.239C24.2531 107.41 24.2053 107.614 24.2053 107.852C24.2053 108.089 24.2531 108.298 24.349 108.477C24.4493 108.656 24.5785 108.794 24.737 108.89C24.8996 108.982 25.0705 109.028 25.2499 109.028C25.4333 109.028 25.6042 108.982 25.7627 108.89C25.9212 108.798 26.0484 108.665 26.1443 108.49C26.2445 108.311 26.2944 108.102 26.2944 107.864ZM28.6636 106.644C28.7676 106.469 28.9052 106.334 29.0762 106.238C29.2515 106.138 29.4578 106.088 29.6956 106.088V106.826H29.514C29.2347 106.826 29.022 106.897 28.8762 107.039C28.7343 107.18 28.6636 107.426 28.6636 107.777V109.591H27.9502V106.144H28.6636V106.644ZM33.5098 107.783C33.5098 107.912 33.5014 108.029 33.4848 108.133H30.8514C30.8722 108.408 30.9745 108.63 31.1579 108.796C31.3413 108.963 31.5665 109.046 31.8333 109.046C32.2169 109.046 32.4881 108.886 32.6466 108.565H33.4159C33.3116 108.882 33.1221 109.142 32.8468 109.347C32.5756 109.547 32.2378 109.647 31.8333 109.647C31.5039 109.647 31.208 109.574 30.9452 109.428C30.6868 109.278 30.4822 109.069 30.3321 108.802C30.1864 108.531 30.1134 108.219 30.1134 107.864C30.1134 107.51 30.1841 107.199 30.326 106.932C30.4718 106.661 30.674 106.453 30.9328 106.307C31.1953 106.161 31.4957 106.088 31.8333 106.088C32.1587 106.088 32.4484 106.159 32.7028 106.301C32.9572 106.442 33.1554 106.642 33.2971 106.901C33.4388 107.155 33.5098 107.449 33.5098 107.783ZM32.7654 107.558C32.7613 107.295 32.6675 107.084 32.4841 106.926C32.3004 106.768 32.0732 106.688 31.802 106.688C31.556 106.688 31.3456 106.768 31.1704 106.926C30.9953 107.08 30.891 107.291 30.8577 107.558H32.7654Z" fill="white"/>
<path d="M10.5327 107.435C10.286 107.435 10.0425 107.489 9.8194 107.594C9.5963 107.699 9.39914 107.852 9.24193 108.042L7.23832 106.905C7.36704 106.542 7.36704 106.146 7.23832 105.784L9.24167 104.646C9.50955 104.969 9.88809 105.179 10.3033 105.236C10.7184 105.292 11.1397 105.192 11.4842 104.954C11.8289 104.715 12.0715 104.356 12.1647 103.948C12.2578 103.539 12.1947 103.111 11.9876 102.747C11.7803 102.383 11.4442 102.109 11.0456 101.98C10.6469 101.852 10.2145 101.877 9.83339 102.051C9.45256 102.226 9.1506 102.537 8.98753 102.922C8.82421 103.308 8.81124 103.741 8.95141 104.136L6.94806 105.274C6.72775 105.008 6.43087 104.817 6.09787 104.726C5.76487 104.635 5.41203 104.649 5.08716 104.766C4.76256 104.883 4.48196 105.098 4.28354 105.38C4.08511 105.662 3.97852 105.999 3.97852 106.344C3.97852 106.689 4.08511 107.026 4.28354 107.309C4.48171 107.591 4.76256 107.805 5.08716 107.923C5.41203 108.04 5.76487 108.054 6.09787 107.963C6.43087 107.872 6.72775 107.681 6.9478 107.415L8.95141 108.552C8.83261 108.888 8.8237 109.253 8.92597 109.594C9.02823 109.935 9.23633 110.235 9.52023 110.45C9.80414 110.665 10.1494 110.784 10.5052 110.79C10.8614 110.795 11.2099 110.688 11.5009 110.482C11.7917 110.276 12.0095 109.984 12.1229 109.646C12.2361 109.309 12.2392 108.944 12.1313 108.604C12.0235 108.265 11.8105 107.969 11.5231 107.758C11.2356 107.548 10.8889 107.435 10.5327 107.435ZM10.5327 102.485C10.7484 102.485 10.9593 102.549 11.1387 102.669C11.3183 102.789 11.458 102.959 11.5406 103.158C11.6233 103.358 11.6449 103.577 11.6027 103.789C11.5607 104 11.4567 104.195 11.3043 104.347C11.1517 104.5 10.9573 104.603 10.7457 104.646C10.534 104.688 10.3147 104.666 10.1153 104.584C9.91581 104.501 9.74563 104.361 9.62581 104.182C9.50599 104.002 9.44188 103.791 9.44213 103.575C9.44239 103.286 9.55737 103.009 9.76191 102.805C9.96618 102.6 10.2435 102.485 10.5327 102.485ZM5.65752 107.435C5.44179 107.435 5.2309 107.371 5.05155 107.251C4.8722 107.131 4.73228 106.961 4.64986 106.762C4.56718 106.563 4.54556 106.343 4.58753 106.132C4.62976 105.92 4.73356 105.726 4.88594 105.573C5.03858 105.421 5.23293 105.317 5.44459 105.275C5.65599 105.233 5.87528 105.254 6.07472 105.337C6.27391 105.419 6.4441 105.559 6.56418 105.738C6.684 105.918 6.74785 106.129 6.74785 106.344C6.74759 106.633 6.63261 106.911 6.42807 107.115C6.2238 107.319 5.94651 107.434 5.65752 107.435ZM10.5327 110.203C10.317 110.203 10.1061 110.14 9.9265 110.02C9.74715 109.9 9.60724 109.73 9.52481 109.53C9.44213 109.331 9.42051 109.112 9.46249 108.9C9.50472 108.688 9.60851 108.494 9.76114 108.342C9.91353 108.189 10.1079 108.085 10.3195 108.043C10.5312 108.001 10.7505 108.022 10.9499 108.105C11.1491 108.188 11.3196 108.327 11.4394 108.507C11.5592 108.686 11.623 108.897 11.623 109.113C11.6228 109.402 11.5078 109.679 11.3033 109.884C11.099 110.088 10.8217 110.203 10.5327 110.203Z" fill="white"/>
<path d="M237.589 138.091L240.855 134.824C241.069 134.611 241.359 134.491 241.659 134.491C241.962 134.491 242.252 134.611 242.466 134.824L245.02 137.38C245.233 137.593 245.523 137.713 245.826 137.713C246.126 137.713 246.416 137.593 246.63 137.38L250.807 133.203" stroke="white" stroke-width="5.16228" stroke-miterlimit="10" stroke-linecap="round"/>
<path d="M248.869 132.451H251.192C251.296 132.451 251.398 132.493 251.472 132.567C251.545 132.641 251.586 132.742 251.586 132.847V134.948" stroke="white" stroke-width="5.16228" stroke-miterlimit="10" stroke-linecap="round"/>
<path d="M197.48 92.9547C198.066 91.6201 197.718 90.1772 196.703 89.7315C195.688 89.2858 194.39 90.0063 193.804 91.3408C193.218 92.6754 193.566 94.1185 194.581 94.5642C195.596 95.0099 196.894 94.2892 197.48 92.9547Z" stroke="#080B09" stroke-miterlimit="10"/>
<path d="M191.656 90.4657C192.242 89.1311 191.894 87.6879 190.879 87.2422C189.864 86.7965 188.566 87.5172 187.98 88.8518C187.394 90.1863 187.742 91.6292 188.757 92.0749C189.772 92.5206 191.07 91.8002 191.656 90.4657Z" stroke="#080B09" stroke-miterlimit="10"/>
<path d="M191.656 90.4678C191.656 90.4678 193.058 90.4429 193.804 91.3412" stroke="#080B09" stroke-miterlimit="10"/>
<path d="M197.311 93.2871H203.353" stroke="#080B09" stroke-miterlimit="10"/>
<path d="M72.6104 52.3457C72.6104 52.3457 73.0243 57.9271 72.6104 62.351" stroke="#96BAFD" stroke-miterlimit="10"/>
<path fill-rule="evenodd" clip-rule="evenodd" d="M196.225 109.721C201.866 106.189 202.802 103.99 202.802 103.99L205.178 108.594L198.588 113.561C198.324 112.863 198.001 112.19 197.622 111.548L195.767 113.026L196.225 109.721ZM189.398 108.564L191.832 106.743C191.832 106.743 191.641 108.43 194.16 109.578L194.37 112.712L193.15 111.529L191.526 113.673L189.398 108.564Z" fill="#1C85E8"/>
<path d="M195.769 113.026L196.226 109.722L197.623 111.548L195.769 113.026Z" fill="#1C85E8"/>
<path d="M194.161 109.578L193.15 111.529L194.37 112.712L194.161 109.578Z" fill="#1C85E8"/>
<path d="M194.371 112.713L195.14 122.21C195.151 122.343 195.206 122.468 195.297 122.565C195.388 122.662 195.51 122.726 195.641 122.745C195.728 122.758 195.816 122.751 195.9 122.726C195.984 122.7 196.061 122.656 196.125 122.596C196.19 122.537 196.24 122.464 196.273 122.383C196.306 122.302 196.32 122.214 196.315 122.127L195.768 113.027L195.173 113.562L194.371 112.713Z" fill="#1C85E8"/>
<path d="M197.752 116.85C198.158 116.85 198.487 116.521 198.487 116.116C198.487 115.71 198.158 115.381 197.752 115.381C197.346 115.381 197.018 115.71 197.018 116.116C197.018 116.521 197.346 116.85 197.752 116.85Z" fill="#1C85E8"/>
<path d="M197.99 121.176C198.396 121.176 198.725 120.847 198.725 120.442C198.725 120.036 198.396 119.707 197.99 119.707C197.585 119.707 197.256 120.036 197.256 120.442C197.256 120.847 197.585 121.176 197.99 121.176Z" fill="#1C85E8"/>
<defs>
<linearGradient id="paint0_linear_149_3" x1="66.3029" y1="40.6658" x2="91.7624" y2="273.303" gradientUnits="userSpaceOnUse">
<stop stop-color="white"/>
<stop offset="1" stop-color="#94B9FF"/>
</linearGradient>
<linearGradient id="paint1_linear_149_3" x1="186.349" y1="101.416" x2="211.808" y2="334.052" gradientUnits="userSpaceOnUse">
<stop stop-color="white"/>
<stop offset="1" stop-color="#94B9FF"/>
</linearGradient>
<linearGradient id="paint2_linear_149_3" x1="93.3879" y1="38.5058" x2="87.5692" y2="63.4216" gradientUnits="userSpaceOnUse">
<stop stop-color="white"/>
<stop offset="1" stop-color="#94B9FF"/>
</linearGradient>
<linearGradient id="paint3_linear_149_3" x1="109.993" y1="48.428" x2="111.428" y2="58.4537" gradientUnits="userSpaceOnUse">
<stop stop-color="white"/>
<stop offset="1" stop-color="#94B9FF"/>
</linearGradient>
</defs>
</svg>
