<svg width="174" height="150" viewBox="0 0 174 150" fill="none" xmlns="http://www.w3.org/2000/svg">
<path d="M34.7208 0H140.853C142.458 0 143.997 0.624179 145.132 1.73523C146.266 2.84628 146.903 4.35315 146.903 5.92446V12.4656H28.6699V5.92446C28.6699 4.35315 29.3076 2.84628 30.4422 1.73523C31.577 0.624179 33.1161 0 34.7208 0Z" fill="#1C85E8"/>
<path d="M28.6699 12.4658H146.903V117.4C146.903 118.822 146.618 120.23 146.062 121.544C145.505 122.858 144.692 124.052 143.664 125.058C142.638 126.064 141.418 126.861 140.076 127.406C138.733 127.95 137.295 128.23 135.842 128.23H39.7315C38.279 128.23 36.8405 127.95 35.4985 127.406C34.1564 126.861 32.9369 126.064 31.9099 125.058C30.8826 124.052 30.0679 122.858 29.5119 121.544C28.9562 120.23 28.6699 118.822 28.6699 117.4V12.4658Z" fill="url(#paint0_linear_140_2)"/>
<path d="M105.921 86.9014H73.4912V102.322H105.921V86.9014Z" fill="#FFCCB3"/>
<path d="M73.3005 96.4087C69.4973 100.073 68.0009 118.117 68.2012 128.231H113.475C113.475 128.231 113.393 106.177 109.961 98.7448C106.805 91.9103 101.558 101.992 73.3005 96.4087Z" fill="#1F2D49"/>
<path d="M100.472 16.7222C100.472 16.7222 104.228 12.5269 111.52 11.9166C118.811 11.3062 120.993 17.5592 120.681 21.4009C120.37 25.2427 114.655 33.1773 115.798 36.5343C116.941 39.8912 111.567 38.2637 110.981 31.5496C110.396 24.8357 108.214 15.477 102.292 18.8339L100.472 16.7222Z" fill="#080B09"/>
<path d="M101.611 14.759C101.611 14.759 102.51 14.2493 103.16 15.4383C103.811 16.6273 105.026 19.0416 103.486 19.6816C101.946 20.3218 101.611 14.759 101.611 14.759Z" fill="#1C85E8"/>
<path d="M80.7831 53.4236C80.7831 53.4236 86.6079 59.8248 84.6707 61.878C80.834 66.0979 70.6292 74.0291 67.2856 76.6544C67.1412 76.7627 66.9764 76.8418 66.8006 76.8873C66.6249 76.933 66.4416 76.944 66.2615 76.9199C66.0814 76.8958 65.9078 76.837 65.7512 76.7468C65.5943 76.6567 65.4572 76.5372 65.3478 76.395L57.4411 66.2169C57.132 65.8251 56.9878 65.3321 57.0382 64.8393C57.0887 64.3467 57.3299 63.8916 57.7122 63.5676L73.0276 50.6367L80.7831 53.4236Z" fill="#1C85E8"/>
<path d="M71.588 61.5625C71.588 61.5625 64.329 65.7869 63.6748 74.2746L65.1205 76.0931C65.1205 76.0931 66.0282 77.642 67.2862 76.6554C68.5442 75.6687 74.3632 71.105 74.3632 71.105L71.588 61.5625Z" fill="#0E66AF"/>
<path d="M78.3744 64.7793C82.9023 64.7793 86.573 61.1854 86.573 56.752C86.573 52.3187 82.9023 48.7246 78.3744 48.7246C73.8465 48.7246 70.1758 52.3187 70.1758 56.752C70.1758 61.1854 73.8465 64.7793 78.3744 64.7793Z" fill="#1C85E8"/>
<path d="M57.0252 81.9151L49.8604 72.6266L56.643 67.4709L57.7062 66.6328L65.1382 76.1491L63.8441 77.0604L57.0252 81.9151Z" fill="#FFCCB3"/>
<path d="M63.8445 77.0604C61.9253 74.5445 58.3162 69.6274 56.6436 67.4709L57.7067 66.6328L65.1199 76.0924L63.8445 77.0604Z" fill="#FF967C"/>
<path d="M53.3336 83.2045C56.6205 83.2045 59.2851 80.5955 59.2851 77.3772C59.2851 74.1588 56.6205 71.5498 53.3336 71.5498C50.0465 71.5498 47.3818 74.1588 47.3818 77.3772C47.3818 80.5955 50.0465 83.2045 53.3336 83.2045Z" fill="#FFCCB3"/>
<path d="M58.3733 74.2415C58.3733 74.2415 39.1745 46.6357 38.2871 44.2913C37.4234 42.0018 32.8887 47.5112 32.8887 47.5112L47.7474 79.2527L58.3733 74.2415Z" fill="#FFCCB3"/>
<path d="M84.8049 35.7441L82.497 51.4992C82.497 51.4992 81.891 53.5904 84.5799 53.9069C87.2688 54.2235 93.0023 53.5161 95.0499 51.3796C97.0976 49.2431 96.3813 48.1846 96.3813 48.1846L92.0384 31.084L84.8049 35.7441Z" fill="#FFCCB3"/>
<path d="M84.4844 37.7835L90.13 35.8311L83.1357 45.9808L84.4844 37.7835Z" fill="#FF967C"/>
<path d="M78.4172 16.2831C78.4172 16.2831 73.5736 27.4258 76.0979 35.0627C77.7441 40.0433 81.3291 40.9387 89.5395 37.2063C97.0677 33.7841 99.0231 31.1953 99.0231 31.1953L100.133 18.774C100.133 18.774 83.336 6.3514 78.4172 16.2831Z" fill="#FFCCB3"/>
<path d="M82.4554 46.9704C82.4554 46.9704 76.2508 48.6582 74.9918 49.6445C73.7325 50.6308 72.8167 58.6474 70.9557 62.6072C68.2006 68.4695 66.4169 71.5881 71.0455 78.0304C73.8371 81.9161 72.8878 91.7943 72.8878 91.7943H106.876C105.846 72.3707 110.403 49.4735 110.403 49.4735L95.0637 46.0127C91.6051 46.5965 82.4554 46.9704 82.4554 46.9704Z" fill="#1C85E8"/>
<path d="M81.3704 47.2831C81.3704 47.2831 81.8291 44.2297 83.2954 44.0148C84.7617 43.7998 93.7219 42.4802 95.1156 43.0549C96.5092 43.6294 98.1964 47.2831 98.1964 47.2831C98.1964 47.2831 95.3357 54.1149 91.228 54.4739C87.1203 54.8331 80.0504 53.5933 80.798 51.0531C81.5457 48.5131 81.3704 47.2831 81.3704 47.2831Z" fill="#1C85E8"/>
<path d="M78.5801 48.2119C78.5801 48.2119 79.5712 54.1043 84.9541 54.0114C90.3371 53.9183 98.1593 46.0127 98.1593 46.0127" stroke="white" stroke-width="1.35709" stroke-miterlimit="10"/>
<path d="M102.97 56.7529C102.97 56.7529 97.6207 60.2155 99.1965 63.7094C100.968 67.6378 100.953 77.7553 95.8681 78.3894C86.7957 79.5207 90.7375 81.074 94.9323 82.0667C99.1273 83.0592 97.4098 83.0602 97.4098 87.3153C97.4098 90.3436 107.13 92.9693 106.877 90.5224C105.187 74.1511 112.213 63.7847 102.97 56.7529Z" fill="#0E66AF"/>
<path d="M77.9854 32.6777L82.4909 32.896C82.4749 32.9503 82.4504 33.0245 82.415 33.1119C82.3384 33.3015 82.2113 33.5513 82.0097 33.7931C81.6099 34.2727 80.9118 34.7284 79.7057 34.6089C78.9439 34.4661 78.5109 33.9646 78.2656 33.4899C78.1429 33.2522 78.0684 33.0228 78.0248 32.8529C78.0068 32.7831 77.994 32.7236 77.9854 32.6777Z" fill="#E56441" stroke="#E56441"/>
<path d="M78.2826 25.3529C78.4708 24.6694 78.2395 24.0141 77.7659 23.889C77.2924 23.7638 76.7558 24.2165 76.5674 24.8999C76.3792 25.5833 76.6106 26.2387 77.0841 26.3638C77.5577 26.4888 78.0943 26.0363 78.2826 25.3529Z" fill="#080B09"/>
<path d="M85.2533 27.2981C85.4415 26.6147 85.2104 25.9594 84.7366 25.8342C84.2631 25.7093 83.7265 26.1617 83.5381 26.8452C83.3499 27.5286 83.5813 28.1839 84.0548 28.3091C84.5286 28.4342 85.065 27.9816 85.2533 27.2981Z" fill="#080B09"/>
<path d="M76.5194 21.823L80.0627 22.8204C80.1243 22.8324 80.1884 22.8221 80.243 22.7914C80.2975 22.7607 80.3387 22.7118 80.3593 22.6535C80.3755 22.5441 80.3688 22.4325 80.34 22.3257C80.3109 22.2186 80.26 22.1187 80.1903 22.0316C80.1208 21.9444 80.0338 21.872 79.9349 21.8187C79.8359 21.7655 79.727 21.7322 79.6145 21.7213L76.5712 21.4078C76.3377 21.3461 76.2275 21.746 76.5194 21.823Z" fill="#080B09"/>
<path d="M88.6343 24.7879L83.8291 23.8252C83.8726 23.6853 83.9455 23.5556 84.0432 23.445C84.1409 23.3342 84.2611 23.2447 84.3963 23.1823C84.5314 23.1199 84.6783 23.0858 84.8278 23.0823C84.9773 23.0789 85.1257 23.1061 85.2637 23.1623L88.7712 24.5178C88.8878 24.5485 88.8091 24.8343 88.6343 24.7879Z" fill="#080B09"/>
<path d="M80.4256 25.5479L78.1465 28.5529L79.0047 29.741" stroke="#E56441" stroke-width="2.23881" stroke-linecap="round"/>
<path d="M84.6643 58.3328C85.1056 58.3328 85.4634 57.3651 85.4634 56.1713C85.4634 54.9776 85.1056 54.0098 84.6643 54.0098C84.223 54.0098 83.8652 54.9776 83.8652 56.1713C83.8652 57.3651 84.223 58.3328 84.6643 58.3328Z" fill="white"/>
<path d="M121.494 88.0728L109.646 89.0234L107.623 80.6158L105.187 74.1506L117.656 72.6895L119.215 79.9251L121.494 88.0728Z" fill="#FFCCB3"/>
<path d="M118.077 74.6436L118.514 76.6725L106.235 76.9312L105.427 74.788L118.077 74.6436Z" fill="#FF967C"/>
<path d="M108.365 65.2754C112.892 65.2754 116.563 61.6815 116.563 57.2481C116.563 52.8147 112.892 49.2207 108.365 49.2207C103.837 49.2207 100.166 52.8147 100.166 57.2481C100.166 61.6815 103.837 65.2754 108.365 65.2754Z" fill="#1C85E8"/>
<path d="M106.785 53.4751C106.785 53.4751 115.425 52.0863 116.159 54.7878C117.744 60.2202 119.692 68.9411 120.166 73.1119C120.182 73.2891 120.162 73.4678 120.108 73.6376C120.053 73.8072 119.964 73.9648 119.847 74.1008C119.73 74.2368 119.586 74.3488 119.424 74.4302C119.263 74.5115 119.086 74.5608 118.905 74.5751L105.892 75.6628C105.388 75.7085 104.886 75.5638 104.488 75.2582C104.09 74.9526 103.826 74.5095 103.752 74.0198L100.228 58.3955L106.785 53.4751Z" fill="#1C85E8"/>
<path d="M81.4368 15.2244C81.4368 15.2244 81.7433 20.6368 86.4261 23.2595C86.4261 23.2595 87.7956 27.4107 92.9064 28.387C92.9064 28.387 92.6044 24.5716 95.0404 24.6119C99.1767 24.6805 97.1422 30.8239 94.3457 31.8317C92.4451 32.5167 91.3005 34.9478 94.1216 40.4882C100.6 38.2261 105.155 29.0899 103.369 18.9538C101.939 10.8366 91.6612 8.18596 89.5495 8.45038C89.5495 8.45038 80.78 5.4841 76.1625 13.6193C72.2152 20.5737 75.9016 24.7241 75.9016 24.7241L78.0054 18.5348C78.0054 18.5348 78.884 19.1389 81.4368 15.2244Z" fill="#080B09"/>
<path d="M121.538 108.129H90.1553C89.5483 108.129 88.9622 107.912 88.507 107.518C88.0519 107.125 87.7589 106.583 87.6836 105.993L84.787 83.3576C84.7429 83.0144 84.7741 82.6659 84.8783 82.3355C84.9824 82.0049 85.1572 81.6998 85.391 81.4404C85.6248 81.1811 85.9121 80.9734 86.2342 80.8312C86.5562 80.6888 86.9055 80.6152 87.2586 80.6152H124.435C124.788 80.6152 125.137 80.6888 125.459 80.8312C125.781 80.9734 126.069 81.1811 126.302 81.4404C126.536 81.6998 126.711 82.0049 126.815 82.3355C126.919 82.6659 126.95 83.0144 126.906 83.3576L124.01 105.993C123.934 106.583 123.642 107.125 123.186 107.518C122.731 107.912 122.145 108.129 121.538 108.129Z" fill="url(#paint1_linear_140_2)"/>
<path d="M105.92 96.1074C107.137 96.1074 108.123 95.1418 108.123 93.9508C108.123 92.7596 107.137 91.7939 105.92 91.7939C104.704 91.7939 103.718 92.7596 103.718 93.9508C103.718 95.1418 104.704 96.1074 105.92 96.1074Z" fill="white"/>
<path d="M33.7058 49.3246L31.8148 45.7722C31.8148 45.7722 25.1279 42.027 24.3529 40.6731C23.5778 39.3188 23.2732 35.4526 24.6452 34.4626C24.6452 34.4626 19.3101 30.5392 20.2183 29.7443C21.1235 28.8917 31.6054 36.5157 31.6054 36.5157C31.6054 36.5157 30.3293 30.8989 32.2686 30.6357C32.7939 32.8127 33.6939 34.8863 34.9299 36.7676C36.9717 39.8585 37.2232 42.6269 37.2232 42.6269L39.6296 47.1488L33.7058 49.3246Z" fill="#FFCCB3"/>
<path d="M25.0039 34.5625L28.2349 36.5561" stroke="#FF967C" stroke-width="2.87188" stroke-linecap="round" stroke-linejoin="round"/>
<path d="M24.5225 36.8438L27.2645 38.5126" stroke="#FF967C" stroke-width="2.87188" stroke-linecap="round" stroke-linejoin="round"/>
<path d="M25.0547 39.3086L26.8836 40.4404" stroke="#FF967C" stroke-width="2.87188" stroke-linecap="round" stroke-linejoin="round"/>
<path d="M37.6434 7.74099C38.4939 7.74099 39.1833 7.066 39.1833 6.23329C39.1833 5.40058 38.4939 4.72559 37.6434 4.72559C36.7929 4.72559 36.1035 5.40058 36.1035 6.23329C36.1035 7.066 36.7929 7.74099 37.6434 7.74099Z" fill="white"/>
<path d="M43.8621 7.74099C44.7126 7.74099 45.402 7.066 45.402 6.23329C45.402 5.40058 44.7126 4.72559 43.8621 4.72559C43.0117 4.72559 42.3223 5.40058 42.3223 6.23329C42.3223 7.066 43.0117 7.74099 43.8621 7.74099Z" fill="white"/>
<path d="M49.7059 7.74099C50.5564 7.74099 51.2457 7.066 51.2457 6.23329C51.2457 5.40058 50.5564 4.72559 49.7059 4.72559C48.8554 4.72559 48.166 5.40058 48.166 6.23329C48.166 7.066 48.8554 7.74099 49.7059 7.74099Z" fill="white"/>
<path opacity="0.7" d="M3.45062 6.04827C9.6416 11.2179 25.9686 23.0051 46.7046 23.5683C47.1286 23.5807 47.5309 23.7546 47.8261 24.053C48.1214 24.3512 48.2861 24.7505 48.2856 25.1659V57.3355C48.2858 57.7459 48.1249 58.1406 47.836 58.4379C47.5471 58.7353 47.1524 58.9125 46.7338 58.9328C40.4993 59.2365 16.8577 59.2012 1.19249 42.7799C0.91311 42.485 0.758541 42.0971 0.759773 41.695V7.26657C0.759597 6.96131 0.848676 6.66225 1.01662 6.4049C1.18457 6.14773 1.42417 5.94279 1.70725 5.81472C1.99015 5.68647 2.30492 5.64028 2.61388 5.68182C2.92284 5.72319 3.21314 5.85022 3.45062 6.04827Z" fill="#FEBB94"/>
<path d="M5.79883 15.5273C5.79883 15.5273 10.6843 20.1752 17.362 23.0624" stroke="white" stroke-width="7.4328" stroke-miterlimit="10" stroke-linecap="round"/>
<path opacity="0.4" d="M5.79883 21.1641C5.79883 21.1641 12.598 27.3736 21.4427 29.6792" stroke="white" stroke-width="7.4328" stroke-miterlimit="10" stroke-linecap="round"/>
<path d="M4.78516 41.767V28.3301L9.59665 31.7012V45.4629L4.78516 41.767Z" fill="white"/>
<path d="M12.9072 47.1969V37.623L17.7187 40.4404V49.9046L12.9072 47.1969Z" fill="white"/>
<path d="M33.4814 54.6913V45.1175L28.6699 44.4727V53.9369L33.4814 54.6913Z" fill="white"/>
<path d="M41.3838 55.1019V38.3398H36.5723V54.9925L41.3838 55.1019Z" fill="white"/>
<path d="M20.7881 51.3918V47.0146L25.5996 48.3395V53.0979L20.7881 51.3918Z" fill="white"/>
<g opacity="0.7">
<path d="M15.5005 72.7076C21.6914 77.1584 38.0184 88.7736 58.7544 86.929C58.956 86.9059 59.1605 86.9253 59.3538 86.9864C59.5471 87.0474 59.7247 87.1484 59.8747 87.2825C60.0247 87.4166 60.1436 87.5807 60.223 87.7637C60.3024 87.9468 60.3407 88.1443 60.3354 88.3431V120.513C60.3249 120.939 60.1649 121.348 59.8821 121.671C59.5996 121.995 59.2116 122.214 58.7836 122.29C52.549 123.318 26.6191 122.81 13.2422 109.702C13.1038 109.566 12.9943 109.404 12.92 109.226C12.8457 109.049 12.8082 108.859 12.8096 108.667V74.2384C12.8096 72.8749 14.4408 71.9457 15.5005 72.7076Z" fill="#96BAFD"/>
</g>
<path d="M115.148 107.205C115.148 107.205 116.806 107.34 116.557 108.16C116.307 108.979 114.826 108.601 113.474 109.42C112.122 110.24 106.776 110.825 104.106 110.389C101.436 109.953 100.694 107.205 100.694 107.205C100.694 107.205 100.247 104.598 104.964 104.33C109.68 104.063 111.876 105.544 112.696 107.151L115.148 107.205Z" fill="#FFCCB3"/>
<path d="M102.699 104.736L103.718 107.419" stroke="#E56441" stroke-width="2.23881" stroke-linecap="round"/>
<path d="M105.338 104.299L106.356 106.981" stroke="#E56441" stroke-width="2.23881" stroke-linecap="round"/>
<path d="M108.123 104.526L109.142 107.209" stroke="#E56441" stroke-width="2.23881" stroke-linecap="round"/>
<path opacity="0.7" d="M165.342 75.3237C156.707 82.5348 133.933 98.9768 105.008 99.7623C104.417 99.7797 103.855 100.022 103.444 100.439C103.032 100.855 102.802 101.412 102.803 101.991V146.864C102.802 147.437 103.027 147.987 103.43 148.402C103.833 148.817 104.383 149.064 104.967 149.092C113.664 149.516 146.641 149.467 168.493 126.561C168.882 126.149 169.099 125.608 169.097 125.047V77.0232C169.097 76.5973 168.972 76.1803 168.738 75.8213C168.504 75.4624 168.169 75.1766 167.775 74.9979C167.381 74.8191 166.941 74.7548 166.511 74.8126C166.08 74.8703 165.675 75.0477 165.342 75.3237Z" fill="#1C85E8"/>
<path d="M162.067 88.5479C162.067 88.5479 155.252 95.0313 145.938 99.0587" stroke="white" stroke-width="10.368" stroke-miterlimit="10" stroke-linecap="round"/>
<path opacity="0.4" d="M162.068 96.4082C162.068 96.4082 152.582 105.07 140.245 108.286" stroke="white" stroke-width="10.368" stroke-miterlimit="10" stroke-linecap="round"/>
<path d="M157.638 61.1289H131.276C130.759 61.1289 130.247 61.2287 129.769 61.4224C129.291 61.6162 128.857 61.9003 128.491 62.2583C128.126 62.6164 127.836 63.0415 127.638 63.5093C127.44 63.9771 127.338 64.4785 127.338 64.9849V72.9702C127.338 73.4767 127.44 73.9781 127.638 74.4459C127.836 74.9139 128.126 75.3389 128.491 75.6969C128.857 76.0551 129.291 76.3392 129.769 76.5329C130.247 76.7267 130.759 76.8265 131.276 76.8265H140.635L143.395 79.5302C143.654 79.7834 144.005 79.9256 144.371 79.9256C144.737 79.9256 145.087 79.7834 145.346 79.5302L148.106 76.8265H157.638C158.681 76.8265 159.685 76.4202 160.423 75.6969C161.162 74.9738 161.576 73.9929 161.576 72.9702V64.9849C161.576 63.9623 161.162 62.9815 160.423 62.2583C159.685 61.5352 158.681 61.1289 157.638 61.1289Z" fill="white"/>
<path d="M138.521 66.4443C138.169 66.1259 137.708 65.9492 137.229 65.9492C136.75 65.9492 136.289 66.1259 135.937 66.4443L135.45 66.8843L134.964 66.4443C134.612 66.1259 134.15 65.9492 133.671 65.9492C133.192 65.9492 132.731 66.1259 132.379 66.4443C132.193 66.6089 132.045 66.8099 131.943 67.0341C131.842 67.2584 131.789 67.5009 131.789 67.7462C131.789 67.9914 131.842 68.2341 131.943 68.4584C132.045 68.6826 132.193 68.8834 132.379 69.0481L135.45 71.8354L138.521 69.0848C138.715 68.9212 138.872 68.7185 138.977 68.4908C139.085 68.2629 139.139 68.0152 139.139 67.7646C139.139 67.514 139.085 67.2663 138.977 67.0384C138.872 66.8105 138.715 66.6078 138.521 66.4443Z" fill="#F4608A"/>
<path d="M141.951 68.0735C141.978 67.7358 142.111 67.4714 142.351 67.2804C142.59 67.0896 142.902 66.9941 143.284 66.9941C143.539 66.9941 143.759 67.04 143.942 67.1319C144.131 67.2199 144.272 67.3411 144.365 67.4952C144.462 67.6495 144.511 67.8239 144.511 68.0185C144.511 68.246 144.444 68.4425 144.309 68.6077C144.176 68.773 144.004 68.8795 143.791 68.9272V68.9547C144.034 69.0134 144.228 69.1291 144.37 69.3016C144.513 69.4742 144.585 69.7 144.585 69.979C144.585 70.1883 144.536 70.3774 144.437 70.5463C144.34 70.7116 144.194 70.8419 143.999 70.9374C143.803 71.0327 143.569 71.0805 143.296 71.0805C142.898 71.0805 142.573 70.9796 142.317 70.7776C142.062 70.572 141.92 70.2821 141.89 69.9075H142.384C142.411 70.1278 142.502 70.3077 142.661 70.4472C142.817 70.5866 143.029 70.6564 143.291 70.6564C143.553 70.6564 143.752 70.5904 143.886 70.4582C144.025 70.3224 144.095 70.148 144.095 69.9351C144.095 69.6596 144 69.4614 143.814 69.3402C143.625 69.2191 143.342 69.1586 142.964 69.1586H142.835V68.7399H142.971C143.314 68.7363 143.576 68.6811 143.752 68.5748C143.928 68.4646 144.016 68.2957 144.016 68.068C144.016 67.8734 143.951 67.7174 143.819 67.5998C143.692 67.4825 143.508 67.4237 143.268 67.4237C143.036 67.4237 142.847 67.4825 142.705 67.5998C142.562 67.7174 142.478 67.8753 142.453 68.0735H141.951ZM145.888 70.3591L145.259 71.8406H144.916L145.326 70.3591H145.888ZM148.983 67.5062H147.009V68.7619C147.095 68.6444 147.222 68.5491 147.391 68.4756C147.56 68.3984 147.741 68.36 147.937 68.36C148.248 68.36 148.502 68.4241 148.696 68.5527C148.891 68.6775 149.03 68.8409 149.113 69.0429C149.199 69.2411 149.241 69.4523 149.241 69.6762C149.241 69.9406 149.192 70.1773 149.09 70.3867C148.99 70.5959 148.833 70.7611 148.623 70.8822C148.417 71.0034 148.16 71.0641 147.852 71.0641C147.46 71.0641 147.141 70.9648 146.896 70.7666C146.653 70.5684 146.504 70.3039 146.453 69.9735H146.953C147.002 70.1828 147.104 70.3462 147.263 70.4637C147.419 70.5813 147.618 70.6399 147.858 70.6399C148.155 70.6399 148.377 70.5537 148.528 70.3812C148.678 70.2048 148.752 69.9735 148.752 69.6872C148.752 69.4007 148.678 69.1805 148.528 69.0264C148.377 68.8685 148.157 68.7895 147.865 68.7895C147.666 68.7895 147.491 68.8373 147.34 68.9328C147.194 69.0245 147.088 69.1512 147.02 69.3127H146.537V67.0657H148.983V67.5062ZM149.861 70.6509C150.336 70.2765 150.71 69.9699 150.979 69.7312C151.25 69.489 151.477 69.2373 151.66 68.9767C151.849 68.7123 151.942 68.4536 151.942 68.2002C151.942 67.9616 151.882 67.7743 151.762 67.6385C151.646 67.499 151.456 67.4292 151.194 67.4292C150.938 67.4292 150.739 67.5081 150.597 67.666C150.458 67.8201 150.384 68.0277 150.372 68.2883H149.877C149.893 67.8772 150.019 67.5595 150.259 67.3356C150.5 67.1115 150.81 66.9997 151.188 66.9997C151.574 66.9997 151.88 67.1043 152.104 67.3135C152.333 67.5228 152.447 67.811 152.447 68.1781C152.447 68.4829 152.354 68.7804 152.167 69.0703C151.982 69.3568 151.773 69.6102 151.537 69.8305C151.301 70.0469 150.998 70.3003 150.63 70.5904H152.565V71.0089H149.861V70.6509ZM155.66 67.4623L154.097 71.0531H153.579L155.165 67.5118H152.995V67.0822H155.66V67.4623Z" fill="#1C85E8"/>
<path opacity="0.7" d="M2.96935 134.627H22.8443C23.2343 134.627 23.6203 134.551 23.9807 134.405C24.3409 134.259 24.6683 134.045 24.944 133.775C25.2197 133.505 25.4383 133.185 25.5876 132.832C25.7369 132.479 25.8137 132.101 25.8137 131.719V125.699C25.8137 125.317 25.7369 124.939 25.5876 124.586C25.4383 124.234 25.2197 123.913 24.944 123.643C24.6683 123.373 24.3409 123.159 23.9807 123.013C23.6203 122.867 23.2343 122.792 22.8443 122.792H15.789L13.7069 120.753C13.512 120.562 13.2476 120.455 12.9719 120.455C12.6964 120.455 12.4319 120.562 12.2371 120.753L10.155 122.792H2.96935C2.18173 122.792 1.42649 123.098 0.869663 123.643C0.312833 124.188 0 124.928 0 125.699V131.719C0 132.49 0.312833 133.23 0.869663 133.775C1.42649 134.32 2.18173 134.627 2.96935 134.627Z" fill="#1C85E8"/>
<path d="M12.333 130.188C12.6921 129.906 12.9733 129.675 13.177 129.495C13.3805 129.312 13.5516 129.122 13.6901 128.926C13.8315 128.726 13.9021 128.531 13.9021 128.34C13.9021 128.16 13.8569 128.019 13.7664 127.917C13.6787 127.812 13.5359 127.759 13.338 127.759C13.1458 127.759 12.996 127.819 12.8886 127.937C12.784 128.054 12.7273 128.21 12.7189 128.407H12.3457C12.3571 128.097 12.4532 127.857 12.634 127.688C12.815 127.519 13.0483 127.435 13.3338 127.435C13.625 127.435 13.8554 127.514 14.0252 127.672C14.1975 127.83 14.2838 128.047 14.2838 128.324C14.2838 128.554 14.2132 128.778 14.0718 128.996C13.9333 129.212 13.7748 129.403 13.5968 129.569C13.4187 129.733 13.191 129.924 12.914 130.142H14.3728V130.458H12.333V130.188ZM14.7256 129.823V129.536L16.2141 127.518H16.6764V129.495H17.1005V129.823H16.6764V130.491H16.2947V129.823H14.7256ZM16.3116 127.913L15.1709 129.495H16.3116V127.913ZM17.4776 128.245C17.4973 127.99 17.5976 127.791 17.7786 127.647C17.9596 127.503 18.1943 127.431 18.4826 127.431C18.6749 127.431 18.8402 127.466 18.9787 127.535C19.1201 127.601 19.2261 127.693 19.2968 127.809C19.3702 127.925 19.407 128.057 19.407 128.203C19.407 128.375 19.3562 128.523 19.2544 128.648C19.1555 128.772 19.0254 128.852 18.8643 128.888V128.909C19.0481 128.953 19.1937 129.041 19.301 129.171C19.4084 129.301 19.4621 129.471 19.4621 129.682C19.4621 129.839 19.4253 129.982 19.3519 130.109C19.2783 130.234 19.1681 130.332 19.0211 130.404C18.8741 130.476 18.6974 130.512 18.4911 130.512C18.1914 130.512 17.9453 130.436 17.7531 130.284C17.5608 130.128 17.4535 129.91 17.4309 129.628H17.804C17.8239 129.794 17.893 129.929 18.0119 130.034C18.1305 130.14 18.289 130.192 18.4868 130.192C18.6847 130.192 18.8345 130.142 18.9363 130.043C19.0409 129.94 19.0933 129.809 19.0933 129.648C19.0933 129.441 19.0225 129.291 18.8812 129.2C18.7398 129.108 18.5264 129.063 18.2409 129.063H18.1434V128.747H18.2451C18.5052 128.745 18.7016 128.703 18.8345 128.623C18.9674 128.54 19.0338 128.412 19.0338 128.241C19.0338 128.094 18.9843 127.976 18.8854 127.888C18.7893 127.799 18.6507 127.755 18.4698 127.755C18.2946 127.755 18.1532 127.799 18.0457 127.888C17.9383 127.976 17.8747 128.095 17.8548 128.245H17.4776ZM21.6923 128.203C21.6301 127.896 21.4365 127.742 21.1113 127.742C20.8596 127.742 20.6716 127.838 20.5473 128.029C20.4228 128.217 20.3621 128.529 20.3649 128.963C20.4298 128.819 20.5374 128.707 20.6872 128.627C20.8399 128.544 21.0096 128.502 21.196 128.502C21.4874 128.502 21.719 128.591 21.8916 128.768C22.0669 128.945 22.1546 129.19 22.1546 129.503C22.1546 129.691 22.1164 129.86 22.04 130.01C21.9665 130.159 21.8534 130.278 21.7007 130.366C21.5509 130.455 21.3685 130.499 21.1537 130.499C20.8624 130.499 20.6349 130.436 20.4709 130.308C20.307 130.181 20.1924 130.005 20.1274 129.781C20.0624 129.557 20.0299 129.28 20.0299 128.951C20.0299 127.935 20.3918 127.427 21.1155 127.427C21.3926 127.427 21.6102 127.5 21.7687 127.647C21.9269 127.794 22.0202 127.979 22.0484 128.203H21.6923ZM21.1155 128.822C20.9939 128.822 20.8795 128.847 20.7721 128.897C20.6645 128.944 20.5768 129.017 20.5091 129.117C20.4441 129.214 20.4115 129.333 20.4115 129.474C20.4115 129.684 20.4737 129.856 20.5981 129.989C20.7226 130.119 20.9006 130.184 21.1324 130.184C21.3303 130.184 21.4874 130.124 21.6032 130.005C21.722 129.884 21.7813 129.72 21.7813 129.515C21.7813 129.3 21.7248 129.131 21.6116 129.009C21.4986 128.884 21.3331 128.822 21.1155 128.822Z" fill="white"/>
<path d="M108.758 129.617C108.758 129.617 115.096 128.317 117.994 125.307C121.834 121.319 122.72 116.536 126.927 116.044C133.529 115.272 137.356 138.095 145.371 135.007C153.387 131.919 151.493 114.876 156.262 111.987C159.547 109.997 161.254 115.915 165.854 114.371" stroke="white" stroke-width="10.368" stroke-miterlimit="10" stroke-linecap="round"/>
<path opacity="0.7" d="M46.3803 110.89C51.1183 112.215 62.2028 114.582 76.7274 112.949C76.9609 112.917 77.1987 112.934 77.4244 113.001C77.6501 113.067 77.8584 113.181 78.0346 113.334C78.2108 113.487 78.3509 113.676 78.4451 113.888C78.5393 114.1 78.5854 114.329 78.5801 114.559V136.508C78.5694 136.992 78.3846 137.457 78.0582 137.821C77.7318 138.185 77.2846 138.424 76.7956 138.497C71.6241 139.189 56.2687 140.67 44.8258 135.833C44.533 135.706 44.2851 135.497 44.1135 135.233C43.9419 134.968 43.8544 134.659 43.8618 134.346V112.832C43.8618 111.559 45.1701 110.552 46.3803 110.89Z" fill="url(#paint2_linear_140_2)"/>
<path d="M3.88271 131.099H4.53373C4.65467 131.099 4.77051 131.052 4.85589 130.968C4.94145 130.884 4.98951 130.771 4.98969 130.653V127.72C4.98951 127.601 4.94145 127.488 4.85589 127.404C4.77051 127.321 4.65467 127.274 4.53373 127.273H3.88271C3.76177 127.274 3.64594 127.321 3.56055 127.404C3.475 127.488 3.42693 127.601 3.42676 127.72V130.653C3.42693 130.771 3.475 130.884 3.56055 130.968C3.64594 131.052 3.76177 131.099 3.88271 131.099Z" fill="white"/>
<path d="M6.75532 125.425C6.49495 125.425 6.36468 125.552 6.36468 126.19C6.36468 126.796 5.76542 127.283 5.37988 127.535V130.694C5.79693 130.883 6.63156 131.163 7.92743 131.163H8.34413C8.58989 131.163 8.82755 131.078 9.01539 130.923C9.20323 130.768 9.3291 130.553 9.37047 130.316L9.66218 128.659C9.68806 128.512 9.68102 128.362 9.64123 128.219C9.60162 128.075 9.5305 127.942 9.43279 127.828C9.33491 127.714 9.21291 127.623 9.07542 127.56C8.93775 127.498 8.78776 127.465 8.63601 127.465H7.40651C7.54488 127.142 7.61161 126.795 7.60193 126.445C7.60193 125.68 7.01587 125.425 6.75532 125.425V125.425Z" fill="white"/>
<path d="M25.5762 105.256C22.1215 104.064 19.321 100.355 19.321 96.9721C19.321 93.5893 22.1215 91.8141 25.5762 93.0069V89.0755C19.9951 87.1486 15.4707 90.0167 15.4707 95.4812C15.4707 100.946 19.9951 106.938 25.5762 108.865C30.9217 110.71 35.2948 108.155 35.655 103.136L31.8072 101.807C31.5352 104.85 28.8503 106.387 25.5762 105.256Z" fill="white"/>
<path d="M26.8594 88.2627V92.1939C30.3141 93.3867 33.1146 97.0957 33.1146 100.478C33.1146 100.655 33.1053 100.826 33.0903 100.994L36.938 102.323C36.9538 102.101 36.9649 101.877 36.9649 101.646C36.9649 96.1813 32.4404 90.1894 26.8594 88.2627Z" fill="#1C85E8"/>
<path d="M25.5771 105.257V108.865" stroke="white" stroke-width="2.42819" stroke-miterlimit="10"/>
<path d="M19.321 96.9719L15.4707 95.6426" stroke="white" stroke-width="2.42819" stroke-miterlimit="10"/>
<path d="M41.7822 97.5342L48.9267 98.8635" stroke="white" stroke-width="10.368" stroke-miterlimit="10" stroke-linecap="round"/>
<path opacity="0.4" d="M41.7822 108.494L48.9267 109.823" stroke="white" stroke-width="10.368" stroke-miterlimit="10" stroke-linecap="round"/>
<path d="M41.7822 103.126L52.0465 105.036" stroke="white" stroke-width="10.368" stroke-miterlimit="10" stroke-linecap="round"/>
<g opacity="0.7">
<path d="M170.635 3.50437C164.443 7.95519 153.118 19.1788 128.401 22.9078C126.508 23.1932 125.8 24.5115 125.8 25.9682V56.6531C125.81 57.0788 125.97 57.488 126.253 57.8117C126.536 58.1354 126.924 58.354 127.352 58.4304C133.586 59.458 157.597 53.4612 171.955 41.3877C173.326 40.2345 173.326 38.3 173.326 37.8981V5.03528C173.326 3.67185 171.694 2.74263 170.635 3.50437Z" fill="url(#paint3_linear_140_2)"/>
</g>
<path d="M129.069 28.3763V47.3555C129.069 47.5208 129.107 47.6839 129.18 47.8328C129.253 47.9818 129.359 48.1128 129.491 48.2162C129.622 48.3194 129.776 48.3925 129.94 48.4299C130.105 48.4671 130.275 48.4678 130.44 48.4318C133.971 47.6575 143.522 45.419 149.553 42.633C149.747 42.5437 149.909 42.4026 150.023 42.226C150.136 42.0495 150.197 41.8449 150.195 41.6362V23.1535C150.197 22.9688 150.15 22.7869 150.058 22.6245C149.968 22.4623 149.838 22.3251 149.678 22.2253C149.519 22.1255 149.338 22.0664 149.15 22.0535C148.961 22.0406 148.773 22.0742 148.6 22.1514C145.24 23.667 137.163 26.9779 130.138 27.2757C129.849 27.2892 129.577 27.4112 129.378 27.6161C129.179 27.8211 129.068 28.0934 129.069 28.3763Z" fill="white"/>
<path d="M129.942 44.2997V46.2959C129.942 46.4471 129.978 46.5962 130.046 46.7317C130.115 46.8672 130.214 46.9854 130.337 47.0771C130.46 47.1688 130.602 47.2315 130.754 47.2603C130.905 47.2893 131.062 47.2836 131.21 47.2438L141.775 44.4157C141.942 44.3713 142.094 44.2854 142.217 44.1665C142.34 44.0476 142.428 43.8998 142.476 43.7371C142.523 43.5746 142.527 43.4029 142.486 43.2386C142.446 43.0742 142.363 42.9229 142.247 42.7991L136.582 36.8322C136.48 36.7252 136.357 36.6416 136.218 36.5878C136.078 36.5339 135.929 36.5109 135.78 36.5208C135.631 36.5306 135.486 36.5728 135.356 36.6444C135.226 36.7161 135.113 36.8152 135.027 36.9346L130.126 43.733C130.006 43.8988 129.942 44.0967 129.942 44.2997Z" fill="#1C85E8"/>
<path opacity="0.6" d="M140.713 39.6187L143.884 42.9126C143.986 43.0186 144.118 43.0924 144.262 43.1243C144.406 43.1564 144.558 43.1452 144.697 43.0922C145.633 42.7341 147.737 41.9243 148.802 41.4758C148.936 41.4192 149.049 41.3258 149.13 41.2067C149.209 41.0876 149.251 40.9482 149.251 40.8056V37.7192C149.251 37.5616 149.198 37.4084 149.103 37.2824L144.646 31.436C144.565 31.3311 144.457 31.249 144.334 31.1987C144.211 31.1483 144.075 31.1315 143.943 31.1497C143.811 31.1682 143.686 31.2209 143.581 31.3028C143.477 31.3847 143.398 31.4924 143.35 31.615L140.558 38.8601C140.509 38.9882 140.496 39.1271 140.525 39.2612C140.551 39.3953 140.618 39.5191 140.713 39.6187Z" fill="#1C85E8"/>
<path d="M137.93 34.4745C138.87 34.4745 139.632 33.7285 139.632 32.8081C139.632 31.8876 138.87 31.1416 137.93 31.1416C136.99 31.1416 136.228 31.8876 136.228 32.8081C136.228 33.7285 136.99 34.4745 137.93 34.4745Z" fill="#FEBB94"/>
<path d="M155.104 21.5314C159.471 19.3626 163.675 16.89 167.682 14.1328" stroke="white" stroke-width="10.368" stroke-miterlimit="10" stroke-linecap="round"/>
<path d="M155.104 28.7304C155.104 28.7304 157.966 27.3644 161.894 25.0312" stroke="white" stroke-width="10.368" stroke-miterlimit="10" stroke-linecap="round"/>
<path d="M155.104 35.7687C159.471 33.5998 163.675 31.1273 167.682 28.3701" stroke="white" stroke-width="10.368" stroke-miterlimit="10" stroke-linecap="round"/>
<path d="M155.104 43.671C159.471 41.5021 163.675 39.0297 167.682 36.2725" stroke="white" stroke-width="10.368" stroke-miterlimit="10" stroke-linecap="round"/>
<path d="M131.497 53.9045C132.355 53.9045 133.052 53.2232 133.052 52.3825C133.052 51.5419 132.355 50.8604 131.497 50.8604C130.638 50.8604 129.942 51.5419 129.942 52.3825C129.942 53.2232 130.638 53.9045 131.497 53.9045Z" fill="white"/>
<path d="M140.511 51.4415C141.368 51.4415 142.065 50.7601 142.065 49.9195C142.065 49.0788 141.368 48.3975 140.511 48.3975C139.651 48.3975 138.956 49.0788 138.956 49.9195C138.956 50.7601 139.651 51.4415 140.511 51.4415Z" fill="white"/>
<path d="M148.64 48.7229C149.5 48.7229 150.195 48.0414 150.195 47.2007C150.195 46.3601 149.5 45.6787 148.64 45.6787C147.783 45.6787 147.086 46.3601 147.086 47.2007C147.086 48.0414 147.783 48.7229 148.64 48.7229Z" fill="white"/>
<defs>
<linearGradient id="paint0_linear_140_2" x1="73.5304" y1="-131.838" x2="134.355" y2="253.35" gradientUnits="userSpaceOnUse">
<stop stop-color="white"/>
<stop offset="1" stop-color="#94B9FF"/>
</linearGradient>
<linearGradient id="paint1_linear_140_2" x1="104.797" y1="80.5499" x2="108.952" y2="139.276" gradientUnits="userSpaceOnUse">
<stop stop-color="white"/>
<stop offset="1" stop-color="#94B9FF"/>
</linearGradient>
<linearGradient id="paint2_linear_140_2" x1="60.3567" y1="110.757" x2="65.732" y2="171.286" gradientUnits="userSpaceOnUse">
<stop stop-color="white"/>
<stop offset="1" stop-color="#94B9FF"/>
</linearGradient>
<linearGradient id="paint3_linear_140_2" x1="143.832" y1="-65.719" x2="178.035" y2="116.496" gradientUnits="userSpaceOnUse">
<stop stop-color="white"/>
<stop offset="1" stop-color="#94B9FF"/>
</linearGradient>
</defs>
</svg>
