<svg width="235" height="111" viewBox="0 0 235 111" fill="none" xmlns="http://www.w3.org/2000/svg">
<path d="M185.29 0H29.5772C27.2639 0 25.3887 1.87673 25.3887 4.19144V106.768C25.3887 109.084 27.2639 110.96 29.5772 110.96H185.29C187.603 110.96 189.478 109.084 189.478 106.768V4.19144C189.478 1.87673 187.603 0 185.29 0Z" fill="url(#paint0_linear_142_129)"/>
<path d="M181.888 72.4062H152.874C151.797 72.4062 150.925 73.2757 150.925 74.3483V105.727C150.925 106.799 151.797 107.669 152.874 107.669H181.888C182.964 107.669 183.837 106.799 183.837 105.727V74.3483C183.837 73.2757 182.964 72.4062 181.888 72.4062Z" fill="#FEBB94"/>
<path d="M74.5044 71.9355H32.2234C31.3049 71.9355 30.5605 72.6747 30.5605 73.5865V106.017C30.5605 106.929 31.3049 107.668 32.2234 107.668H74.5044C75.4226 107.668 76.167 106.929 76.167 106.017V73.5865C76.167 72.6747 75.4226 71.9355 74.5044 71.9355Z" fill="white"/>
<path d="M145.612 71.9355H81.4781C80.3625 71.9355 79.458 72.8448 79.458 73.9666V105.637C79.458 106.759 80.3625 107.668 81.4781 107.668H145.612C146.728 107.668 147.633 106.759 147.633 105.637V73.9666C147.633 72.8448 146.728 71.9355 145.612 71.9355Z" fill="white"/>
<path d="M181.236 14.5762H122.964C121.528 14.5762 120.363 15.7392 120.363 17.1739V66.0479C120.363 67.4826 121.528 68.6456 122.964 68.6456H181.236C182.672 68.6456 183.836 67.4826 183.836 66.0479V17.1739C183.836 15.7392 182.672 14.5762 181.236 14.5762Z" fill="#1C85E8"/>
<path d="M113.543 14.5762H33.1492C31.7196 14.5762 30.5605 15.733 30.5605 17.1602V66.0619C30.5605 67.4891 31.7196 68.6456 33.1492 68.6456H113.543C114.972 68.6456 116.131 67.4891 116.131 66.0619V17.1602C116.131 15.733 114.972 14.5762 113.543 14.5762Z" fill="#FEBB94"/>
<path d="M86.041 79.458H90.7427" stroke="#D4DCF4" stroke-width="12" stroke-miterlimit="10" stroke-linecap="round"/>
<path d="M100.146 79.458H140.11" stroke="#5661AE" stroke-width="12" stroke-miterlimit="10" stroke-linecap="round"/>
<path d="M86.041 88.8623H90.7427" stroke="#D4DCF4" stroke-width="12" stroke-miterlimit="10" stroke-linecap="round"/>
<path d="M100.146 88.8623H118.482" stroke="#5661AE" stroke-width="12" stroke-miterlimit="10" stroke-linecap="round"/>
<path d="M86.041 98.7354H90.7427" stroke="#D4DCF4" stroke-width="12" stroke-miterlimit="10" stroke-linecap="round"/>
<path d="M100.146 98.7354H132.117" stroke="#5661AE" stroke-width="12" stroke-miterlimit="10" stroke-linecap="round"/>
<path d="M36.2031 43.7063C36.2031 43.7063 43.3216 42.2194 45.5793 45.6521C47.837 49.0844 50.0948 55.5321 55.2126 54.6961C60.3301 53.8599 62.8 36.9952 67.9175 37.1445C73.035 37.2936 72.2211 48.3381 77.7902 48.4875C83.3594 48.6366 81.8072 42.3148 85.5255 42.4877C90.0361 42.6975 89.5306 55.8 95.4008 55.9494C101.271 56.0984 100.669 38.6377 109.55 38.9362" stroke="white" stroke-width="6.35676" stroke-miterlimit="10" stroke-linecap="round"/>
<path d="M38.5537 22.5684H52.6588" stroke="white" stroke-width="10.0826" stroke-miterlimit="10" stroke-linecap="round"/>
<path opacity="0.4" d="M38.5537 29.1504H67.7042" stroke="white" stroke-width="10.0826" stroke-miterlimit="10" stroke-linecap="round"/>
<path opacity="0.4" d="M152.1 50.778C157.163 50.778 161.268 46.6734 161.268 41.6097C161.268 36.546 157.163 32.4414 152.1 32.4414C147.036 32.4414 142.932 36.546 142.932 41.6097C142.932 46.6734 147.036 50.778 152.1 50.778Z" fill="white"/>
<path d="M149.043 38.9936V44.6952C149.043 44.8532 149.087 45.0084 149.171 45.1458C149.254 45.2833 149.375 45.3977 149.52 45.4784C149.666 45.5591 149.831 45.6028 150 45.6056C150.169 45.6084 150.336 45.5697 150.484 45.494L156.059 42.6434C156.213 42.5648 156.341 42.4492 156.43 42.3086C156.519 42.168 156.566 42.0078 156.566 41.8442C156.566 41.6809 156.519 41.5204 156.43 41.3801C156.341 41.2395 156.213 41.1239 156.059 41.0454L150.484 38.1947C150.336 38.1187 150.169 38.0803 150 38.0832C149.831 38.086 149.666 38.1296 149.52 38.2103C149.375 38.291 149.254 38.4054 149.171 38.5429C149.087 38.68 149.043 38.8356 149.043 38.9936Z" fill="white"/>
<path d="M29.7064 0H185.16C186.305 0 187.403 0.454522 188.213 1.2638C189.023 2.07276 189.478 3.17019 189.478 4.31447V10.8139H25.3887V4.31447C25.3887 3.17019 25.8435 2.07276 26.6534 1.2638C27.463 0.454522 28.5612 0 29.7064 0Z" fill="#5CA4E6"/>
<path d="M18.6002 14.5762H2.08719C0.934649 14.5762 0 15.5108 0 16.6636V33.1761C0 34.329 0.934649 35.2636 2.08719 35.2636H18.6002C19.7531 35.2636 20.6874 34.329 20.6874 33.1761V16.6636C20.6874 15.5108 19.7531 14.5762 18.6002 14.5762Z" fill="#1C85E8"/>
<path d="M18.6002 40.4346H2.08719C0.934649 40.4346 0 41.3692 0 42.522V59.0345C0 60.1874 0.934649 61.122 2.08719 61.122H18.6002C19.7531 61.122 20.6874 60.1874 20.6874 59.0345V42.522C20.6874 41.3692 19.7531 40.4346 18.6002 40.4346Z" fill="#1C85E8"/>
<path d="M17.362 47.8735C17.3509 47.2886 17.2438 46.7099 17.0449 46.1625C16.8692 45.6939 16.6011 45.2683 16.2577 44.9128C15.9139 44.5576 15.5025 44.2802 15.0494 44.0985C14.5198 43.8932 13.9607 43.7824 13.3951 43.7709C12.6651 43.7348 12.4335 43.7266 10.5819 43.7266C8.73029 43.7266 8.49869 43.7348 7.77115 43.768C7.20595 43.7795 6.64647 43.8902 6.11686 44.0959C5.66382 44.2773 5.25239 44.5546 4.90863 44.9102C4.56519 45.2654 4.29705 45.6909 4.12168 46.1598C3.92312 46.7073 3.81573 47.2859 3.80461 47.8708C3.76998 48.6256 3.76172 48.8655 3.76172 50.7806C3.76172 52.6956 3.76998 52.9352 3.80175 53.6874C3.81287 54.2723 3.92026 54.8509 4.11882 55.3987C4.29451 55.8673 4.56265 56.2928 4.90609 56.648C5.24985 57.0036 5.66127 57.2809 6.11432 57.4623C6.64393 57.6677 7.20309 57.7784 7.7686 57.7902C8.49583 57.8234 8.72775 57.8316 10.5793 57.8316C12.4309 57.8316 12.6625 57.8234 13.3897 57.7902C13.9553 57.7787 14.5147 57.668 15.044 57.4623C15.4974 57.2812 15.9091 57.0039 16.2526 56.6484C16.5963 56.2931 16.8641 55.8673 17.0395 55.3987C17.2381 54.8509 17.3452 54.2723 17.3566 53.6874C17.3884 52.9352 17.3966 52.6956 17.3966 50.7806C17.3966 48.8655 17.3938 48.6256 17.362 47.8735ZM16.1337 53.6325C16.1293 54.0794 16.0502 54.5223 15.8993 54.9413C15.7855 55.2452 15.6118 55.5216 15.3887 55.7523C15.1657 55.9829 14.8988 56.1627 14.6046 56.2803C14.1996 56.4357 13.7713 56.5179 13.3392 56.5228C12.6199 56.5557 12.4042 56.5639 10.5844 56.5639C8.76492 56.5639 8.54666 56.5557 7.82992 56.5228C7.39753 56.5182 6.96958 56.4361 6.56451 56.2803C6.26841 56.1679 6.0009 55.9882 5.78137 55.7539C5.55548 55.5265 5.38169 55.2498 5.2724 54.9439C5.12181 54.5249 5.0427 54.082 5.03794 53.6351C5.00585 52.8912 4.99822 52.668 4.99822 50.7858C4.99822 48.9039 5.00585 48.6782 5.03794 47.9369C5.04238 47.49 5.12181 47.047 5.2724 46.6281C5.38106 46.3212 5.55611 46.0442 5.78391 45.8181C6.00376 45.5845 6.27158 45.4047 6.56705 45.2917C6.97244 45.1362 7.40038 45.0541 7.83246 45.0492C8.55174 45.0163 8.76778 45.0078 10.5873 45.0078C12.4093 45.0078 12.625 45.0163 13.3418 45.0492C13.7742 45.0538 14.2021 45.1359 14.6072 45.2917C14.9033 45.4041 15.1711 45.5838 15.3903 45.8181C15.6162 46.0455 15.79 46.3221 15.8993 46.6281C16.0499 47.047 16.129 47.49 16.1337 47.9369C16.1658 48.6808 16.1738 48.9039 16.1738 50.7858C16.1738 52.668 16.1658 52.8885 16.1337 53.6325Z" fill="white"/>
<path d="M10.5789 47.0166C9.88148 47.0166 9.19969 47.2232 8.61991 47.6108C8.04013 47.9984 7.58794 48.5491 7.32124 49.1935C7.05421 49.8379 6.9845 50.5468 7.12041 51.2309C7.25664 51.9149 7.59242 52.543 8.08554 53.0362C8.57866 53.5296 9.20704 53.8654 9.89108 54.0013C10.5751 54.1375 11.2841 54.0675 11.9285 53.8008C12.5728 53.5338 13.1235 53.0819 13.5111 52.5021C13.8984 51.922 14.1053 51.2402 14.1053 50.5427C14.105 49.6076 13.7334 48.7109 13.072 48.0495C12.411 47.3882 11.514 47.0166 10.5789 47.0166ZM10.5789 52.8302C10.1264 52.8302 9.68449 52.6962 9.3081 52.4448C8.93203 52.1935 8.63878 51.8363 8.46577 51.4183C8.29244 51.0003 8.24735 50.5401 8.33562 50.0966C8.42388 49.6527 8.64166 49.2453 8.96145 48.9255C9.28156 48.6054 9.68897 48.3876 10.1328 48.2993C10.5764 48.211 11.0362 48.2565 11.4542 48.4295C11.8722 48.6025 12.2294 48.8957 12.4807 49.2721C12.7321 49.6482 12.8664 50.0905 12.8664 50.5427C12.8664 51.1493 12.6253 51.7314 12.1964 52.1602C11.7673 52.5891 11.1856 52.8302 10.5789 52.8302Z" fill="white"/>
<path d="M15.0454 47.0167C15.0454 47.2027 14.9902 47.3846 14.8868 47.5392C14.7838 47.6941 14.6369 47.8147 14.4647 47.8859C14.293 47.9572 14.1037 47.9758 13.9213 47.9393C13.7386 47.9031 13.5713 47.8136 13.4397 47.6821C13.3081 47.5505 13.2182 47.3828 13.1821 47.2005C13.1459 47.0178 13.1645 46.8289 13.2354 46.6568C13.3067 46.485 13.4273 46.3382 13.5819 46.2347C13.7368 46.1313 13.9188 46.0762 14.1048 46.0762C14.354 46.0762 14.5934 46.1752 14.7699 46.3517C14.9464 46.5282 15.0454 46.7671 15.0454 47.0167Z" fill="white"/>
<path d="M12.4334 21.3853H13.6351V19.3667C13.0537 19.3054 12.4694 19.2753 11.8845 19.2775C10.1519 19.2775 8.965 20.3284 8.965 22.2599V24.0377H7.05273V26.2943H8.965V31.9719H11.3089V26.2946H13.1437L13.4349 24.0383H11.3086V22.4837C11.3092 21.8316 11.4911 21.3853 12.4334 21.3853Z" fill="white"/>
<path d="M212.046 55.9502C224.511 55.9502 234.615 45.9515 234.615 33.6171C234.615 21.2829 224.511 11.2842 212.046 11.2842C199.583 11.2842 189.479 21.2829 189.479 33.6171C189.479 45.9515 199.583 55.9502 212.046 55.9502Z" fill="#FEBB94"/>
<path d="M220.039 33.0522C220.039 31.577 219.645 30.1298 218.899 28.8651C218.153 27.6005 217.082 26.5663 215.803 25.8729C214.524 25.1798 213.083 24.8538 211.635 24.9297C210.187 25.0057 208.787 25.4806 207.585 26.3042C206.382 27.1275 205.422 28.2684 204.807 29.6044C204.193 30.9404 203.947 32.4212 204.096 33.8884C204.245 35.356 204.784 36.7544 205.654 37.934C206.524 39.114 207.693 40.0306 209.035 40.5864V43.2555H215.058V40.5864C216.53 39.977 217.791 38.9347 218.678 37.5925C219.565 36.2503 220.039 34.6697 220.039 33.0522Z" stroke="white" stroke-width="3.71807" stroke-linecap="round" stroke-linejoin="round"/>
<path d="M209.226 43.2559H215.338V44.5229C215.338 45.0595 215.119 45.5744 214.729 45.9541C214.339 46.3337 213.81 46.547 213.259 46.547H211.304C210.753 46.547 210.224 46.3337 209.834 45.9541C209.445 45.5744 209.226 45.0595 209.226 44.5229V43.2559Z" stroke="white" stroke-width="3.71807" stroke-linecap="round" stroke-linejoin="round"/>
<path d="M210.92 43.2558V33.7683C210.92 33.5415 210.832 33.3235 210.676 33.1629C210.519 33.0024 210.307 32.9121 210.085 32.9121H210.06C209.839 32.9121 209.627 33.0024 209.47 33.1629C209.314 33.3235 209.226 33.5415 209.226 33.7683C209.226 33.881 209.247 33.9922 209.289 34.096C209.331 34.2001 209.393 34.2943 209.47 34.3737C209.548 34.4532 209.639 34.5162 209.741 34.5592C209.842 34.6022 209.951 34.6246 210.06 34.6246H214.503C214.613 34.6246 214.721 34.6022 214.822 34.5592C214.924 34.5162 215.016 34.4532 215.093 34.3737C215.171 34.2943 215.232 34.2001 215.274 34.096C215.316 33.9922 215.338 33.881 215.338 33.7683C215.338 33.5415 215.25 33.3235 215.093 33.1629C214.937 33.0024 214.724 32.9121 214.503 32.9121H214.43C214.208 32.9121 213.996 33.0024 213.84 33.1629C213.683 33.3235 213.595 33.5415 213.595 33.7683V43.2558" stroke="white" stroke-width="3.71807" stroke-linecap="round" stroke-linejoin="round"/>
<path d="M204.994 22.5684L205.935 24.4497" stroke="white" stroke-width="3.71807" stroke-linecap="round" stroke-linejoin="round"/>
<path d="M199.352 28.21L201.233 29.1506" stroke="white" stroke-width="3.71807" stroke-linecap="round" stroke-linejoin="round"/>
<defs>
<linearGradient id="paint0_linear_142_129" x1="103.348" y1="-0.263681" x2="120.706" y2="236.487" gradientUnits="userSpaceOnUse">
<stop stop-color="white"/>
<stop offset="1" stop-color="#94B9FF"/>
</linearGradient>
</defs>
</svg>
