<svg width="268" height="198" viewBox="0 0 268 198" fill="none" xmlns="http://www.w3.org/2000/svg">
<path d="M133.618 198.001C207.414 198.001 267.237 196.473 267.237 194.587C267.237 192.702 207.414 191.174 133.618 191.174C59.8229 191.174 0 192.702 0 194.587C0 196.473 59.8229 198.001 133.618 198.001Z" fill="#F5F8FF"/>
<path d="M108.074 83.2348C110.883 80.132 110.087 79.3016 111.403 77.4692C112.696 75.6831 112.412 70.423 113.646 71.4254C114.88 72.4276 114.887 74.311 114.887 74.311C116.243 72.8515 117.861 69.9574 120.229 70.1465C122.596 70.3359 122.627 71.1025 123.668 72.4728C126.427 76.1574 121.011 79.4149 119.887 80.8791C119.171 81.7939 114.961 84.1001 114.414 84.6932L112.068 86.8059L108.074 83.2348Z" fill="#FFCCB3"/>
<path d="M117.126 75.0785L121.132 70.6064" stroke="#EF6A77" stroke-width="1.07832" stroke-linecap="round"/>
<path d="M118.751 76.3449L122.923 72.2852" stroke="#EF6A77" stroke-width="1.07832" stroke-linecap="round"/>
<path d="M120.696 77.7799L123.12 75.2969" stroke="#EF6A77" stroke-width="1.07832" stroke-linecap="round"/>
<path d="M66.0084 108.339L42.5117 192.686H47.2982L74.4568 108.339H66.0084Z" fill="#D1E8F7"/>
<path d="M66.0081 108.339L64.2832 114.532L73.2858 111.975L74.4565 108.339H66.0081Z" fill="#5CA4E6"/>
<path d="M232.968 175.5L220.239 192.421C219.94 192.82 219.493 193.083 219.001 193.153C218.507 193.223 218.004 193.094 217.608 192.794L216.425 191.905L231.414 171.978L232.596 172.866C232.996 173.166 233.257 173.612 233.327 174.106C233.398 174.6 233.269 175.101 232.968 175.5Z" fill="#5661AE"/>
<path d="M220.961 165.591L225.549 169.321L220.888 176.515L215.713 172.565L220.961 165.591Z" fill="#BC775C"/>
<path d="M222.998 167.407L217.283 173.642L215.892 172.545L221.245 165.968L222.998 167.407Z" fill="#93523E" stroke="#93523E"/>
<path d="M224.934 168.857C224.934 168.857 223.646 173.389 219.4 175.711L215.565 190.703C215.688 191.563 216.65 192.116 217.288 192.321C217.429 192.365 217.579 192.365 217.72 192.319C217.861 192.274 217.981 192.186 218.069 192.068L231.677 173.979C231.903 173.678 232.003 173.299 231.956 172.924C231.905 172.55 231.712 172.209 231.413 171.977C230.225 171.044 228.4 169.639 227.611 169.157C226.388 168.411 225.52 168.239 224.934 168.857Z" fill="#1C85E8"/>
<path d="M218.514 178.82L220.696 178.352C220.776 178.335 220.859 178.338 220.937 178.36C221.015 178.382 221.085 178.424 221.145 178.48C221.203 178.537 221.248 178.607 221.273 178.684C221.298 178.762 221.303 178.845 221.288 178.925C221.271 179.023 221.226 179.114 221.155 179.186C221.085 179.257 220.997 179.306 220.899 179.326L218.22 179.866L218.514 178.82Z" fill="white"/>
<path d="M217.998 181.195L220.168 180.722C220.248 180.705 220.331 180.708 220.409 180.73C220.487 180.752 220.56 180.794 220.617 180.85C220.678 180.907 220.72 180.977 220.745 181.054C220.77 181.132 220.775 181.215 220.763 181.295C220.745 181.393 220.698 181.484 220.627 181.556C220.56 181.627 220.469 181.676 220.371 181.696L217.729 182.244L217.998 181.195Z" fill="white"/>
<path d="M217.336 183.782L219.483 183.303C219.564 183.286 219.647 183.289 219.724 183.311C219.802 183.333 219.875 183.375 219.933 183.431C219.991 183.488 220.036 183.558 220.061 183.636C220.086 183.713 220.091 183.795 220.076 183.876C220.058 183.974 220.013 184.065 219.943 184.136C219.873 184.208 219.785 184.257 219.687 184.277L217.075 184.803L217.336 183.782Z" fill="white"/>
<path d="M177.339 145.87L213.667 175.138L221.954 165.48L190.191 135.681L177.339 145.87Z" fill="#1F2D49"/>
<path d="M196.824 141.904V161.569L213.667 175.139L216.085 159.975L196.824 141.904Z" fill="#0D1B33"/>
<path d="M180.563 92.0625L174.592 139.681H191.288L205.79 92.3013L180.563 92.0625Z" fill="#1F2D49"/>
<path d="M194.898 127.884L197.703 104.261H204.597L194.898 127.884Z" fill="#0D1B33"/>
<path d="M209.885 193.503H188.711C188.212 193.503 187.734 193.305 187.381 192.952C187.028 192.599 186.83 192.121 186.83 191.622V190.144H211.766V191.622C211.766 192.121 211.568 192.599 211.216 192.952C210.862 193.305 210.385 193.503 209.885 193.503Z" fill="#5661AE"/>
<path d="M210.585 177.951L210.364 183.861L201.812 184.46L201.857 177.951H210.585Z" fill="#BC775C"/>
<path d="M210.36 180.673L201.94 179.853L201.981 178.082L210.455 178.406L210.36 180.673Z" fill="#93523E" stroke="#93523E"/>
<path d="M210.365 183.091C210.365 183.091 205.968 184.785 201.56 182.788L187.274 188.735C186.659 189.35 186.796 190.451 187.016 191.085C187.065 191.223 187.156 191.344 187.277 191.428C187.397 191.513 187.541 191.558 187.688 191.557H210.322C210.701 191.558 211.063 191.41 211.334 191.145C211.603 190.881 211.759 190.521 211.766 190.144C211.796 188.632 211.821 186.33 211.733 185.409C211.595 183.985 211.209 183.185 210.365 183.091Z" fill="#1C85E8"/>
<path d="M198.542 183.947L200.228 185.41C200.29 185.463 200.337 185.531 200.366 185.607C200.395 185.683 200.406 185.765 200.396 185.846C200.386 185.927 200.356 186.004 200.309 186.071C200.262 186.138 200.2 186.192 200.127 186.229C200.038 186.274 199.937 186.291 199.839 186.279C199.739 186.266 199.646 186.223 199.572 186.157L197.529 184.341L198.542 183.947Z" fill="white"/>
<path d="M196.334 184.964L198.017 186.414C198.079 186.468 198.126 186.535 198.156 186.611C198.185 186.688 198.195 186.77 198.185 186.85C198.175 186.932 198.145 187.009 198.098 187.075C198.052 187.142 197.989 187.196 197.917 187.233C197.828 187.279 197.727 187.296 197.628 187.283C197.529 187.27 197.436 187.228 197.361 187.162L195.335 185.38L196.334 184.964Z" fill="white"/>
<path d="M193.87 185.989L195.543 187.416C195.604 187.47 195.652 187.537 195.681 187.613C195.71 187.689 195.72 187.771 195.71 187.853C195.7 187.933 195.671 188.01 195.624 188.077C195.577 188.144 195.515 188.198 195.442 188.235C195.353 188.28 195.252 188.298 195.153 188.285C195.054 188.272 194.961 188.23 194.887 188.163L192.896 186.394L193.87 185.989Z" fill="white"/>
<path d="M215.919 92.3008C215.781 94.7155 215.781 97.1362 215.919 99.5509C216.474 107.357 214.699 130.151 214.714 133.15C214.727 136.15 212.753 178.395 212.753 178.395H200.749C200.749 178.395 197.68 142.089 197.609 137.934C197.538 133.779 196.824 92.4715 196.824 92.4715L215.919 92.3008Z" fill="#1F2D49"/>
<path d="M180.201 94.9453L215.919 99.5509V92.3008L180.386 93.4692L180.201 94.9453Z" fill="#0D1B33"/>
<path d="M182.94 148.028C187.55 148.028 191.287 144.29 191.287 139.68C191.287 135.07 187.55 131.332 182.94 131.332C178.329 131.332 174.592 135.07 174.592 139.68C174.592 144.29 178.329 148.028 182.94 148.028Z" fill="#1F2D49"/>
<path d="M245.15 104.261H25.9883V108.339H245.15V104.261Z" fill="url(#paint0_linear_151_141)"/>
<path fill-rule="evenodd" clip-rule="evenodd" d="M131.154 188.393C127.916 187.249 124.578 186.069 121.501 186.288C121.432 186.293 121.365 186.312 121.304 186.346C121.242 186.379 121.189 186.425 121.148 186.481C121.107 186.537 121.078 186.601 121.064 186.669C121.05 186.737 121.05 186.808 121.066 186.875L122.355 192.319C122.381 192.431 122.448 192.53 122.541 192.597C122.635 192.664 122.75 192.695 122.864 192.684L143.785 190.664C145.327 190.515 146.072 189.601 146.182 188.342C146.185 188.299 146.176 188.256 146.155 188.218C146.134 188.18 146.103 188.149 146.064 188.129C146.026 188.108 145.983 188.099 145.94 188.102C145.897 188.105 145.855 188.121 145.821 188.148C143.512 189.879 140.618 190.638 137.757 190.262C135.692 189.997 133.448 189.204 131.154 188.393Z" fill="#5661AE"/>
<path fill-rule="evenodd" clip-rule="evenodd" d="M119.837 172.686C119.837 172.686 121.995 181.241 122.055 182.159C122.061 182.669 122.028 183.179 121.959 183.684C121.862 184.593 121.755 185.605 121.916 186.269C124.877 186.177 128.061 187.302 131.154 188.394C133.448 189.204 135.691 189.997 137.757 190.262C140.479 190.619 143.238 189.95 145.494 188.385C145.4 186.822 143.918 185.506 141.186 185.532C136.287 185.58 133.576 185.492 130.874 182.193C128.953 179.849 128.027 169.962 128.027 169.962L119.837 172.686Z" fill="#FFCCB3"/>
<path fill-rule="evenodd" clip-rule="evenodd" d="M130.249 180.828C129.346 181.039 125.755 181.864 122.252 182.434C121.571 182.545 121.355 183.951 121.87 184.65C122.224 185.166 122.537 185.711 122.804 186.277C124.024 186.349 125.234 186.548 126.414 186.869C125.792 185.535 126.457 184.663 127.74 184.347C128.754 184.098 131.199 184.056 132.465 184.051C132.534 184.051 132.602 184.031 132.661 183.993C132.719 183.955 132.766 183.902 132.795 183.838C132.823 183.775 132.834 183.705 132.824 183.636C132.814 183.567 132.785 183.502 132.74 183.45L130.609 180.947C130.566 180.896 130.509 180.858 130.446 180.837C130.382 180.816 130.314 180.813 130.249 180.828Z" fill="white"/>
<path fill-rule="evenodd" clip-rule="evenodd" d="M143.061 189.657C140.821 190.525 139.254 190.344 139.254 190.344L138.776 185.396L142.631 185.203L143.061 189.657Z" fill="white"/>
<path d="M117.799 138.173C121.515 137.058 123.624 133.142 122.509 129.426C121.395 125.71 117.479 123.601 113.763 124.716C110.047 125.831 107.938 129.746 109.053 133.462C110.167 137.178 114.083 139.287 117.799 138.173Z" fill="#FFCCB3"/>
<path d="M117.86 124.734L106.215 120.748L100.795 135.35L115.859 137.972L117.86 124.734Z" fill="#FFCCB3"/>
<path d="M122.743 130.512L128.655 174.687L120.987 177.341L109.395 135.397L122.743 130.512Z" fill="#FFCCB3"/>
<path fill-rule="evenodd" clip-rule="evenodd" d="M98.4624 191.457C95.403 189.895 92.2501 188.286 89.1712 188.097C89.1016 188.092 89.0321 188.103 88.9673 188.128C88.9025 188.153 88.8437 188.192 88.7953 188.241C88.747 188.291 88.7099 188.351 88.687 188.417C88.6642 188.482 88.6556 188.552 88.6624 188.622L89.2216 194.188C89.2332 194.302 89.2857 194.409 89.3698 194.488C89.4537 194.567 89.5634 194.612 89.6787 194.616L110.683 195.373C112.232 195.429 113.09 194.622 113.366 193.388C113.374 193.346 113.37 193.302 113.355 193.261C113.339 193.221 113.312 193.186 113.277 193.161C113.242 193.135 113.2 193.12 113.157 193.118C113.114 193.116 113.071 193.126 113.033 193.147C110.516 194.559 107.547 194.93 104.761 194.18C102.748 193.644 100.629 192.563 98.4624 191.457Z" fill="#5661AE"/>
<path fill-rule="evenodd" clip-rule="evenodd" d="M89.3154 174.394C89.3154 174.394 90.3267 183.158 90.2656 184.077C90.2034 184.583 90.1042 185.084 89.9686 185.576C89.7531 186.463 89.5133 187.452 89.5856 188.132C92.5324 188.431 95.5403 189.966 98.4622 191.457C100.629 192.563 102.748 193.644 104.761 194.18C107.413 194.893 110.235 194.593 112.678 193.339C112.791 191.778 111.496 190.278 108.783 189.943C103.922 189.344 101.246 188.9 99.0024 185.274C97.4075 182.697 97.7932 172.773 97.7932 172.773L89.3154 174.394Z" fill="#FCBA9F"/>
<path fill-rule="evenodd" clip-rule="evenodd" d="M98.5624 183.837C97.6398 183.927 93.9715 184.271 90.4233 184.374C89.7337 184.394 89.3345 185.759 89.7526 186.52C90.0358 187.079 90.2739 187.66 90.4637 188.257C91.664 188.489 92.8372 188.845 93.9642 189.319C93.5233 187.915 94.2982 187.138 95.6115 186.994C96.6489 186.881 99.0786 187.162 100.334 187.324C100.403 187.333 100.473 187.322 100.536 187.292C100.599 187.263 100.652 187.215 100.689 187.157C100.726 187.098 100.745 187.03 100.745 186.96C100.744 186.89 100.724 186.822 100.686 186.764L98.9039 184.002C98.8677 183.946 98.8167 183.9 98.7565 183.871C98.6962 183.842 98.6289 183.83 98.5624 183.837Z" fill="white"/>
<path fill-rule="evenodd" clip-rule="evenodd" d="M110.099 194.279C107.764 194.844 106.234 194.459 106.234 194.459L106.413 189.491L110.26 189.808L110.099 194.279Z" fill="white"/>
<path d="M91.8474 139.913C95.6779 139.298 98.2847 135.695 97.67 131.864C97.0553 128.034 93.4518 125.427 89.6213 126.042C85.7909 126.657 83.1841 130.26 83.7988 134.091C84.4135 137.921 88.017 140.528 91.8474 139.913Z" stroke="#5CA4E6" stroke-width="1.0969" stroke-miterlimit="10"/>
<path d="M97.7596 132.971L97.793 177.54L89.842 179.159L83.8828 136.053L97.7596 132.971Z" fill="#FCBA9F"/>
<path d="M76.9443 116.699C76.9443 116.699 74.8066 127.16 77.608 131.532C81.1542 137.066 85.4914 137.913 88.6966 137.973L106.014 136.479C106.014 136.479 105.899 126.522 112.313 122.802C112.313 122.802 86.0268 113.101 76.9443 116.699Z" fill="#5661AE"/>
<path d="M70.2783 63.3254L68.9027 70.3508L60.9414 69.8104L62.4667 62.3428L70.2783 63.3254Z" fill="#FFCCB3"/>
<path d="M70.1988 63.7336L69.5306 67.1465C69.5306 67.1465 67.701 65.5871 67.3477 63.1533L70.1988 63.7336Z" fill="#FCBA9F"/>
<path d="M58.4873 71.8076C58.4873 71.8076 60.3006 67.0764 61.3826 67.6509C63.9545 69.0162 67.7112 68.7631 69.3743 67.9425C70.371 67.4508 70.4089 71.8076 70.4089 71.8076H58.4873Z" fill="#FEBB94"/>
<path d="M58.4872 71.8076L50.8474 72.8309C50.6377 72.859 50.4474 72.9678 50.3165 73.1342C50.1857 73.3005 50.1249 73.5112 50.147 73.7216L55.4812 124.325L82.8525 121.638L79.465 73.4848L70.4088 71.8076H58.4872Z" fill="#FEBB94"/>
<path d="M77.965 86.2267L75.8301 82.3438L76.3554 86.2267H77.965Z" fill="#FF967C"/>
<path d="M78.9902 73.3965C81.8765 73.8392 84.296 75.7625 85.1043 77.4429L92.2445 93.7088L109.778 79.6866L114.762 84.9364L99.0014 104.408C95.8319 108.582 90.3493 110.3 86.6153 104.857L80.6493 95.4861L78.9902 73.3965Z" fill="#FEBB94"/>
<path d="M92.2441 93.7094L94.239 97.6307L95.7572 90.8994L92.2441 93.7094Z" fill="#FF967C"/>
<path d="M50.9061 72.8233C50.9061 72.8233 48.8445 72.7868 47.1113 75.82C45.3779 78.853 38.3582 97.2254 38.3582 97.2254C38.3582 97.2254 35.1518 104.158 41.6516 104.418H55.2574L50.9061 72.8233Z" fill="#FEBB94"/>
<path d="M52.4414 86.2271L51.8718 83.6826L50.4385 86.2271H52.4414Z" fill="#FF967C"/>
<path d="M88.4343 137.955H58.7201C57.7842 137.955 56.8797 137.617 56.1728 137.004C55.4656 136.391 55.0036 135.543 54.8713 134.617L48.5917 90.6642C48.5131 90.1128 48.5538 89.5508 48.711 89.0164C48.8682 88.4821 49.1386 87.9879 49.5035 87.567C49.8683 87.1461 50.3196 86.8087 50.8263 86.5774C51.3331 86.3461 51.8835 86.2266 52.4405 86.2266H82.1549C83.0906 86.2266 83.9951 86.5641 84.7022 87.1773C85.4091 87.7902 85.8711 88.638 86.0035 89.5644L92.2831 133.517C92.3619 134.068 92.3212 134.63 92.1638 135.164C92.0066 135.699 91.7364 136.193 91.3713 136.614C91.0064 137.035 90.5554 137.372 90.0486 137.603C89.5419 137.835 88.9912 137.955 88.4343 137.955Z" fill="#5CA4E6"/>
<path d="M86.4316 137.955H109.188C109.383 137.955 109.575 137.903 109.744 137.805C109.913 137.707 110.053 137.566 110.15 137.397C110.247 137.227 110.297 137.035 110.296 136.839C110.294 136.644 110.241 136.452 110.142 136.284C110.064 136.152 109.96 136.038 109.837 135.949C109.713 135.86 109.572 135.797 109.423 135.765L91.0016 131.76L86.4316 137.955Z" fill="#5CA4E6"/>
<path d="M86.4322 137.955H56.718C55.7821 137.955 54.8776 137.617 54.1707 137.004C53.4636 136.391 53.0016 135.543 52.8692 134.617L46.5899 90.6642C46.5111 90.1128 46.5517 89.5508 46.7089 89.0164C46.8661 88.4821 47.1366 87.9879 47.5014 87.567C47.8663 87.1461 48.3176 86.8087 48.8243 86.5774C49.331 86.3461 49.8815 86.2266 50.4385 86.2266H80.1529C81.0885 86.2266 81.993 86.5641 82.7002 87.1773C83.4071 87.7902 83.8691 88.638 84.0014 89.5644L90.281 133.517C90.3599 134.068 90.3192 134.63 90.162 135.164C90.0045 135.699 89.7344 136.193 89.3695 136.614C89.0044 137.035 88.5534 137.372 88.0466 137.603C87.5399 137.835 86.9892 137.955 86.4322 137.955Z" fill="url(#paint1_linear_151_141)"/>
<path d="M207.786 97.5605C207.786 97.5605 206.181 100.592 205.79 100.94C205.4 101.288 198.951 102.083 197.703 102.531C196.454 102.978 195.857 103.654 195.857 104.26H211.015C211.015 104.26 211.407 103.895 211.691 102.729C211.972 101.564 212.467 101.07 212.467 101.07L207.786 97.5605Z" fill="#BC775C"/>
<path d="M185.998 49.7995C186.995 44.8782 184.65 45.005 183.87 44.2226C183.87 44.2226 180.943 41.8089 178.713 44.0588C176.352 46.4386 162.82 64.9256 162.82 64.9256L171.287 72.7128L172.879 70.8137L177.001 65.8969L181.411 60.6416L181.959 60.0434L187.907 53.3058C187.907 53.3058 185.434 52.3905 185.998 49.7995Z" fill="#5661AE"/>
<path d="M189.538 50.6389C190.68 47.2313 188.843 43.5434 185.435 42.4021C182.027 41.2608 178.34 43.0979 177.198 46.5056C176.057 49.9134 177.894 53.601 181.302 54.7423C184.709 55.8839 188.397 54.0465 189.538 50.6389Z" fill="#5661AE"/>
<path d="M181.881 60.0179C182.051 58.9891 182.393 56.9319 182.76 55.0571L184.714 45.9824C184.714 45.9824 179.467 53.7368 177.05 59.1382C175.26 63.1859 173.183 67.3112 172.84 70.8012L176.962 65.8841L181.372 60.6291L181.881 60.0179Z" fill="#465393"/>
<path d="M154.363 44.1128C152.351 40.443 153.318 39.8202 152.462 37.7322C151.619 35.695 153.116 30.6443 151.683 31.3329C150.25 32.0217 149.806 33.8518 149.806 33.8518C148.826 32.1176 147.923 28.9272 145.577 28.5621C143.23 28.197 143.022 28.9355 141.692 30.0268C138.153 32.9711 142.666 37.3957 143.419 39.0807C143.904 40.1369 147.464 43.3569 147.858 44.0605L149.65 46.6601L154.363 44.1128Z" fill="#BC775C"/>
<path d="M147.449 34.0795L144.59 28.7998" stroke="#93523E" stroke-width="1.07832" stroke-linecap="round"/>
<path d="M145.577 34.9344L142.46 30.0176" stroke="#93523E" stroke-width="1.07832" stroke-linecap="round"/>
<path d="M143.351 35.8791L141.569 32.9014" stroke="#93523E" stroke-width="1.07832" stroke-linecap="round"/>
<path d="M148.156 38.7277C148.171 36.8996 149.268 34.6875 149.268 34.6875" stroke="#93523E" stroke-width="1.07832" stroke-linecap="round"/>
<path d="M171.359 64.7787L154.141 41.8499C154.032 41.7153 153.876 41.6259 153.704 41.5992C153.532 41.5724 153.357 41.6103 153.211 41.7052L148.703 44.6869C148.489 44.8321 148.336 45.0515 148.275 45.3029C148.214 45.5543 148.248 45.8197 148.371 46.0472L162.217 71.5816L171.359 64.7787Z" fill="#5661AE"/>
<path d="M167.175 74.4633C170.359 74.4633 172.941 71.8818 172.941 68.6974C172.941 65.5131 170.359 62.9316 167.175 62.9316C163.991 62.9316 161.409 65.5131 161.409 68.6974C161.409 71.8818 163.991 74.4633 167.175 74.4633Z" fill="#5661AE"/>
<path d="M191.267 39.04C191.267 39.04 182.861 41.7141 181.202 42.4077C179.543 43.1015 179.433 45.8768 179.322 47.8425C179.245 49.2199 180.799 71.8366 180.902 84.9352C180.923 87.7336 180.402 89.5092 180.066 91.0643C179.731 92.6197 180.066 93.4662 180.066 93.4662L216.086 93.7884C216.086 93.7884 215.006 48.2775 214.785 46.6588C214.564 45.0399 216.302 43.6457 214.418 42.8308L200.664 39.04H191.267Z" fill="white"/>
<path d="M186.746 40.5C186.746 40.5 188.118 46.7778 189.018 51.8021C189.917 56.8264 190.191 98.4197 190.191 98.4197C190.191 98.4197 179.665 96.3734 178.24 93.9554C176.814 91.5372 179.56 80.6728 179.774 70.8013C179.988 60.9298 177.91 45.6104 180.091 42.9526C180.091 42.9529 180.651 42.3982 186.746 40.5Z" fill="#5661AE"/>
<path d="M204.436 40.0967C204.436 40.0967 199.442 50.5018 199.747 53.6731C200.053 56.8444 200.07 83.8895 199.747 89.536C199.547 92.971 199.024 96.3796 198.185 99.7164C198.185 99.7164 211.809 100.681 217.072 99.0334C217.072 99.0334 219.573 83.2996 217.931 77.679C216.291 72.0583 215.038 42.8464 215.038 42.8464L204.436 40.0967Z" fill="#5661AE"/>
<path d="M208.122 54.0789C208.122 54.0789 208.632 72.9363 208.526 79.2219C208.461 83.1387 203.981 84.7976 203.969 87.0654C203.961 88.4071 207.504 86.8364 208.461 88.2235C209.415 89.6104 207.783 93.9552 207.783 93.9552L216.085 93.7884L219.412 77.6497L212.404 53.1084L208.122 54.0789Z" fill="#465393"/>
<path d="M191.44 34.8366L190.66 43.6248C190.66 43.6248 190.452 44.9899 192.823 45.4218C194.705 45.7646 198.617 43.5525 199.501 42.8238C201.463 41.2041 201.645 40.224 201.437 39.4734C201.14 38.3979 200.169 30.8193 200.169 30.8193L191.44 34.8366Z" fill="#BC775C"/>
<path d="M190.927 42.0286L191.407 36.6118L195.592 34.5449L190.927 42.0286Z" fill="#93523E" stroke="#93523E"/>
<path d="M186.787 18.2035C186.787 18.2035 185.184 25.3836 184.971 30.2735C184.756 35.2071 186.519 36.1465 188.704 36.5149C190.428 36.8054 193.11 36.8265 194.796 35.9846C197.871 34.449 202.919 30.7222 203.58 29.9993C204.604 28.8798 204.534 23.8869 200.626 22.6522C197.784 21.754 190.538 14.1289 186.787 18.2035Z" fill="#BC775C"/>
<path d="M186.803 18.969C189.134 19.8828 193.522 19.2824 195.932 20.0646C198.338 20.8488 196.148 21.6767 196.253 24.0018C196.321 25.5077 196.435 28.3855 197.359 28.3473C198.284 28.3094 198.828 25.0412 200.777 25.1657C202.725 25.2928 203.644 26.125 203.601 27.3712C203.559 28.6152 202.159 29.6993 201.054 30.2748C199.671 30.991 199.101 30.6907 199.101 30.6907C199.101 30.6907 200.657 36.4211 200.892 36.1941C200.892 36.1941 202.571 35.2466 202.874 33.588C202.874 33.588 205.101 33.1054 204.609 30.8773C204.609 30.8773 205.995 30.432 205.337 29.1421C205.337 29.1421 208.923 26.7309 207.055 23.7803C207.055 23.7803 208.755 22.0838 206.723 21.3664C206.723 21.3664 209.415 17.4334 205.586 16.595C205.586 16.595 205.842 14.7438 204.089 14.8143C204.089 14.8143 203.324 11.6302 199.499 12.886C199.481 12.2485 199.271 11.6312 198.896 11.1154C198.52 10.5997 197.998 10.2092 197.397 9.99548C195.231 9.12311 193.821 10.3237 193.821 10.3237C193.821 10.3237 191.548 8.46947 190.351 11.188C190.351 11.188 188.631 10.3091 187.342 11.243C186.051 12.1739 186.679 14.1253 186.679 14.1253C186.679 14.1253 185.204 13.7795 184.665 15.0014C183.905 16.7208 184.973 17.3473 184.973 17.3473C184.973 17.3473 182.571 20.1869 185.948 22.8766L186.803 18.969Z" fill="#493212"/>
<path d="M192.669 26.0577C192.796 25.4768 192.59 24.9387 192.21 24.8556C191.829 24.7725 191.418 25.176 191.291 25.7566C191.164 26.3371 191.37 26.8753 191.751 26.9584C192.131 27.0415 192.542 26.6382 192.669 26.0577Z" fill="#080B09"/>
<path d="M187.436 24.8787C187.562 24.2981 187.357 23.76 186.977 23.6769C186.596 23.5938 186.185 23.997 186.058 24.5779C185.931 25.1584 186.137 25.6966 186.517 25.7797C186.897 25.8628 187.309 25.4595 187.436 24.8787Z" fill="#080B09"/>
<path d="M188.47 26.4209C188.47 26.4209 189.121 27.6729 188.181 27.692C187.284 27.6795 186.761 28.2061 187.666 28.9692" stroke="#93523E" stroke-width="1.07832" stroke-linecap="round"/>
<path d="M187.804 30.1269L187.808 30.1274L187.812 30.1276C188.369 30.1675 189.481 30.2477 190.22 30.3132H190.221C190.242 30.315 190.263 30.3225 190.281 30.335C190.298 30.3478 190.312 30.3649 190.321 30.385C190.329 30.4048 190.332 30.4267 190.329 30.448C190.326 30.4686 190.318 30.4882 190.304 30.5045C190.142 30.6836 189.928 30.8965 189.69 31.0801C189.45 31.2657 189.194 31.4148 188.947 31.4741C188.705 31.5323 188.477 31.504 188.273 31.3405C188.064 31.1717 187.863 30.8471 187.713 30.2758L187.71 30.266L187.706 30.2567C187.699 30.2416 187.697 30.2248 187.699 30.2085C187.701 30.1919 187.707 30.1763 187.717 30.163C187.727 30.1497 187.74 30.1394 187.756 30.1331C187.771 30.1266 187.788 30.1246 187.804 30.1269Z" fill="#93523E" stroke="#93523E"/>
<path d="M194.494 24.1445L194.442 24.2497C194.38 24.4097 194.256 24.5383 194.099 24.6078C193.942 24.6771 193.764 24.6817 193.604 24.6201L190.876 23.4911C190.742 23.4419 190.631 23.344 190.566 23.2169C190.5 23.0899 190.484 22.9427 190.522 22.8048C190.541 22.7192 190.578 22.6386 190.631 22.5686C190.684 22.4982 190.75 22.4402 190.827 22.3978C190.904 22.3553 190.989 22.3295 191.076 22.3225C191.163 22.3152 191.251 22.3265 191.334 22.3559L194.114 23.3799C194.19 23.4037 194.26 23.4429 194.321 23.4947C194.381 23.5466 194.431 23.6102 194.467 23.6815C194.502 23.7528 194.523 23.8306 194.528 23.9102C194.532 23.9898 194.521 24.0695 194.494 24.1445Z" fill="#080B09"/>
<path d="M185.29 21.6044L188.246 21.4053C188.334 21.4003 188.421 21.4141 188.503 21.4457C188.585 21.4774 188.659 21.5258 188.721 21.5881C188.782 21.6504 188.83 21.7252 188.861 21.8073C188.892 21.8894 188.904 21.9771 188.899 22.0647C188.896 22.2076 188.84 22.3445 188.741 22.4479C188.642 22.5514 188.508 22.6139 188.366 22.6234L185.43 22.9381C185.259 22.9519 185.09 22.8977 184.958 22.7867C184.827 22.6759 184.745 22.5177 184.73 22.3467L184.71 22.2312C184.706 22.1516 184.717 22.0718 184.744 21.9969C184.771 21.9218 184.813 21.853 184.867 21.7945C184.921 21.736 184.987 21.6891 185.06 21.6564C185.132 21.6238 185.211 21.6062 185.29 21.6044Z" fill="#080B09"/>
<path d="M215.309 47.3687C211.598 43.9849 210.503 46.0614 209.43 46.3288C209.43 46.3288 205.857 47.5997 206.641 50.669C207.469 53.9169 216.376 75.0247 216.376 75.0247L227.616 72.3639L226.597 69.4204L224.497 63.3573L222.255 56.8743L222.021 56.0968L219.297 47.5319C219.297 47.5319 217.243 49.1834 215.309 47.3687Z" fill="#5661AE"/>
<path d="M217.138 53.9355C219.867 51.5984 220.186 47.4907 217.848 44.7608C215.51 42.0307 211.402 41.7123 208.673 44.0494C205.943 46.3865 205.624 50.4943 207.962 53.2241C210.3 55.9542 214.406 56.2726 217.138 53.9355Z" fill="#5661AE"/>
<path d="M216.291 72.0576L206.35 98.9528C206.297 99.118 206.307 99.2973 206.377 99.456C206.448 99.6147 206.573 99.7418 206.734 99.8126L211.681 101.986C211.919 102.087 212.188 102.097 212.432 102.012C212.675 101.927 212.881 101.755 213.004 101.528L226.964 76.0546L216.291 72.0576Z" fill="#5661AE"/>
<path d="M221.851 79.2162C225.035 79.2162 227.616 76.6347 227.616 73.4504C227.616 70.266 225.035 67.6846 221.851 67.6846C218.666 67.6846 216.085 70.266 216.085 73.4504C216.085 76.6347 218.666 79.2162 221.851 79.2162Z" fill="#5661AE"/>
<path d="M66.1689 137.955H87.8312C87.8312 140.345 86.882 142.637 85.192 144.327C83.502 146.017 81.2101 146.966 78.8203 146.966H75.1801C72.7903 146.966 70.4981 146.017 68.8084 144.327C67.1184 142.637 66.1689 140.345 66.1689 137.955Z" fill="#E7EFFF"/>
<path d="M77.4803 146.966H76.5186V190.281H77.4803V146.966Z" fill="#5CA4E6"/>
<path d="M76.5185 190.28L63.3145 194.559H90.4793L77.4802 190.28H76.5185Z" fill="#5CA4E6"/>
<path d="M33.6255 108.339L10.1289 192.686H14.9154L42.0737 108.339H33.6255Z" fill="#E7EFFF"/>
<path d="M33.6255 108.339L31.9004 114.532L40.903 111.975L42.0737 108.339H33.6255Z" fill="#96BAFD"/>
<path d="M233.929 108.339L257.426 192.686H252.64L225.479 108.339H233.929Z" fill="#D1E8F7"/>
<path d="M233.929 108.339L235.248 113.073L226.697 112.118L225.479 108.339H233.929Z" fill="#5CA4E6"/>
<path d="M70.6404 48.432C70.6404 48.432 73.7999 54.133 74.8957 56.4859C75.9916 58.8386 76.3663 61.3768 74.5412 62.545C72.0582 64.1348 69.3105 63.7815 66.3494 63.4508C63.786 63.1643 60.574 55.9515 60.9675 54.1807C61.361 52.4098 65.8188 45.3066 70.6404 48.432Z" fill="#FFCCB3"/>
<path d="M72.9958 54.9667C73.2261 54.7806 73.1905 54.355 72.9162 54.016C72.642 53.677 72.2335 53.5527 72.0032 53.7388C71.7732 53.9249 71.8088 54.3505 72.0831 54.6895C72.357 55.0288 72.7658 55.1528 72.9958 54.9667Z" fill="#080B09"/>
<path d="M69.5926 54.0997L72.0033 52.3853C71.9446 52.317 71.872 52.2618 71.7904 52.2231C71.709 52.1847 71.6204 52.1636 71.5302 52.1613C71.4401 52.1591 71.3507 52.1759 71.2673 52.2103C71.1839 52.245 71.1089 52.2964 71.0468 52.3617L69.4498 53.9809C69.393 54.0269 69.5075 54.1685 69.5926 54.0997Z" fill="#080B09"/>
<path d="M74.439 58.5049C74.1154 58.7063 73.7419 58.8128 73.3608 58.8128C72.9796 58.8128 72.6059 58.7063 72.2822 58.5049" stroke="#EF6A77" stroke-miterlimit="10" stroke-linecap="round"/>
<path d="M68.3737 51.8508L73.5358 49.24C73.5358 49.24 71.6638 43.151 64.8062 42.5149C59.7751 42.0481 55.0989 44.8219 53.2869 49.1551C51.4746 53.4886 53.0242 60.628 57.6201 62.3421C61.5075 63.7917 61.3825 67.6506 61.3825 67.6506L67.0747 60.1858C67.0747 60.1858 63.1365 58.2698 64.0809 55.9312C65.3611 52.7606 68.5784 56.4258 68.5784 56.4258L66.4015 50.09L68.3737 51.8508Z" fill="#1F2D49"/>
<path d="M73.8298 58.3525C73.8298 58.3525 74.6909 59.4743 75.2119 59.6907C75.7327 59.9072 75.2664 60.704 74.9194 60.8147C74.5723 60.9254 73.6319 58.8821 73.8298 58.3525Z" fill="#FFCCB3"/>
<path d="M52.5482 60.4695C55.9265 60.4695 58.6649 57.7312 58.6649 54.3529C58.6649 50.975 55.9265 48.2363 52.5482 48.2363C49.1703 48.2363 46.4316 50.975 46.4316 54.3529C46.4316 57.7312 49.1703 60.4695 52.5482 60.4695Z" fill="#0D1B33"/>
<path d="M51.8715 60.7371C55.2497 60.7371 57.9881 57.9987 57.9881 54.6205C57.9881 51.2425 55.2497 48.5039 51.8715 48.5039C48.4935 48.5039 45.7549 51.2425 45.7549 54.6205C45.7549 57.9987 48.4935 60.7371 51.8715 60.7371Z" fill="#1F2D49"/>
<path d="M245.149 104.261H209.069V108.339H245.149V104.261Z" fill="#96BAFD"/>
<path d="M201.546 108.339L225.042 192.686H220.256L193.098 108.339H201.546Z" fill="#E7EFFF"/>
<path d="M201.546 108.339L203.271 114.532L194.268 111.975L193.098 108.339H201.546Z" fill="#5CA4E6"/>
<path d="M231.968 35.7692C241.757 35.7692 249.692 27.8337 249.692 18.0449C249.692 8.25573 241.757 0.320312 231.968 0.320312C222.177 0.320312 214.242 8.25573 214.242 18.0449C214.242 27.8337 222.177 35.7692 231.968 35.7692Z" fill="#FEBB94"/>
<path d="M238.284 17.6141C238.284 16.4678 237.972 15.3428 237.382 14.3599C236.792 13.3771 235.946 12.5732 234.934 12.0346C233.922 11.4957 232.782 11.2423 231.637 11.3014C230.492 11.3604 229.384 11.7295 228.435 12.3696C227.483 13.0097 226.725 13.8961 226.238 14.9345C225.751 15.9728 225.557 17.1237 225.675 18.2642C225.793 19.4045 226.218 20.4913 226.906 21.4081C227.594 22.3252 228.52 23.0379 229.583 23.4698V25.544H234.344V23.4698C235.509 22.9959 236.506 22.1858 237.206 21.1427C237.91 20.0998 238.284 18.8712 238.284 17.6141Z" stroke="white" stroke-width="3.71807" stroke-linecap="round" stroke-linejoin="round"/>
<path d="M229.583 25.5439H234.362V26.5612C234.362 26.9921 234.191 27.4054 233.885 27.7103C233.581 28.0152 233.166 28.1864 232.737 28.1864H231.208C230.776 28.1864 230.364 28.0152 230.058 27.7103C229.754 27.4054 229.583 26.9921 229.583 26.5612V25.5439Z" stroke="white" stroke-width="3.71807" stroke-linecap="round" stroke-linejoin="round"/>
<path d="M230.895 25.5441V18.2877C230.895 18.1139 230.825 17.9475 230.702 17.8247C230.579 17.7019 230.413 17.6328 230.24 17.6328H230.22C230.047 17.6328 229.878 17.7019 229.758 17.8247C229.635 17.9475 229.564 18.1139 229.564 18.2877C229.564 18.3736 229.582 18.4587 229.615 18.5383C229.647 18.6177 229.695 18.6897 229.758 18.7508C229.818 18.8115 229.891 18.8597 229.969 18.8926C230.049 18.9255 230.135 18.9424 230.22 18.9424H233.705C233.791 18.9424 233.876 18.9255 233.956 18.8926C234.034 18.8597 234.107 18.8115 234.167 18.7508C234.23 18.6897 234.278 18.6177 234.31 18.5383C234.343 18.4587 234.361 18.3736 234.361 18.2877C234.361 18.1139 234.29 17.9475 234.167 17.8247C234.044 17.7019 233.879 17.6328 233.705 17.6328H233.648C233.474 17.6328 233.309 17.7019 233.186 17.8247C233.062 17.9475 232.992 18.1139 232.992 18.2877V25.5441" stroke="white" stroke-width="3.71807" stroke-linecap="round" stroke-linejoin="round"/>
<path d="M231.971 7.90332V9.52551" stroke="white" stroke-width="3.71807" stroke-linecap="round" stroke-linejoin="round"/>
<path d="M226.122 9.46582L226.933 10.8708" stroke="white" stroke-width="3.71807" stroke-linecap="round" stroke-linejoin="round"/>
<path d="M221.84 13.7432L223.244 14.5543" stroke="white" stroke-width="3.71807" stroke-linecap="round" stroke-linejoin="round"/>
<path d="M242.093 13.7568L240.689 14.5679" stroke="white" stroke-width="3.71807" stroke-linecap="round" stroke-linejoin="round"/>
<path d="M237.816 9.47363L237.005 10.8784" stroke="white" stroke-width="3.71807" stroke-linecap="round" stroke-linejoin="round"/>
<defs>
<linearGradient id="paint0_linear_151_141" x1="130.112" y1="104.251" x2="130.13" y2="113" gradientUnits="userSpaceOnUse">
<stop stop-color="white"/>
<stop offset="1" stop-color="#94B9FF"/>
</linearGradient>
<linearGradient id="paint1_linear_151_141" x1="67.3459" y1="86.1035" x2="81.3341" y2="195.275" gradientUnits="userSpaceOnUse">
<stop stop-color="white"/>
<stop offset="1" stop-color="#94B9FF"/>
</linearGradient>
</defs>
</svg>
