<svg width="375" height="492" viewBox="0 0 375 492" fill="none" xmlns="http://www.w3.org/2000/svg">
<path d="M230.572 417.238H120.798C111.894 417.238 105.9 410.02 107.409 401.116L151.621 140.378C153.13 131.474 161.573 124.256 170.477 124.256H280.25C289.154 124.256 295.148 131.474 293.639 140.378L249.428 401.116C247.918 410.02 239.475 417.238 230.572 417.238Z" fill="#5CA4E6"/>
<path d="M216.861 417.238H107.087C98.1831 417.238 92.1885 410.02 93.6986 401.116L137.91 140.378C139.42 131.474 147.861 124.256 156.766 124.256H266.539C275.443 124.256 281.438 131.474 279.928 140.378L235.717 401.116C234.207 410.02 225.765 417.238 216.861 417.238Z" fill="#D1E8F7"/>
<path d="M217.491 408.521H109.412C104.788 408.521 101.676 404.773 102.46 400.15L146.343 141.344C147.127 136.721 151.511 132.973 156.134 132.973H264.214C268.837 132.973 271.95 136.721 271.166 141.344L227.282 400.15C226.498 404.773 222.115 408.521 217.491 408.521Z" fill="white"/>
<path d="M227.721 220.174H124.379L135.15 160.671C135.855 157.043 139.369 154.102 142.996 154.102H240.572C244.2 154.102 246.568 157.043 245.863 160.671L235.568 213.604C234.862 217.232 231.349 220.174 227.721 220.174Z" fill="url(#paint0_linear_95_158)"/>
<path d="M219.392 212.517H64.6822C61.0542 212.517 58.6853 209.576 59.391 205.948L69.6861 153.014C70.3917 149.386 73.9045 146.445 77.5326 146.445H232.242C235.87 146.445 238.239 149.386 237.534 153.014L227.239 205.948C226.533 209.576 223.02 212.517 219.392 212.517Z" fill="#FEBB94"/>
<path d="M209.522 401.773L113.567 402.229C109.939 402.229 107.57 399.288 108.276 395.66L118.571 342.726C119.276 339.098 122.789 336.157 126.417 336.157L222.372 335.701C225.999 335.701 228.369 338.642 227.663 342.27L217.368 395.204C216.662 398.832 213.149 401.773 209.522 401.773Z" fill="#FEBB94"/>
<path d="M124.12 385.745C126.851 364.39 147.141 347.078 169.441 347.078C191.74 347.078 207.604 364.39 204.873 385.745" stroke="#FF967C" stroke-width="16.5208" stroke-miterlimit="10" stroke-linecap="round"/>
<path d="M124.12 385.745C126.851 364.39 147.141 347.078 169.441 347.078C180.477 347.078 189.937 351.319 196.348 358.192" stroke="white" stroke-width="16.5208" stroke-miterlimit="10" stroke-linecap="round"/>
<path d="M198.047 328.217H129.341C125.674 328.217 123.195 325.244 123.805 321.577L138.316 234.296C138.925 230.629 142.392 227.656 146.059 227.656H214.765C218.432 227.656 220.911 230.629 220.301 234.296L205.791 321.577C205.181 325.244 201.714 328.217 198.047 328.217Z" fill="url(#paint1_linear_95_158)"/>
<path d="M150.498 273.813H141.131C140.615 273.831 140.121 274.023 139.73 274.359C139.338 274.694 139.073 275.153 138.977 275.66L133.89 306.263C133.84 306.489 133.843 306.724 133.898 306.949C133.953 307.175 134.06 307.384 134.208 307.562C134.357 307.74 134.544 307.882 134.755 307.977C134.967 308.072 135.197 308.117 135.429 308.109H144.796C145.312 308.092 145.806 307.899 146.197 307.564C146.589 307.228 146.854 306.769 146.95 306.263L152.038 275.66C152.087 275.433 152.084 275.198 152.029 274.973C151.974 274.748 151.868 274.538 151.719 274.36C151.571 274.182 151.384 274.04 151.172 273.945C150.961 273.851 150.73 273.806 150.498 273.813Z" fill="white"/>
<path d="M167.59 284.282H158.222C157.706 284.299 157.213 284.492 156.821 284.827C156.429 285.163 156.164 285.622 156.068 286.129L152.721 306.261C152.672 306.487 152.675 306.722 152.73 306.947C152.785 307.172 152.892 307.382 153.04 307.561C153.189 307.738 153.375 307.88 153.587 307.975C153.799 308.07 154.029 308.115 154.261 308.107H163.629C164.144 308.09 164.638 307.898 165.029 307.562C165.421 307.227 165.686 306.767 165.782 306.261L169.129 286.129C169.178 285.902 169.175 285.667 169.12 285.442C169.065 285.217 168.959 285.007 168.811 284.829C168.662 284.651 168.475 284.509 168.263 284.415C168.052 284.319 167.821 284.274 167.59 284.282Z" fill="white"/>
<path d="M190.215 254.823H180.847C180.332 254.84 179.838 255.033 179.446 255.368C179.055 255.704 178.789 256.163 178.694 256.67L170.449 306.262C170.4 306.489 170.403 306.724 170.458 306.949C170.513 307.174 170.619 307.384 170.767 307.562C170.916 307.74 171.103 307.882 171.315 307.976C171.526 308.071 171.757 308.117 171.988 308.109H181.356C181.872 308.092 182.365 307.899 182.757 307.564C183.148 307.228 183.414 306.769 183.51 306.262L191.754 256.67C191.804 256.443 191.8 256.208 191.745 255.983C191.69 255.758 191.584 255.548 191.436 255.37C191.287 255.192 191.1 255.05 190.888 254.956C190.677 254.861 190.447 254.815 190.215 254.823Z" fill="white"/>
<path d="M206.335 267.679H196.968C196.453 267.696 195.958 267.888 195.567 268.224C195.176 268.56 194.91 269.018 194.814 269.525L188.707 306.262C188.658 306.489 188.66 306.724 188.716 306.949C188.771 307.174 188.877 307.384 189.025 307.562C189.174 307.74 189.361 307.882 189.572 307.977C189.784 308.071 190.015 308.116 190.246 308.109H199.614C200.129 308.091 200.623 307.899 201.014 307.563C201.406 307.228 201.671 306.769 201.768 306.262L207.875 269.525C207.924 269.299 207.921 269.064 207.866 268.838C207.811 268.613 207.705 268.404 207.556 268.226C207.408 268.048 207.221 267.905 207.009 267.811C206.798 267.716 206.567 267.671 206.335 267.679Z" fill="white"/>
<path d="M145.172 238.395H170.534" stroke="white" stroke-width="10" stroke-miterlimit="10" stroke-linecap="round"/>
<path d="M143.74 247.006H156.422" stroke="white" stroke-width="10" stroke-miterlimit="10" stroke-linecap="round"/>
<path opacity="0.6" d="M136.623 314.344H141.528" stroke="white" stroke-width="6" stroke-miterlimit="10" stroke-linecap="round"/>
<path opacity="0.6" d="M155.455 314.344H160.36" stroke="white" stroke-width="6" stroke-miterlimit="10" stroke-linecap="round"/>
<path opacity="0.6" d="M173.183 314.344H178.088" stroke="white" stroke-width="6" stroke-miterlimit="10" stroke-linecap="round"/>
<path opacity="0.6" d="M191.44 314.344H196.346" stroke="white" stroke-width="6" stroke-miterlimit="10" stroke-linecap="round"/>
<path d="M288.17 328.217H219.464C215.797 328.217 213.319 325.244 213.928 321.577L228.439 234.296C229.048 230.629 232.515 227.656 236.182 227.656H304.888C308.556 227.656 311.034 230.629 310.424 234.296L295.914 321.577C295.304 325.244 291.837 328.217 288.17 328.217Z" fill="url(#paint2_linear_95_158)"/>
<path d="M238.841 286.97H229.474C228.959 286.987 228.464 287.179 228.073 287.515C227.682 287.85 227.416 288.309 227.32 288.816L224.012 306.261C223.963 306.488 223.966 306.722 224.021 306.948C224.076 307.173 224.183 307.383 224.331 307.561C224.479 307.739 224.666 307.88 224.878 307.976C225.09 308.07 225.32 308.116 225.552 308.108H234.92C235.435 308.091 235.929 307.898 236.32 307.563C236.712 307.227 236.977 306.768 237.073 306.261L240.381 288.816C240.43 288.59 240.427 288.354 240.372 288.129C240.317 287.904 240.211 287.694 240.062 287.516C239.914 287.339 239.727 287.196 239.515 287.102C239.303 287.007 239.073 286.962 238.841 286.97Z" fill="white"/>
<path d="M261.25 259.956H251.883C251.367 259.973 250.873 260.165 250.482 260.501C250.09 260.837 249.825 261.296 249.729 261.802L242.844 306.262C242.795 306.488 242.798 306.723 242.853 306.948C242.909 307.173 243.014 307.383 243.163 307.561C243.311 307.739 243.498 307.881 243.71 307.976C243.922 308.071 244.152 308.116 244.384 308.108H253.752C254.267 308.091 254.761 307.899 255.152 307.563C255.544 307.227 255.809 306.768 255.905 306.262L262.79 261.802C262.839 261.576 262.836 261.341 262.781 261.116C262.726 260.891 262.62 260.681 262.471 260.503C262.323 260.325 262.136 260.183 261.924 260.088C261.712 259.993 261.482 259.948 261.25 259.956Z" fill="white"/>
<path d="M277.238 272.649H267.871C267.355 272.667 266.861 272.859 266.47 273.195C266.079 273.53 265.813 273.989 265.717 274.496L260.572 306.261C260.523 306.487 260.526 306.723 260.581 306.948C260.636 307.173 260.742 307.383 260.891 307.56C261.039 307.738 261.226 307.881 261.438 307.975C261.649 308.07 261.88 308.115 262.112 308.107H271.479C271.994 308.09 272.489 307.898 272.88 307.562C273.271 307.227 273.537 306.768 273.633 306.261L278.778 274.496C278.827 274.269 278.824 274.035 278.769 273.809C278.714 273.584 278.608 273.375 278.46 273.196C278.311 273.018 278.124 272.877 277.912 272.781C277.701 272.687 277.47 272.642 277.238 272.649Z" fill="white"/>
<path d="M296.458 267.679H287.09C286.574 267.696 286.081 267.888 285.689 268.224C285.298 268.56 285.032 269.018 284.936 269.525L278.829 306.262C278.779 306.489 278.783 306.724 278.838 306.949C278.893 307.174 278.999 307.384 279.148 307.562C279.296 307.74 279.483 307.882 279.695 307.977C279.906 308.071 280.137 308.116 280.368 308.109H289.736C290.251 308.091 290.746 307.899 291.137 307.563C291.528 307.228 291.794 306.769 291.889 306.262L297.997 269.525C298.046 269.299 298.044 269.064 297.988 268.838C297.933 268.613 297.827 268.404 297.679 268.226C297.53 268.048 297.343 267.905 297.131 267.811C296.92 267.716 296.689 267.671 296.458 267.679Z" fill="white"/>
<path d="M235.295 238.395H260.658" stroke="white" stroke-width="10" stroke-miterlimit="10" stroke-linecap="round"/>
<path d="M233.863 247.006H246.544" stroke="white" stroke-width="10" stroke-miterlimit="10" stroke-linecap="round"/>
<path opacity="0.6" d="M226.746 314.344H231.651" stroke="white" stroke-width="6" stroke-miterlimit="10" stroke-linecap="round"/>
<path opacity="0.6" d="M245.578 314.344H250.484" stroke="white" stroke-width="6" stroke-miterlimit="10" stroke-linecap="round"/>
<path opacity="0.6" d="M263.306 314.344H268.211" stroke="white" stroke-width="6" stroke-miterlimit="10" stroke-linecap="round"/>
<path d="M137.226 188.175C137.226 188.175 145.182 186.499 147.706 190.368C150.23 194.238 152.753 201.507 158.474 200.565C164.194 199.622 168.569 180.61 174.289 180.778C180.01 180.947 177.486 193.397 183.711 193.565C189.936 193.733 188.422 186.667 193.469 186.667C198.517 186.667 196.834 201.809 203.396 201.977C209.957 202.146 209.284 182.461 219.211 182.797" stroke="white" stroke-width="5" stroke-miterlimit="10" stroke-linecap="round"/>
<path d="M113.998 185.56C118.05 175.606 114.149 164.612 105.284 161.003C96.4198 157.394 85.9488 162.537 81.8967 172.491C77.8445 182.444 81.7459 193.438 90.6105 197.047C99.4752 200.656 109.947 195.513 113.998 185.56Z" stroke="#FF967C" stroke-width="16.5208" stroke-miterlimit="10" stroke-linecap="round"/>
<path d="M106.201 195.191C101.524 198.276 95.7929 199.158 90.6105 197.047C81.7459 193.438 77.8445 182.444 81.8967 172.491C85.9488 162.537 96.4198 157.394 105.284 161.003" stroke="white" stroke-width="16.5208" stroke-miterlimit="10" stroke-linecap="round"/>
<path d="M143.206 159.85H178.218" stroke="white" stroke-width="10" stroke-miterlimit="10" stroke-linecap="round"/>
<path opacity="0.6" d="M141.547 169.506H155.792" stroke="white" stroke-width="10" stroke-miterlimit="10" stroke-linecap="round"/>
<path d="M162.468 384.184H173.183" stroke="white" stroke-width="5" stroke-miterlimit="10" stroke-linecap="round"/>
<path opacity="0.5" d="M164.649 388.834H170.007" stroke="white" stroke-width="5" stroke-miterlimit="10" stroke-linecap="round"/>
<path d="M155.331 374.9L163.552 369.167L169.344 373.024L177.052 367.441" stroke="white" stroke-width="6.50414" stroke-linecap="round" stroke-linejoin="round"/>
<path d="M171.126 365.01H179.326V373.123" stroke="white" stroke-width="6.50414" stroke-linecap="round" stroke-linejoin="round"/>
<defs>
<linearGradient id="paint0_linear_95_158" x1="182.156" y1="153.945" x2="190.475" y2="295.188" gradientUnits="userSpaceOnUse">
<stop stop-color="white"/>
<stop offset="1" stop-color="#94B9FF"/>
</linearGradient>
<linearGradient id="paint1_linear_95_158" x1="160.861" y1="195.66" x2="195.679" y2="439.726" gradientUnits="userSpaceOnUse">
<stop stop-color="white"/>
<stop offset="1" stop-color="#94B9FF"/>
</linearGradient>
<linearGradient id="paint2_linear_95_158" x1="250.984" y1="195.66" x2="285.802" y2="439.726" gradientUnits="userSpaceOnUse">
<stop stop-color="white"/>
<stop offset="1" stop-color="#94B9FF"/>
</linearGradient>
</defs>
</svg>
