<svg width="4000" height="226" viewBox="0 0 4000 226" fill="none" xmlns="http://www.w3.org/2000/svg">
<path d="M0 82L95.2 76.3C190.3 70.7 380.7 59.3 571.2 57C761.7 54.7 952.3 61.3 1142.8 58.5C1333.3 55.7 1523.7 43.3 1714.2 41.3C1904.7 39.3 2095.3 47.7 2285.8 50C2476.3 52.3 2666.7 48.7 2857.2 47.2C3047.7 45.7 3238.3 46.3 3428.8 38.8C3619.3 31.3 3809.7 15.7 3904.8 7.79999L4000 0V226H3904.8C3809.7 226 3619.3 226 3428.8 226C3238.3 226 3047.7 226 2857.2 226C2666.7 226 2476.3 226 2285.8 226C2095.3 226 1904.7 226 1714.2 226C1523.7 226 1333.3 226 1142.8 226C952.3 226 761.7 226 571.2 226C380.7 226 190.3 226 95.2 226H0V82Z" fill="#2280E0"/>
<path d="M0 40.9995L95.2 43.4995C190.3 45.9995 380.7 50.9995 571.2 46.2995C761.7 41.6995 952.3 27.2995 1142.8 31.1995C1333.3 34.9995 1523.7 56.9995 1714.2 60.9995C1904.7 64.9995 2095.3 50.9995 2285.8 45.2995C2476.3 39.6995 2666.7 42.2995 2857.2 43.4995C3047.7 44.6995 3238.3 44.2995 3428.8 47.9995C3619.3 51.6995 3809.7 59.2995 3904.8 63.1995L4000 66.9995V225.999H3904.8C3809.7 225.999 3619.3 225.999 3428.8 225.999C3238.3 225.999 3047.7 225.999 2857.2 225.999C2666.7 225.999 2476.3 225.999 2285.8 225.999C2095.3 225.999 1904.7 225.999 1714.2 225.999C1523.7 225.999 1333.3 225.999 1142.8 225.999C952.3 225.999 761.7 225.999 571.2 225.999C380.7 225.999 190.3 225.999 95.2 225.999H0V40.9995Z" fill="#1D71C7"/>
<path d="M0 71.9994L95.2 77.6994C190.3 83.2994 380.7 94.6994 571.2 94.4994C761.7 94.2994 952.3 82.6994 1142.8 87.7994C1333.3 92.9994 1523.7 114.999 1714.2 112.499C1904.7 109.999 2095.3 82.9994 2285.8 82.7994C2476.3 82.6994 2666.7 109.299 2857.2 110.299C3047.7 111.299 3238.3 86.6994 3428.8 76.4994C3619.3 66.2994 3809.7 70.6994 3904.8 72.7994L4000 74.9994V225.999H3904.8C3809.7 225.999 3619.3 225.999 3428.8 225.999C3238.3 225.999 3047.7 225.999 2857.2 225.999C2666.7 225.999 2476.3 225.999 2285.8 225.999C2095.3 225.999 1904.7 225.999 1714.2 225.999C1523.7 225.999 1333.3 225.999 1142.8 225.999C952.3 225.999 761.7 225.999 571.2 225.999C380.7 225.999 190.3 225.999 95.2 225.999H0V71.9994Z" fill="#1863AF"/>
<path d="M0 123L95.2 128.3C190.3 133.7 380.7 144.3 571.2 144.8C761.7 145.3 952.3 135.7 1142.8 137.3C1333.3 139 1523.7 152 1714.2 159.2C1904.7 166.3 2095.3 167.7 2285.8 160.3C2476.3 153 2666.7 137 2857.2 128.2C3047.7 119.3 3238.3 117.7 3428.8 125.7C3619.3 133.7 3809.7 151.3 3904.8 160.2L4000 169V226H3904.8C3809.7 226 3619.3 226 3428.8 226C3238.3 226 3047.7 226 2857.2 226C2666.7 226 2476.3 226 2285.8 226C2095.3 226 1904.7 226 1714.2 226C1523.7 226 1333.3 226 1142.8 226C952.3 226 761.7 226 571.2 226C380.7 226 190.3 226 95.2 226H0V123Z" fill="#145597"/>
<path d="M0 194L95.2 195C190.3 196 380.7 198 571.2 189.7C761.7 181.3 952.3 162.7 1142.8 161.7C1333.3 160.7 1523.7 177.3 1714.2 186.7C1904.7 196 2095.3 198 2285.8 194.8C2476.3 191.7 2666.7 183.3 2857.2 181.7C3047.7 180 3238.3 185 3428.8 182C3619.3 179 3809.7 168 3904.8 162.5L4000 157V226H3904.8C3809.7 226 3619.3 226 3428.8 226C3238.3 226 3047.7 226 2857.2 226C2666.7 226 2476.3 226 2285.8 226C2095.3 226 1904.7 226 1714.2 226C1523.7 226 1333.3 226 1142.8 226C952.3 226 761.7 226 571.2 226C380.7 226 190.3 226 95.2 226H0V194Z" fill="#104880"/>
</svg>
